<?xml version="1.0" standalone="no"?>
<!DOCTYPE svg PUBLIC "-//W3C//DTD SVG 1.1//EN" "http://www.w3.org/Graphics/SVG/1.1/DTD/svg11.dtd" >
<svg xmlns="http://www.w3.org/2000/svg" xmlns:xlink="http://www.w3.org/1999/xlink" version="1.1">
<metadata>
Created by FontForge 20161003 at Thu Jan 10 09:04:11 2019
 By www-data
Copyright (c) 1989 Adobe Systems Incorporated. All rights reservedMonotype Bodoni is a trademark of the Monotype Corporation plc
</metadata>
<defs>
<font id="BodoniItalic" horiz-adv-x="490" >
  <font-face 
    font-family="BodoniItalic"
    font-weight="500"
    font-style="italic"
    font-stretch="normal"
    units-per-em="1000"
    panose-1="0 0 0 0 0 0 0 0 0 0"
    ascent="800"
    descent="-200"
    x-height="390"
    cap-height="655"
    bbox="-177 -262 1070 867"
    underline-thickness="41"
    underline-position="-215"
    slope="-15"
    unicode-range="U+0020-FB02"
  />
<missing-glyph horiz-adv-x="333" 
 />
    <glyph glyph-name=".notdef" horiz-adv-x="333" 
 />
    <glyph glyph-name=".null" horiz-adv-x="0" 
 />
    <glyph glyph-name="nonmarkingreturn" horiz-adv-x="333" 
 />
    <glyph glyph-name="space" unicode=" " horiz-adv-x="333" 
 />
    <glyph glyph-name="exclam" unicode="!" horiz-adv-x="323" 
d="M122 102q23 0 40 -16.5t17 -40.5q0 -23 -17 -40t-40 -17q-24 0 -40.5 17t-16.5 40q0 24 16.5 40.5t40.5 16.5zM162 184h-25q20 90 26.5 147t7.5 157q1 69 7.5 102t21.5 54q17 23 44 23q22 0 37 -16t15 -39q0 -46 -36 -130q-44 -102 -58.5 -144t-33.5 -124z" />
    <glyph glyph-name="quotedbl" unicode="&#x22;" horiz-adv-x="420" 
d="M145 392l15 145q9 82 25 111t53 29q17 0 27 -9t10 -25q0 -14 -6.5 -30.5t-34.5 -76.5l-67 -144h-22zM325 392l14 143l5 50q4 43 24 67.5t50 24.5q36 0 36 -33q0 -29 -37 -109l-69 -143h-23z" />
    <glyph glyph-name="numbersign" unicode="#" horiz-adv-x="668" 
d="M44 475h159l42 197h59l-42 -197h206l41 197h60l-42 -197h97v-60h-109l-37 -181h146v-60h-158l-41 -196h-60l42 196h-207l-41 -196h-60l41 196h-96v60h109l38 181h-147v60zM250 415l-38 -180h207l37 180h-206z" />
    <glyph glyph-name="dollar" unicode="$" 
d="M374 599l-56 -258q33 -30 46.5 -45.5t26.5 -36.5q21 -36 21 -83q0 -71 -49.5 -124.5t-121.5 -60.5l-18 -85h-19l19 84q-8 -2 -17 -2q-12 0 -40 3l-18 -85h-19l19 89q-50 15 -79 45t-29 67q0 23 14 40t34 17q18 0 31.5 -13t13.5 -31q0 -27 -23 -43q-16 -10 -16 -17
q0 -12 17 -24.5t42 -19.5l63 290q-2 3 -7 8.5t-7 7.5q-46 48 -62.5 78.5t-16.5 69.5q0 61 44.5 103t117.5 51l7 30h17l-5 -29q8 1 14 1q19 0 43 -3l6 31h18l-7 -34q49 -10 79.5 -39.5t30.5 -64.5q0 -22 -14.5 -37.5t-34.5 -15.5q-18 0 -30.5 11.5t-12.5 28.5q0 21 21 36
q19 12 19 17q0 26 -62 43zM240 415l41 187q-94 -19 -94 -90q0 -25 11.5 -46t41.5 -51zM299 604l-45 -204q24 -24 48 -44l54 246q-15 2 -36 2h-4h-17zM227 11l52 237q-12 10 -49 44l-59 -281q14 -2 29 -2q14 0 27 2zM294 231l-47 -219q50 11 78.5 40.5t28.5 71.5
q0 51 -60 107z" />
    <glyph glyph-name="percent" unicode="%" horiz-adv-x="927" 
d="M790 174q0 -79 -51.5 -143t-114.5 -64q-41 0 -68 38t-27 96q0 80 50.5 144t114.5 64q43 0 69.5 -37t26.5 -98zM726 249q0 17 -10 28.5t-24 11.5q-30 0 -45 -34q-15 -35 -31 -102.5t-22 -121.5v-5q0 -17 9.5 -28t24.5 -11q34 0 57 68q41 126 41 194zM382 539
q0 -80 -49 -144.5t-110 -64.5q-44 0 -71.5 37t-27.5 98q0 76 48 139q52 67 112 67q44 0 71 -36.5t27 -95.5zM319 610q0 19 -10 30.5t-25 11.5q-28 0 -41 -33q-16 -38 -32.5 -106.5t-22.5 -120.5v-3q0 -16 11 -28.5t25 -12.5q23 0 37 29q31 59 56 206q2 20 2 27zM741 671h44
l-612 -704h-43z" />
    <glyph glyph-name="ampersand" unicode="&#x26;" horiz-adv-x="813" 
d="M758 115l17 -13q-33 -47 -66 -72q-56 -43 -115 -43q-49 0 -84 17t-73 59q-89 -76 -193 -76q-81 0 -135 47.5t-54 119.5q0 116 128 185q43 23 104 45q-23 69 -23 111q0 79 50.5 125.5t135.5 46.5q67 0 107.5 -30t40.5 -78q0 -39 -26 -67t-88 -56q-39 -19 -84 -34
q16 -48 42 -109q31 -74 57 -119q29 40 60 91q56 94 82 118q28 26 66 26q30 0 51.5 -19.5t21.5 -46.5q0 -22 -15 -37t-36 -15q-19 0 -32.5 14t-13.5 34q0 10 4 17q5 10 5 13q0 7 -11 7q-29 0 -55 -45l-51 -85q-14 -23 -49 -77q-1 -2 -6 -9t-8 -13q56 -112 130 -112
q32 0 58.5 18.5t57.5 61.5zM393 423q54 26 77 48q49 46 49 110q0 63 -69 63q-43 0 -67.5 -22.5t-24.5 -63.5t35 -135zM294 363q-52 -22 -74 -43q-48 -42 -48 -109q0 -80 37.5 -132.5t95.5 -52.5q31 0 55 11.5t63 44.5q-27 38 -41 64t-38 83q-29 65 -50 134z" />
    <glyph glyph-name="quotesingle" unicode="'" horiz-adv-x="214" 
d="M129 392l15 145l5 49q5 42 24.5 66.5t48.5 24.5q17 0 27 -9t10 -25q0 -19 -18 -57l-23 -50l-67 -144h-22z" />
    <glyph glyph-name="parenleft" unicode="(" 
d="M210 -232h-20q-24 47 -37 82q-39 106 -39 219q0 82 24 173q46 177 171 303q60 60 113 90q12 8 26 15l19 -13q-40 -24 -66 -49q-74 -71 -128 -203q-55 -140 -88 -313q-12 -61 -12 -117q0 -100 37 -187z" />
    <glyph glyph-name="parenright" unicode=")" 
d="M280 650h20q26 -52 37 -83q39 -105 39 -218q0 -82 -24 -173q-46 -176 -172 -304q-55 -55 -112 -90q-2 -1 -11 -6t-16 -8l-18 13q40 24 66 49q76 74 127 203q55 137 89 313q12 69 12 117q0 100 -37 187z" />
    <glyph glyph-name="asterisk" unicode="*" 
d="M420 508l-35 -3q-50 -4 -50 -18q0 -8 9.5 -11t43.5 -6q81 -7 81 -52q0 -14 -10.5 -25t-24.5 -11q-19 0 -33 10.5t-33 38.5q-25 37 -40 37q-8 0 -8 -10q0 -15 14 -44q17 -38 17 -57q0 -18 -11.5 -31t-27.5 -13q-17 0 -27.5 12.5t-10.5 31.5q0 15 17 58q13 28 13 42
q0 9 -6 9q-12 0 -39 -37q-33 -47 -65 -47q-16 0 -27.5 10.5t-11.5 25.5q0 45 78 51q35 3 45.5 6.5t10.5 11.5q0 14 -57 19q-78 8 -78 52q0 15 11 26t27 11q32 0 66 -48q27 -40 40 -40q6 0 6 7q0 13 -15 48q-16 32 -16 52q0 19 11.5 32.5t27.5 13.5q17 0 28.5 -12.5
t11.5 -30.5q0 -20 -18 -56q-15 -31 -15 -45q0 -11 7 -11q8 0 16.5 8t26.5 34q33 44 63 44q16 0 27.5 -10.5t11.5 -26.5t-15.5 -30t-35.5 -16z" />
    <glyph glyph-name="plus" unicode="+" horiz-adv-x="667" 
d="M67 355h233v234h64v-234h235v-64h-235v-232h-64v232h-233v64z" />
    <glyph glyph-name="comma" unicode="," horiz-adv-x="271" 
d="M40 -145l-5 24q59 19 96 58t37 83q0 19 -9 19q-7 0 -17 -15q-15 -24 -44 -24q-21 0 -35 14.5t-14 35.5q0 25 21.5 43.5t50.5 18.5q30 0 52 -25t22 -59q0 -73 -68 -128q-29 -24 -87 -45z" />
    <glyph glyph-name="hyphen" unicode="-" horiz-adv-x="323" 
d="M57 252h209v-89h-209v89z" />
    <glyph glyph-name="period" unicode="." horiz-adv-x="323" 
d="M142 103q23 0 40 -17t17 -40q0 -24 -17 -41t-41 -17t-41 17t-17 41q0 23 17.5 40t41.5 17z" />
    <glyph glyph-name="slash" unicode="/" horiz-adv-x="281" 
d="M382 695l-373 -710h-43l375 710h41z" />
    <glyph glyph-name="zero" unicode="0" 
d="M36 214q0 120 47 220q48 98 122 165q48 41 102 41q66 0 107.5 -63.5t41.5 -163.5q0 -114 -46 -217.5t-125 -168.5q-48 -41 -101 -41q-66 0 -107 63.5t-41 164.5zM112 102q0 -44 18.5 -69t52.5 -25q78 0 116 118q30 94 67 293q15 77 15 114q0 38 -20.5 61t-55.5 23
q-31 0 -49 -18q-26 -23 -42 -56.5t-36 -105.5q-36 -137 -47 -189t-18 -113q-1 -9 -1 -33z" />
    <glyph glyph-name="one" unicode="1" 
d="M373 640l-130 -615h109l-5 -25h-306l6 25h102l126 575h-116l6 24h65l23 1l54 3q23 1 66 12z" />
    <glyph glyph-name="two" unicode="2" 
d="M404 165l-39 -165h-350v30q43 57 113 119l89 82q72 66 107 130q41 75 41 156q0 45 -22 71t-60 26q-53 0 -92 -32q-18 -13 -30.5 -33t-12.5 -34l2 -6q0 -5 4 -7q3 -3 8 -3q6 0 11 1q3 1 11 1q42 0 42 -40q0 -20 -14 -34t-34 -14q-26 0 -44 21t-18 52q0 64 53.5 109
t129.5 45q73 0 119 -38.5t46 -98.5q0 -81 -99 -174q-15 -13 -47 -41.5t-49 -43.5l-75 -65q-66 -57 -106 -100h208q41 0 53 8.5t22 47.5q6 20 8 30h25z" />
    <glyph glyph-name="three" unicode="3" 
d="M204 571l16 -12q11 -11 11 -30q0 -21 -13 -33.5t-35 -12.5q-19 0 -32 13.5t-13 32.5q0 46 47 78.5t113 32.5t108.5 -36t42.5 -92q0 -82 -75 -131q-38 -25 -97 -38v-2q64 -11 97 -39q48 -40 48 -105q0 -84 -70 -147.5t-163 -63.5q-65 0 -110.5 34t-45.5 83q0 27 16 44.5
t40 17.5q20 0 33.5 -13t13.5 -32q0 -32 -29 -45q-20 -9 -20 -19q0 -9 13 -19q35 -24 76 -24q62 0 104 60.5t42 149.5q0 50 -23 77.5t-65 27.5h-7l-56 -6h-2q-7 0 -12.5 4.5t-5.5 11.5q0 8 8 13t19 5h5l42 -4h4q51 0 88.5 54.5t37.5 129.5q0 83 -73 83q-40 0 -71 -23
q-11 -8 -11 -17q0 -5 4 -8z" />
    <glyph glyph-name="four" unicode="4" 
d="M434 642l-98 -451h87l13 58h24l-34 -154h-25l16 73h-86l-31 -143h71l-5 -25h-235l5 25h73l30 143h-226v18q58 84 117 158q34 42 106 127q79 96 151 171h47zM245 191l72 335l-2 2q-38 -42 -96 -114q-82 -101 -155 -197l-20 -26h201z" />
    <glyph glyph-name="five" unicode="5" 
d="M183 544l-49 -190q56 22 108 22q80 0 129 -44.5t49 -117.5q0 -96 -69 -162t-170 -66q-64 0 -105 32t-41 82q0 26 14 41.5t39 15.5q20 0 33 -12.5t13 -32.5q0 -28 -20 -37l-18 -8q-11 -5 -11 -14q0 -18 30 -30q31 -13 58 -13q47 0 77 24q32 26 52.5 81.5t20.5 115.5
q0 57 -26 87.5t-75 30.5q-48 0 -96 -28q-2 0 -5.5 -0.5t-4.5 -0.5h-5q-4 0 -9 4l65 257q7 26 16.5 34.5t31.5 8.5h26h114q49 0 62 5t24 27h23q-22 -80 -64 -102q-18 -10 -41 -10h-22h-154z" />
    <glyph glyph-name="six" unicode="6" 
d="M466 656v-23q-194 -6 -284 -262l2 -2q56 49 121 49q58 0 100 -47.5t42 -113.5q0 -107 -73 -189t-168 -82q-74 0 -119.5 54.5t-45.5 142.5q0 117 61 227t160 178t204 68zM169 327q-47 -157 -47 -238q0 -37 23 -59.5t61 -22.5q39 0 65 28q32 38 58 120t26 149
q0 41 -17.5 65t-46.5 24q-57 0 -122 -66z" />
    <glyph glyph-name="seven" unicode="7" 
d="M168 624h332v-12l-105 -165l-13 -21q-79 -123 -116 -218q-16 -38 -16 -82v-9l2 -46v-6q0 -37 -16.5 -61t-42.5 -24q-20 0 -35 15.5t-15 37.5q0 29 14 63q33 78 120 211l15 23l133 208h-207l-26 1q-26 0 -43 -19t-40 -73h-26z" />
    <glyph glyph-name="eight" unicode="8" 
d="M307 323v1v-2q52 -19 81 -50q37 -40 37 -91q0 -80 -67 -137.5t-161 -57.5q-77 0 -128.5 45t-51.5 113q0 41 24.5 80t68.5 67q38 24 92 36v2q-99 43 -99 135q0 75 61 126t150 51q68 0 113 -41.5t45 -103.5q0 -75 -66 -126q-37 -28 -99 -47zM195 408q0 -72 67 -72
q36 0 57 23q26 28 43.5 77.5t17.5 98.5q0 39 -19 61.5t-52 22.5q-39 0 -62 -27q-23 -29 -37.5 -79.5t-14.5 -104.5zM114 85q0 -35 23 -55.5t61 -20.5q46 0 74 28q25 26 42 80t17 109q0 87 -81 87q-48 0 -81 -35q-25 -28 -40 -81.5t-15 -111.5z" />
    <glyph glyph-name="nine" unicode="9" 
d="M20 -14l5 24q98 7 167 64q68 58 105 155q1 1 10 27l-2 2q-56 -52 -117 -52q-62 0 -103.5 48t-41.5 118q0 104 79 188q75 80 161 80q73 0 118.5 -56t45.5 -144q0 -98 -43.5 -194t-116.5 -161q-103 -90 -233 -98q-19 0 -34 -1zM321 299l8 28q34 119 38 200v3
q0 40 -21.5 62.5t-60.5 22.5q-50 0 -76 -38q-30 -42 -52 -118.5t-22 -139.5q0 -38 18 -62.5t47 -24.5q61 0 121 67z" />
    <glyph glyph-name="colon" unicode=":" horiz-adv-x="323" 
d="M200 396q23 0 39.5 -17t16.5 -41t-17 -41t-41 -17t-41 17t-17 41t17.5 41t42.5 17zM138 103q23 0 39.5 -17t16.5 -40q0 -24 -16.5 -41t-40.5 -17t-41 17t-17 41q0 23 17 40t42 17z" />
    <glyph glyph-name="semicolon" unicode=";" horiz-adv-x="323" 
d="M56 -148l-5 25q59 22 96.5 62.5t37.5 81.5q0 20 -13 20q-7 0 -18 -17q-15 -24 -42 -24q-19 0 -32 13.5t-13 33.5q0 25 19.5 42.5t47.5 17.5q33 0 55 -23t22 -58q0 -64 -60 -119q-35 -33 -95 -55zM202 396q23 0 39 -16.5t16 -40.5q0 -23 -16.5 -39.5t-39.5 -16.5
q-24 0 -40.5 17t-16.5 40t17 39.5t41 16.5z" />
    <glyph glyph-name="less" unicode="&#x3c;" horiz-adv-x="667" 
d="M598 72l-529 223v58l529 223v-70l-443 -182l443 -183v-69z" />
    <glyph glyph-name="equal" unicode="=" horiz-adv-x="667" 
d="M68 472h531v-65h-531v65zM68 243h531v-64h-531v64z" />
    <glyph glyph-name="greater" unicode="&#x3e;" horiz-adv-x="667" 
d="M68 576l530 -224v-57l-530 -223v69l444 182l-444 183v70z" />
    <glyph glyph-name="question" unicode="?" horiz-adv-x="375" 
d="M158 183h-23v20q0 85 24.5 130.5t90.5 80.5l60 33q70 39 70 102q0 43 -31 70t-80 27q-56 0 -93 -32q-15 -12 -15 -22q0 -6 12 -10q25 -7 35 -17t10 -28q0 -19 -13.5 -32.5t-32.5 -13.5q-22 0 -38.5 17t-16.5 40q0 51 45.5 86.5t110.5 35.5q66 0 108 -41t42 -106
q0 -83 -58 -143q-42 -43 -116 -75q-58 -25 -74.5 -46t-16.5 -69v-7zM147 104q25 0 42 -17t17 -41t-17 -41t-41 -17t-41 17t-17 41t16.5 41t40.5 17z" />
    <glyph glyph-name="at" unicode="@" horiz-adv-x="920" 
d="M689 468l-57 -195l-29 -105q-14 -49 -16 -78v-2q0 -17 10.5 -27.5t27.5 -10.5q26 0 60.5 20.5t59.5 50.5q40 48 62.5 113.5t22.5 131.5q0 131 -87.5 217t-220.5 86q-231 0 -353 -200q-74 -123 -74 -267q0 -170 106.5 -279t272.5 -109q136 0 238 69.5t158 200.5h28
q-44 -136 -159.5 -218t-262.5 -82q-184 0 -305.5 122.5t-121.5 308.5q0 204 134 342t333 138q152 0 247.5 -93.5t95.5 -242.5q0 -140 -78.5 -242t-186.5 -102q-79 0 -79 70q0 23 9 67l-2 2q-40 -52 -78 -86q-58 -53 -111 -53q-39 0 -64.5 33t-25.5 85q0 58 35 131t89 128
q79 79 146 79q68 0 82 -68h2l15 54zM518 448q-34 0 -72.5 -37t-73.5 -105q-51 -100 -51 -158q0 -33 16 -53.5t41 -20.5q43 0 85 44q49 48 74 97q18 34 33 100q8 31 8 58q0 35 -16 55t-44 20z" />
    <glyph glyph-name="A" unicode="A" horiz-adv-x="760" 
d="M485 217h-208l-155 -192h104l-5 -25h-217l5 25h79l524 645h24l-60 -645h95l-5 -25h-304l5 25h98zM485 241l24 260l-2 2l-210 -262h188z" />
    <glyph glyph-name="B" unicode="B" horiz-adv-x="698" 
d="M123 25l127 605h-101l5 25h277h37q45 0 87 -11q36 -9 68 -36q48 -42 48 -101q0 -37 -21.5 -70.5t-57.5 -53.5q-46 -25 -123 -38v-2q43 -11 65 -21.5t44 -30.5q53 -48 53 -114q0 -59 -40.5 -104t-107.5 -61q-55 -12 -147 -12h-309l6 25h90zM306 358h89q54 0 82 11t44 37
q35 60 35 144q0 50 -24.5 65t-105.5 15h-62zM236 25h111q50 0 75 6.5t40 23.5q22 24 36.5 79t14.5 112q0 48 -29 67.5t-99 19.5h-84z" />
    <glyph glyph-name="C" unicode="C" horiz-adv-x="646" 
d="M658 646l-37 -183h-26q-5 183 -129 183q-151 0 -221 -265q-13 -47 -23 -111.5t-10 -100.5q0 -73 33 -112q17 -21 46.5 -34t59.5 -13q88 0 156 65q26 26 40.5 47t39.5 67h23l-47 -189h-22q-22 31 -28 39q-49 -31 -86.5 -42.5t-84.5 -11.5q-106 0 -180 74t-74 180
t53.5 204.5t147.5 163.5q91 63 181 63q78 0 125 -64q21 17 43 40h20z" />
    <glyph glyph-name="D" unicode="D" horiz-adv-x="760" 
d="M122 25l127 605h-100l5 25h265h31q121 0 196.5 -75t75.5 -195q0 -148 -108 -267q-59 -64 -124 -91t-157 -27h-306l5 25h90zM236 25h84q81 0 114 13q51 20 78 64q40 65 66.5 173.5t26.5 207.5q0 147 -149 147h-30h-63z" />
    <glyph glyph-name="E" unicode="E" horiz-adv-x="698" 
d="M370 630l-59 -275h51q48 0 70.5 9t39.5 35q16 23 32 71h25l-59 -272h-25q5 35 5 48q0 46 -21 65t-71 19h-52l-65 -305h172q84 0 111 19q58 40 117 162h25l-61 -206h-573l5 25h90l128 605h-101l5 25h552l-30 -166h-22v17q0 70 -26 99q-13 16 -36 20.5t-81 4.5h-146z" />
    <glyph glyph-name="F" unicode="F" horiz-adv-x="698" 
d="M368 630l-60 -277h65q41 0 65 10.5t42 36.5q16 25 26 66h25l-62 -289h-25q10 40 10 63q0 48 -19.5 68.5t-65.5 20.5h-66l-65 -304h105l-6 -25h-308l6 25h90l129 605h-90l6 25h545l-39 -202h-23q1 13 1 26q0 119 -56 142q-21 9 -72 9h-158z" />
    <glyph glyph-name="G" unicode="G" horiz-adv-x="646" 
d="M628 661l-31 -198h-23q-9 99 -45 140.5t-111 41.5q-74 0 -121 -72.5t-76 -234.5q-26 -149 -26 -199q0 -60 31.5 -94.5t86.5 -34.5q86 0 117 86q14 40 27 118h-94l5 23h288l-5 -23h-63q-17 -61 -29.5 -88t-37.5 -58q-31 -38 -83 -61t-107 -23q-69 0 -116 24.5t-83 77.5
q-52 80 -52 175q0 98 45 190t124 154q84 67 166 65q52 0 85.5 -13.5t66.5 -47.5q21 21 39 52h22z" />
    <glyph glyph-name="H" unicode="H" horiz-adv-x="813" 
d="M576 328h-276l-64 -303h90l-5 -25h-296l6 25h90l129 605h-90l6 25h294l-5 -25h-90l-60 -277h276l60 277h-90l5 25h293l-5 -25h-90l-128 -605h90l-5 -25h-295l5 25h91z" />
    <glyph glyph-name="I" unicode="I" 
d="M406 630l-131 -605h90l-5 -25h-296l5 25h91l131 605h-90l5 25h296l-6 -25h-90z" />
    <glyph glyph-name="J" unicode="J" horiz-adv-x="594" 
d="M531 630l-87 -439q-13 -64 -26.5 -100.5t-39.5 -74.5q-32 -47 -88 -76t-115 -29q-65 0 -107 28.5t-42 73.5q0 28 16 45.5t41 17.5q22 0 37 -15t15 -37q0 -25 -23 -41q-14 -10 -14 -16q0 -12 20.5 -20.5t48.5 -8.5q42 0 74 19.5t46 54.5q15 36 27 93l6 28l98 497h-94l6 25
h296l-5 -25h-90z" />
    <glyph glyph-name="K" unicode="K" horiz-adv-x="813" 
d="M390 630l-130 -605h90l-5 -25h-294l5 25h90l131 605h-91l6 25h294l-6 -25h-90zM442 388l247 -363h85l-6 -25h-292l5 25h81l-216 318l356 285v2h-98l5 25h225l-5 -25h-86z" />
    <glyph glyph-name="L" unicode="L" horiz-adv-x="646" 
d="M364 630l-129 -605h129q71 0 105.5 14.5t62.5 57.5q29 43 58 116h25l-58 -213h-530l5 25h91l127 605h-97l5 25h308l-6 -25h-96z" />
    <glyph glyph-name="M" unicode="M" horiz-adv-x="969" 
d="M420 655l72 -490h2l283 490h232l-6 -25h-90l-130 -605h90l-5 -25h-295l5 25h90l130 605h-9l-360 -630h-24l-92 630h-9l-129 -605h94l-5 -25h-209l6 25h90l129 605h-90l5 25h225z" />
    <glyph glyph-name="N" unicode="N" horiz-adv-x="813" 
d="M414 655l218 -482h2l98 457h-90l5 25h195l-5 -25h-80l-136 -638h-25l-290 638h-8l-129 -605h104l-6 -25h-226l5 25h98l129 605h-95l4 25h232z" />
    <glyph glyph-name="O" unicode="O" horiz-adv-x="646" 
d="M410 670q95 0 157 -75t62 -189q0 -164 -104.5 -292.5t-237.5 -128.5q-93 0 -159.5 73t-66.5 176q0 101 52.5 204t140.5 172q76 60 156 60zM410 647q-55 0 -92 -32.5t-64 -106.5q-34 -93 -57 -203.5t-23 -180.5q0 -56 29 -86t83 -30q69 0 108 47q56 70 112 348
q14 75 14 126q0 118 -110 118z" />
    <glyph glyph-name="P" unicode="P" horiz-adv-x="698" 
d="M265 630h-100l5 25h287h35q61 -1 90.5 -7.5t57.5 -26.5q65 -45 65 -123q0 -61 -44 -111t-114 -69q-62 -16 -137 -16h-98l-56 -277h101l-5 -25h-313l5 25h99zM379 630l-62 -303h91q51 0 78.5 8t43.5 27q23 29 38.5 80t15.5 103q0 49 -25.5 67t-94.5 18h-85z" />
    <glyph glyph-name="Q" unicode="Q" horiz-adv-x="646" 
d="M511 -178v-22q-58 -9 -99 -9q-99 0 -151.5 40t-52.5 115q0 11 8 53q-72 30 -113 94t-41 146q0 168 129 309q109 122 221 122q94 0 156 -76.5t62 -192.5q0 -139 -80 -255.5t-201 -152.5l-5 -18q-10 -41 -10 -64q0 -94 109 -94q29 0 68 5zM283 9q103 0 143 98
q52 128 76 274q20 118 20 152q0 53 -29.5 84t-80.5 31q-101 0 -149 -117q-35 -86 -62 -210.5t-27 -198.5q0 -53 29 -83t80 -30z" />
    <glyph glyph-name="R" unicode="R" horiz-adv-x="698" 
d="M294 343l-66 -318h96l-5 -25h-300l6 25h90l127 605h-101l5 25h304q97 0 156 -40t59 -105q0 -84 -95 -128q-38 -17 -67.5 -23.5t-88.5 -10.5v-2q70 -20 105 -48q26 -21 38 -44q15 -26 19.5 -50t4.5 -84l-1 -12q0 -49 12.5 -67.5t46.5 -18.5q16 0 51 11v-26
q-49 -15 -82 -15q-82 0 -120 47q-21 24 -28 50.5t-7 84.5q0 78 -14 113t-50 47q-27 9 -71 9h-24zM356 630l-57 -262h69q87 0 118 21q28 19 46 64t18 93t-23 66t-84 18h-87z" />
    <glyph glyph-name="S" unicode="S" horiz-adv-x="594" 
d="M574 655l-44 -187h-24q-1 52 -10.5 82.5t-32.5 54.5q-40 43 -105 43q-56 0 -100 -34.5t-44 -78.5q0 -20 15 -41t39 -35q34 -19 74 -36q107 -47 150 -94.5t43 -119.5q0 -94 -69 -159t-169 -65q-79 0 -161 64q-35 -24 -64 -49h-19l47 190h20q8 -60 29 -95q49 -85 149 -85
q73 0 121 39t48 98q0 46 -34.5 79t-123.5 73q-86 38 -117 74.5t-31 100.5q0 83 57 139.5t141 56.5q92 0 147 -65q30 24 45 50h23z" />
    <glyph glyph-name="T" unicode="T" horiz-adv-x="698" 
d="M500 630l-127 -605h98l-4 -25h-310l6 25h97l127 605h-35q-99 0 -154 -77q-32 -47 -58 -116h-23l46 218h577l-47 -218h-24q0 4 0.5 11t1.5 10q1 11 1 16q0 85 -24.5 120.5t-82.5 35.5h-23h-42z" />
    <glyph glyph-name="U" unicode="U" horiz-adv-x="813" 
d="M379 630l-83 -389l-6 -27q-8 -40 -8 -77q0 -60 37.5 -92.5t106.5 -32.5q136 0 188 116q20 47 34 120l74 382h-92l6 25h204l-6 -25h-86l-78 -404q-25 -127 -86.5 -184t-171.5 -57q-107 0 -174 47t-67 121q0 29 15 104l80 373h-94l5 25h295l-4 -25h-89z" />
    <glyph glyph-name="V" unicode="V" horiz-adv-x="760" 
d="M353 142l391 488h-98l5 25h202l-5 -25h-72l-519 -645h-22l22 645h-96l5 25h297l-5 -25h-90l-17 -486z" />
    <glyph glyph-name="W" unicode="W" horiz-adv-x="969" 
d="M586 144l380 486h-80l5 25h179l-5 -25h-66l-507 -645h-23l11 319l-2 2l-271 -321h-22l29 645h-85l6 25h699l-5 -25h-73l-162 -188l-10 -296zM303 134l179 214l10 282h-168l-23 -494zM598 484l124 146h-122l-4 -144z" />
    <glyph glyph-name="X" unicode="X" horiz-adv-x="813" 
d="M475 402l219 228h-93l6 25h211l-5 -25h-85l-242 -253l161 -352h94l-4 -25h-308l6 25h89l-120 265l-250 -265h93l-5 -25h-215l5 25h88l273 288l-146 317h-97l5 25h314l-5 -25h-94z" />
    <glyph glyph-name="Y" unicode="Y" horiz-adv-x="813" 
d="M479 334l253 296h-96l5 25h209l-6 -25h-79l-272 -322l-60 -283h94l-5 -25h-304l5 25h95l57 268l-169 337h-82l5 25h304l-5 -25h-97z" />
    <glyph glyph-name="Z" unicode="Z" horiz-adv-x="646" 
d="M210 655h458v-16l-489 -614h144q81 0 115 14q46 17 77 60q30 42 51 106h24l-46 -205h-506v25l484 605h-121q-65 0 -98 -11.5t-60 -43.5q-19 -22 -29 -41t-24 -60h-25z" />
    <glyph glyph-name="bracketleft" unicode="[" 
d="M296 635h184v-18q-21 -1 -31 0h-5q-6 0 -10 -1l-31 -3q-17 -2 -31 -16.5t-19 -36.5l-7 -25l-181 -667q-8 -31 -8 -37q0 -17 15.5 -24.5t52.5 -7.5h6h27l-5 -19h-188z" />
    <glyph glyph-name="backslash" unicode="\" horiz-adv-x="281" 
d="M141 695l91 -710h-36l-89 710h34z" />
    <glyph glyph-name="bracketright" unicode="]" 
d="M192 -220h-184v19h31h5h10l31 3q21 2 33.5 19t23.5 59l181 668l5 19q3 9 3 18q0 17 -15.5 24.5t-52.5 7.5h-6h-27l5 18h188z" />
    <glyph glyph-name="asciicircum" unicode="^" horiz-adv-x="422" 
d="M252 677l208 -350h-45l-171 287l-171 -287h-46l211 350h14z" />
    <glyph glyph-name="underscore" unicode="_" horiz-adv-x="500" 
d="M508 -216h-516v41h516v-41z" />
    <glyph glyph-name="grave" unicode="`" horiz-adv-x="333" 
d="M147 586h90l49 -128h-49z" />
    <glyph glyph-name="a" unicode="a" 
d="M439 387l-66 -278q-9 -37 -9 -58t14 -21t36 31.5t41 79.5h20q-23 -71 -58 -112t-73 -41q-59 0 -65 90h-2q-48 -90 -120 -90q-50 0 -84 44.5t-34 109.5t32.5 125t88.5 97q47 32 90 32q62 0 80 -73h2l14 64h93zM253 375q-31 0 -51.5 -29.5t-37.5 -98.5q-37 -149 -37 -186
q0 -22 10 -35t27 -13q41 0 73 39q32 41 55.5 110.5t23.5 122.5q0 41 -17.5 65.5t-45.5 24.5z" />
    <glyph glyph-name="b" unicode="b" horiz-adv-x="427" 
d="M255 663l-75 -322l2 -2q45 59 97 59q53 0 87.5 -42.5t34.5 -106.5q0 -86 -61 -165q-35 -44 -81 -70t-91 -26q-58 0 -93 31.5t-35 83.5q0 13 3 36t6 37l5 18l103 436h-59l5 25h57q48 0 95 8zM150 218l-12 -51q-14 -57 -14 -97q0 -28 15 -44.5t40 -16.5q34 0 55 28
q25 31 51 147l21 92q7 29 7 53q0 21 -11.5 33t-31.5 12q-32 0 -63 -32q-25 -27 -36 -53q-5 -15 -15 -50z" />
    <glyph glyph-name="c" unicode="c" horiz-adv-x="375" 
d="M319 119h22q-64 -131 -161 -131q-60 0 -100 47.5t-40 119.5q0 94 70.5 167.5t160.5 73.5q40 0 67 -20t27 -49q0 -22 -13.5 -37t-33.5 -15t-32.5 12.5t-12.5 32.5q0 24 16 40q4 6 4 7q0 10 -30 10q-59 0 -82 -76q-21 -62 -45 -174q-5 -30 -5 -48q0 -30 15.5 -49t40.5 -19
q39 0 76 35q25 24 56 73z" />
    <glyph glyph-name="d" unicode="d" 
d="M498 662l-128 -544l-4 -17q-1 -4 -6 -29q0 -4 -0.5 -9t-1 -8t-0.5 -4q0 -16 16 -16q31 0 72 98h23q-24 -62 -49 -95q-37 -50 -83 -50q-56 0 -63 87h-2q-50 -87 -117 -87q-49 0 -84 47t-35 112q0 72 44 141t110 98q30 14 56 14q62 0 80 -68h2l69 300h-92l6 25h69
q44 0 118 5zM247 377q-30 0 -48.5 -29t-37.5 -104q-37 -145 -37 -184q0 -20 11 -33.5t27 -13.5q33 0 66 35t52 91q32 94 32 154q0 38 -18 61t-47 23z" />
    <glyph glyph-name="e" unicode="e" horiz-adv-x="375" 
d="M334 129h21q-29 -67 -75.5 -104t-101.5 -37q-58 0 -98.5 48.5t-40.5 118.5q0 57 33.5 115t87.5 94q46 32 95 32q46 0 76 -28t30 -71q0 -23 -14 -49t-34 -41q-27 -20 -55 -27.5t-88 -9.5q-14 0 -25 -1q-5 -18 -6 -27q-14 -60 -14 -80q0 -23 16.5 -37.5t41.5 -14.5
q88 0 151 119zM155 214l-5 -24q50 2 71.5 8t34.5 24q15 18 25.5 49.5t10.5 56.5q0 47 -41 47t-61 -41q-17 -31 -35 -120z" />
    <glyph glyph-name="f" unicode="f" horiz-adv-x="323" 
d="M240 359l-4 -22l-27 -171q-66 -428 -247 -428q-35 0 -60 19.5t-25 47.5q0 21 12.5 33.5t32.5 12.5q41 0 41 -46q0 -12 -8 -26q-3 -5 -3 -9q0 -9 14 -9q45 0 72 41q31 53 57 239l20 153l25 140l5 25h-90l5 25h91q36 168 120 241q48 42 100 42q40 0 67.5 -22t27.5 -53
q0 -20 -12.5 -34t-30.5 -14t-31 12.5t-13 30.5q0 17 12 29l13 13q4 3 4 6q0 11 -30 11q-27 0 -50.5 -16t-36.5 -42q-33 -65 -48 -204h71l-5 -25h-69z" />
    <glyph glyph-name="g" unicode="g" horiz-adv-x="427" 
d="M177 59l35 1h5q140 0 140 -129q0 -83 -60 -132.5t-161 -49.5q-78 0 -125 29t-47 76q0 49 38 79q28 24 87 45q-67 32 -67 80q0 76 80 105q-35 42 -35 88q0 56 50 100.5t114 44.5q73 0 109 -66h2q0 33 12.5 51t34.5 18q13 0 23 -10.5t10 -24.5t-7 -23t-18 -9q-12 0 -17 9
l-6 11q-2 5 -5 5q-11 0 -11 -31v-5l2 -18v-9q0 -36 -9 -62q-16 -46 -61 -76t-97 -30q-41 0 -79 23q-56 -20 -56 -52q0 -22 21.5 -30t83.5 -8h2h12zM235 377q-23 0 -40.5 -15t-25.5 -42q-25 -79 -25 -125q0 -23 12.5 -36t34.5 -13q48 0 69 67q22 68 22 113q0 51 -47 51z
M201 -29q-94 0 -131 -22q-22 -13 -35.5 -38.5t-13.5 -51.5q0 -41 32.5 -64.5t89.5 -23.5q79 0 133 38t54 94q0 38 -28.5 53t-100.5 15z" />
    <glyph glyph-name="h" unicode="h" 
d="M268 660l-87 -364l2 -2q38 52 75 74q44 28 86 28q34 0 53 -19t19 -53q0 -18 -10 -57l-39 -157q-9 -34 -9 -53q0 -11 4.5 -18.5t11.5 -7.5q37 0 75 106h24q-43 -145 -139 -145q-32 0 -50 17.5t-18 49.5q0 21 10 61l41 163q8 30 8 46q0 33 -25 33q-15 0 -40 -17t-47 -42
q-24 -28 -35 -52t-24 -76l-41 -175h-91l149 630h-64l6 24h58h27q26 0 70 6z" />
    <glyph glyph-name="i" unicode="i" horiz-adv-x="323" 
d="M232 393l-71 -292l-4 -19q-6 -20 -6 -38t18 -18q25 0 54.5 34.5t55.5 94.5h22q-65 -167 -174 -167q-65 0 -65 67q0 19 9 59q2 6 6 22l54 223h-92l5 25h57q69 0 131 9zM227 651q23 0 39 -16t16 -38q0 -23 -16 -38.5t-38 -15.5t-37.5 16t-15.5 38t15 38t37 16z" />
    <glyph glyph-name="j" unicode="j" horiz-adv-x="323" 
d="M275 392l-83 -351q-1 -3 -7 -26q-20 -70 -34 -107q-20 -56 -55 -98q-51 -61 -110 -61q-37 0 -60 15t-23 38q0 17 13.5 28.5t33.5 11.5q18 0 31 -12.5t13 -29.5v-4q0 -4 -0.5 -7.5t-1.5 -5.5v-2q0 -5 4 -8.5t9 -3.5q13 0 22 11.5t17 40.5l13 51l5 21l112 466h-97l5 25h87
q40 0 96 8h10zM267 651q22 0 37.5 -15.5t15.5 -38.5q0 -22 -15.5 -37.5t-37.5 -15.5t-38 15.5t-16 37.5q0 23 15.5 38.5t38.5 15.5z" />
    <glyph glyph-name="k" unicode="k" 
d="M27 0l149 630h-75l5 25h66q53 0 93 7h12l-104 -433l2 -2q16 20 49 20h14q20 16 30 29.5t32 55.5q36 67 89 67q30 0 51 -18.5t21 -45.5q0 -21 -13 -34t-34 -13q-19 0 -30.5 11.5t-11.5 29.5q0 14 13 28q6 6 6 9q0 7 -12 7q-32 0 -56 -46l-18 -33q-14 -23 -40 -52
q51 -16 69.5 -38.5t18.5 -69.5q0 -4 -2 -42l-2 -34q0 -28 15 -28q39 0 85 107h21q-23 -69 -63 -107t-90 -38q-65 0 -65 70q0 16 3 29l11 40l7 34q4 17 4 30q0 26 -29 33q-33 -24 -51 -24q-20 0 -24 17h-2l-53 -221h-91z" />
    <glyph glyph-name="l" unicode="l" horiz-adv-x="271" 
d="M271 662l-132 -567q-7 -29 -7 -45q0 -17 12 -17q40 0 84 112h22q-55 -157 -146 -157q-28 0 -46 17.5t-18 45.5q0 9 2 23l5 20l123 536h-67l5 25h62q58 0 101 7z" />
    <glyph glyph-name="m" unicode="m" horiz-adv-x="760" 
d="M227 392l-26 -107l2 -2q23 34 38.5 50t38.5 33q41 30 83 30q34 0 56.5 -18.5t22.5 -47.5q0 -8 -5 -41l2 -2q26 37 43 54t41 31q43 24 81 24q34 0 54.5 -18.5t20.5 -48.5q0 -20 -8 -51l-45 -183q-8 -32 -8 -42q0 -9 4.5 -15.5t11.5 -6.5q19 0 43 31.5t39 77.5h24
q-20 -67 -59 -107.5t-82 -40.5q-34 0 -53 17t-19 47q0 13 2 27l5 18l48 186l4 20q4 15 4 27q0 11 -8 18t-20 7q-16 0 -42.5 -18t-48.5 -45q-26 -32 -40 -61.5t-27 -84.5l-36 -150h-91l62 265l8 33q4 24 4 32q0 12 -8 21t-19 9q-18 0 -43.5 -19.5t-49.5 -51.5
q-42 -55 -57 -122l-4 -20l-35 -147h-94l87 359h-83l5 25h79q56 0 98 8z" />
    <glyph glyph-name="n" unicode="n" horiz-adv-x="542" 
d="M235 392l-25 -106l2 -2q43 56 79 81q45 31 90 31q35 0 55.5 -19.5t20.5 -52.5q0 -14 -3 -24v-2q-1 -3 -2.5 -8.5t-2.5 -10.5l-44 -181q-7 -27 -7 -42q0 -24 16 -24q42 0 88 107h23q-26 -70 -66 -108.5t-87 -38.5q-31 0 -48.5 17t-17.5 46q0 21 11 65l36 146l5 22l6 22
q1 6 1 17q0 32 -26 32q-27 0 -62 -32q-75 -66 -100 -179l-5 -25l-29 -123h-92l84 359h-84l5 25h65q64 0 114 8z" />
    <glyph glyph-name="o" unicode="o" horiz-adv-x="427" 
d="M260 396q61 0 100 -46t39 -118q0 -92 -68 -168t-152 -76q-62 0 -102 46.5t-40 119.5q0 97 67 169.5t156 72.5zM168 265l-20 -74q-21 -78 -21 -120q0 -28 14.5 -45t38.5 -17q40 0 65 49q18 37 43 137q21 90 21 120q0 28 -15 44t-41 16q-32 0 -50.5 -24t-34.5 -86z" />
    <glyph glyph-name="p" unicode="p" horiz-adv-x="542" 
d="M251 392l-15 -66l2 -2q52 72 127 72q60 0 97.5 -43t37.5 -111q0 -93 -70 -171q-74 -83 -159 -83q-37 0 -59 14.5t-38 50.5h-2l-65 -279h85l-5 -25h-254l5 25h77l135 585h-88l5 25h58q85 0 126 8zM357 375q-43 -1 -82 -38t-56 -92q-32 -102 -32 -149q0 -38 23 -62t59 -24
q63 0 93 86q17 51 31 118t14 100q0 61 -48 61h-2z" />
    <glyph glyph-name="q" unicode="q" horiz-adv-x="427" 
d="M424 389l-144 -615h79l-5 -25h-256l5 25h84l67 285l-2 2q-26 -40 -50 -56.5t-55 -16.5q-49 0 -81.5 44.5t-32.5 110.5q0 70 41 138t101 98q34 17 63 17q58 0 77 -67h2l13 60h94zM244 375h-2q-47 0 -72 -82q-18 -61 -45 -192q-5 -28 -5 -42q0 -21 11 -34t28 -13t34 13
q59 42 86 144q22 83 22 126q0 34 -16 56t-41 24z" />
    <glyph glyph-name="r" unicode="r" horiz-adv-x="354" 
d="M221 390l-28 -121l2 -2q42 82 77 111q21 18 42 18t35 -13t14 -33t-13.5 -32.5t-34.5 -12.5q-18 0 -34 14q-10 10 -14 10q-10 0 -19 -13q-59 -79 -75 -162l-5 -25l-31 -134h-92l80 364h-75l6 25h61q56 0 104 6z" />
    <glyph glyph-name="s" unicode="s" horiz-adv-x="375" 
d="M326 124q0 -59 -48.5 -97.5t-123.5 -38.5q-51 0 -87 24.5t-36 58.5q0 19 12.5 32.5t30.5 13.5q17 0 27.5 -11.5t10.5 -28.5q0 -11 -6 -25l-4 -8q-2 -6 -2 -7q0 -28 59 -28q43 0 72.5 19t29.5 48q0 22 -17.5 40t-59.5 39q-97 49 -97 120q0 49 43.5 85t103.5 36
q50 0 79.5 -19t29.5 -50q0 -17 -12 -29.5t-29 -12.5q-16 0 -26.5 11t-10.5 27q0 7 5 21q2 5 2 15q0 17 -41 17q-35 0 -57 -15.5t-22 -38.5q0 -20 14 -35.5t51 -34.5q60 -31 83.5 -59t25.5 -69z" />
    <glyph glyph-name="t" unicode="t" horiz-adv-x="271" 
d="M225 492l-23 -108h63l-5 -25h-64l-66 -275q-7 -30 -7 -44q0 -8 4.5 -13.5t11.5 -5.5q18 0 41 31t45 86h20q-22 -71 -58.5 -110.5t-81.5 -39.5q-33 0 -51 18t-18 52q0 19 12 71l54 230h-64l5 25h66l22 94q51 1 94 14z" />
    <glyph glyph-name="u" unicode="u" horiz-adv-x="542" 
d="M475 384l-64 -277q-10 -41 -10 -56q0 -23 16 -23q19 0 43 31t44 80h22q-26 -72 -64.5 -111.5t-82.5 -39.5q-28 0 -45.5 22t-17.5 56q0 2 0.5 7t1.5 12t1 12l-2 2q-33 -50 -70 -78q-43 -33 -86 -33q-38 0 -63 24t-25 61q0 15 7 46l5 21l51 222h-77l6 22h82q33 0 40 1
q5 0 28 3q3 0 21 2l-65 -283q-1 -1 -4 -18q-1 -5 -2 -10.5t-2 -9t-1 -4.5q0 -3 -0.5 -7t-0.5 -6q0 -31 28 -31q27 0 65 33t60 76q16 33 29 88l39 166h93z" />
    <glyph glyph-name="v" unicode="v" horiz-adv-x="427" 
d="M37 251h-22q29 75 63 110t78 35q29 0 46 -16.5t17 -45.5q0 -19 -10 -55q-1 -3 -2.5 -9t-1.5 -8l-40 -164q-8 -29 -8 -45q0 -15 10 -24.5t25 -9.5q39 0 79.5 40.5t69.5 107.5q32 80 32 123q0 7 -3.5 10.5t-14.5 5.5q-27 4 -38.5 15t-11.5 31q0 19 12.5 31.5t31.5 12.5
q50 0 50 -68q0 -131 -71 -235.5t-160 -104.5q-41 0 -68.5 24.5t-27.5 60.5q0 21 11 69l5 20l33 135l4 14q5 23 5 32q0 15 -14 15q-34 0 -79 -107z" />
    <glyph glyph-name="w" unicode="w" horiz-adv-x="646" 
d="M377 388h91q-11 -54 -32 -137q-28 -116 -28 -164q0 -64 38 -64q26 0 57.5 35t54.5 91q37 92 37 144q0 7 -4 9.5t-17 3.5q-43 2 -43 44q0 19 12.5 32.5t29.5 13.5q47 0 47 -72q0 -76 -32.5 -159t-84.5 -140q-34 -37 -75 -37q-40 0 -69 32q-33 39 -33 112q0 29 9 77l-2 2
q-33 -82 -67 -137q-23 -36 -53 -61q-31 -25 -68 -25t-56.5 18.5t-19.5 53.5q0 27 14 81l38 152q10 42 10 54q0 16 -14 16q-39 0 -81 -102h-22q48 135 139 135q31 0 48 -17.5t17 -48.5q0 -23 -7 -47l-5 -22l-38 -151q0 -3 -2 -9t-2 -9q-8 -29 -8 -42q0 -29 21 -29q27 0 62 51
q61 91 106 216q8 21 25 75z" />
    <glyph glyph-name="x" unicode="x" 
d="M79 237h-23q29 72 69.5 115.5t79.5 43.5q34 0 51.5 -28.5t29.5 -104.5q79 99 102 117q21 16 43 16q19 0 30.5 -12t11.5 -31q0 -17 -11 -29t-26 -12q-17 0 -34 14q-8 8 -16 8q-14 0 -34 -25l-43 -53l-16 -23l5 -27l15 -80q11 -57 20 -76t23 -19q18 0 41.5 28.5t44.5 75.5
h22q-26 -69 -65 -108t-81 -39q-54 0 -71 44q-15 35 -28 108l-17 -22l-49 -62q-54 -68 -92 -68q-20 0 -33.5 13.5t-13.5 32.5q0 16 11 27.5t27 11.5q22 0 34 -13q2 -2 5 -4l3 -3q4 -2 8 -2q14 0 38.5 26t72.5 93q-7 36 -17 91q-8 48 -15 65.5t-20 17.5q-35 0 -82 -107z" />
    <glyph glyph-name="y" unicode="y" horiz-adv-x="438" 
d="M202 -23l-82 297q-13 46 -18.5 56.5t-16.5 10.5q-26 0 -62 -103h-22q23 75 57 116.5t73 41.5q28 0 44.5 -20.5t31.5 -73.5l56 -205h2l12 37l39 98q32 82 42 103.5t23 38.5q16 22 40 22q17 0 27 -10t10 -27t-9.5 -29t-22.5 -12q-8 0 -18 6q-2 1 -5 3l-2 2l-2 1h-4
q-10 0 -19.5 -13.5t-23.5 -49.5l-85 -211q-38 -93 -91 -169.5t-106 -115.5q-42 -29 -99 -29q-27 0 -44 12.5t-17 32.5q0 15 10.5 24.5t26.5 9.5q32 0 46 -32q9 -20 18 -20q39 0 93.5 59.5t97.5 148.5z" />
    <glyph glyph-name="z" unicode="z" horiz-adv-x="375" 
d="M40 245l79 151q109 -48 173 -48q36 0 37 22q0 26 18 26q5 0 9.5 -4t4.5 -8q0 -29 -95 -124q-31 -30 -99 -98l-42 -43l-23 -21l2 -2q23 6 38 6q51 0 121 -32q14 -6 23 -6q12 0 22 9t10 21q0 9 -14 10q-31 3 -31 29q0 14 10 24t24 10q16 0 25.5 -13.5t9.5 -36.5
q0 -49 -41 -89t-78 -40q-27 0 -85 26q-55 24 -71 24q-18 0 -18 -11q0 -5 2 -9v-9q0 -21 -19 -21q-18 0 -18 19q0 27 62 90q80 84 95 99q38 38 86 84l21 18l-2 2q-73 -10 -118 -10q-20 0 -66 10l-27 -55h-25z" />
    <glyph glyph-name="braceleft" unicode="{" horiz-adv-x="480" 
d="M411 -230v-17q-83 11 -133 65t-50 132q0 28 10 69q12 51 12 74q0 40 -31 69t-81 36v20q50 7 81 36t31 69q0 23 -12 74q-11 41 -11 76q0 72 52 126t132 64v-17q-111 -27 -111 -116q0 -24 12 -77q11 -46 11 -74q0 -56 -38.5 -101t-106.5 -68v-2q67 -24 106 -70t39 -101
q0 -28 -11 -75q-12 -51 -12 -76q0 -88 111 -116z" />
    <glyph glyph-name="bar" unicode="|" horiz-adv-x="527" 
d="M231 696h65v-831h-65v831z" />
    <glyph glyph-name="braceright" unicode="}" horiz-adv-x="480" 
d="M87 646v17q83 -11 133 -65t50 -132q0 -29 -10 -69q-12 -51 -12 -74q0 -40 30.5 -69t80.5 -36v-20q-49 -7 -80 -36t-31 -69q0 -23 12 -74q10 -43 10 -77q0 -71 -52 -125t-131 -64v17q110 28 110 116q0 25 -12 76q-10 43 -10 75q0 56 38.5 101t105.5 68v2q-66 23 -105 69.5
t-39 101.5q0 33 10 74q12 47 12 77q0 88 -110 116z" />
    <glyph glyph-name="asciitilde" unicode="~" horiz-adv-x="667" 
d="M572 398h25q-1 -66 -36 -107t-89 -41q-30 0 -59.5 9.5t-124.5 48.5q-75 31 -106 31q-70 0 -87 -88h-25q4 76 39 112q34 36 81 36q38 0 113 -28q16 -6 43 -17.5t32 -13.5q72 -31 104 -31q79 0 90 89z" />
    <glyph glyph-name="exclamdown" unicode="&#xa1;" horiz-adv-x="323" 
d="M224 396q24 0 41 -17t17 -41t-17 -40.5t-41 -16.5t-41 16.5t-17 40.5t17 41t41 17zM191 221h25l-5 -28l-14 -76q-13 -78 -14 -217q-1 -151 -71 -151q-22 0 -37 17t-15 42q0 35 25 96q45 106 48 117q14 36 31 95q17 61 27 105z" />
    <glyph glyph-name="cent" unicode="&#xa2;" 
d="M371 598l-51 -202h9q36 0 62 -20.5t26 -48.5q0 -22 -13.5 -37t-33.5 -15t-32.5 12.5t-12.5 32.5q0 24 16 40q4 6 4 7q0 3 -5 6q-8 3 -14 3q-7 0 -11 -1l-91 -362q14 -2 15 -2q39 0 76 35q25 23 56 73h22q-28 -58 -65 -91q-46 -40 -97 -40q-6 0 -13 1l-42 -169h-22l43 172
q-46 13 -75.5 58.5t-29.5 104.5q0 86 61 157t145 82l51 204h22zM206 28l86 342q-18 -13 -25 -24q-24 -37 -48 -138q-24 -98 -24 -134q0 -28 11 -46z" />
    <glyph glyph-name="sterling" unicode="&#xa3;" 
d="M258 313h122l-10 -35h-121l-8 -28l-14 -55q-10 -42 -33 -90q79 -29 124 -29q41 0 64.5 20t39.5 67h19q-21 -67 -41 -101t-52 -57q-26 -17 -51 -17q-42 0 -73 39l-25 30l-18 17q-49 -86 -100 -86q-22 0 -36 15t-14 39q0 32 26 54.5t63 22.5q2 0 7 -1q6 -1 25 -1q5 40 5 84
q0 47 3 77h-115l9 35h110q37 179 108 266q49 61 110 61q34 0 54.5 -23t20.5 -62q0 -34 -19 -59t-44 -25q-19 0 -31.5 14.5t-12.5 35.5q0 22 13.5 36t33.5 14q8 0 11 -2q9 -4 12 -4q2 0 5 3q1 1 4 6q1 2 1 8q0 18 -14.5 30.5t-35.5 12.5q-19 0 -39 -11t-31 -27
q-25 -37 -35 -141q-8 -86 -17 -133zM149 96q-22 3 -31 3q-27 0 -46.5 -18t-19.5 -43q0 -13 8.5 -22.5t20.5 -9.5q46 0 68 90z" />
    <glyph glyph-name="currency" unicode="&#xa4;" horiz-adv-x="667" 
d="M95 518l43 44l63 -63q37 28 63 36.5t75 8.5q39 0 64.5 -9t62.5 -36l62 63l43 -44l-62 -62q28 -40 36.5 -66t8.5 -70q0 -42 -9 -67t-36 -61l62 -63l-43 -43l-62 62q-39 -27 -65 -36t-68 -9q-45 0 -70.5 8.5t-61.5 36.5l-62 -62l-44 43l63 63q-27 42 -35.5 68t-8.5 67
t8.5 66.5t35.5 62.5zM175 323q0 -65 46.5 -112t111.5 -47q66 0 112.5 47t46.5 112q0 66 -46 112.5t-111 46.5q-66 0 -113 -46.5t-47 -112.5z" />
    <glyph glyph-name="yen" unicode="&#xa5;" horiz-adv-x="813" 
d="M615 493l117 137h-96l5 25h209l-6 -25h-79l-116 -137h76l-8 -41h-103l-121 -144l-2 -7h199l-9 -41h-198l-50 -235h94l-5 -25h-304l5 25h95l50 235h-213l9 41h206l-75 151h-105l9 41h76l-69 137h-82l5 25h304l-5 -25h-97l69 -137h215zM580 452h-160l59 -118z" />
    <glyph glyph-name="brokenbar" unicode="&#xa6;" horiz-adv-x="527" 
d="M231 218h65v-353h-65v353zM231 696h65v-354h-65v354z" />
    <glyph glyph-name="section" unicode="&#xa7;" horiz-adv-x="594" 
d="M479 527l24 2q22 2 22 21q0 35 -30.5 59t-73.5 24q-58 0 -101.5 -39t-43.5 -92q0 -34 17 -57t67 -57q46 -31 67.5 -51.5t33.5 -45.5q15 -30 15 -67q0 -112 -119 -201q14 -39 14 -63q0 -75 -62 -135t-133 -60q-55 0 -93.5 36.5t-38.5 87.5q0 31 21.5 56.5t47.5 25.5
q15 0 25 -11.5t10 -28.5q0 -16 -11 -30.5t-28 -20.5l-21 -6q-17 -7 -17 -17q0 -12 12.5 -28.5t29.5 -26.5q29 -18 60 -18q52 0 98 36q54 43 54 100q0 27 -15.5 53.5t-41.5 43.5l-43 30q-98 65 -98 165q0 67 49 130q21 29 63 65q-11 39 -11 49q0 78 58.5 136.5t136.5 58.5
q53 0 89.5 -34t36.5 -84q0 -38 -19.5 -64t-48.5 -26q-18 0 -29.5 11t-11.5 28q0 18 16 34q13 10 23 11zM348 39q52 46 72 76t20 62q0 66 -92 125q-54 34 -69.5 47.5t-32.5 42.5q-79 -73 -79 -143q0 -61 79 -118q60 -43 84 -67q2 -2 18 -25z" />
    <glyph glyph-name="dieresis" unicode="&#xa8;" horiz-adv-x="333" 
d="M134 554q18 0 31 -13t13 -31q0 -19 -13 -32t-31 -13q-19 0 -32 13t-13 32q0 18 13 31t32 13zM322 554q18 0 31 -13t13 -31q0 -19 -13 -32t-31 -13t-31 13t-13 32q0 18 13 31t31 13z" />
    <glyph glyph-name="copyright" unicode="&#xa9;" horiz-adv-x="760" 
d="M551 554l10 -137h-19q-35 115 -147 115q-75 0 -116.5 -51.5t-41.5 -144.5q0 -92 43 -143.5t120 -51.5q94 0 151 79l18 -10q-68 -99 -189 -99q-96 0 -160 63t-64 158q0 94 70.5 158t173.5 64q35 0 90 -18q12 -4 18 -4q15 0 24 22h19zM380 677q143 0 244.5 -101.5
t101.5 -244.5t-101.5 -244.5t-244.5 -101.5t-244.5 101.5t-101.5 244.5t101.5 244.5t244.5 101.5zM380 647q-131 0 -223.5 -92.5t-92.5 -223.5t92.5 -223.5t223.5 -92.5t223.5 92.5t92.5 223.5t-92.5 223.5t-223.5 92.5z" />
    <glyph glyph-name="ordfeminine" unicode="&#xaa;" horiz-adv-x="323" 
d="M321 641l-43 -167q-6 -24 -6 -35q0 -13 10 -13q8 0 22.5 19.5t26.5 47.5h14q-15 -42 -38.5 -67t-46.5 -25q-40 0 -43 54h-2q-31 -54 -78 -54q-32 0 -54 27t-22 66q0 58 44 104q43 48 93 48q42 0 52 -44h2l8 39h61zM200 634q-25 0 -38 -26q-17 -32 -38 -125q-5 -21 -6 -37
v-2q0 -12 7 -20t17 -8q27 0 48 23q21 27 36 67.5t15 73.5q0 23 -11.5 38.5t-29.5 15.5z" />
    <glyph glyph-name="guillemotleft" unicode="&#xab;" 
d="M189 406h92l-178 -199l86 -197h-78l-91 210zM386 406h94l-179 -199l85 -197h-78l-91 210z" />
    <glyph glyph-name="logicalnot" unicode="&#xac;" horiz-adv-x="667" 
d="M68 476h531v-302h-64v238h-467v64z" />
    <glyph glyph-name="registered" unicode="&#xae;" horiz-adv-x="760" 
d="M188 544h189q64 0 104.5 -30t40.5 -77q0 -83 -109 -111l103 -145q17 -25 29 -33.5t30 -9.5v-17h-90l-144 198h-37v-115v-36q0 -30 58 -30v-17h-179v17q34 0 42.5 11t8.5 56v255q0 45 -7.5 55.5t-38.5 11.5v17zM304 340h15q124 0 124 93q0 37 -28.5 63t-68.5 26
q-20 0 -42 -7v-175zM380 677q143 0 244.5 -101.5t101.5 -244.5t-101.5 -244.5t-244.5 -101.5t-244.5 101.5t-101.5 244.5t101.5 244.5t244.5 101.5zM380 647q-131 0 -223.5 -92.5t-92.5 -223.5t92.5 -223.5t223.5 -92.5t223.5 92.5t92.5 223.5t-92.5 223.5t-223.5 92.5z" />
    <glyph glyph-name="macron" unicode="&#xaf;" horiz-adv-x="333" 
d="M70 524h293l-12 -55h-293z" />
    <glyph glyph-name="degree" unicode="&#xb0;" horiz-adv-x="400" 
d="M255 677q63 0 107 -43t44 -105t-43.5 -106.5t-104.5 -44.5q-63 0 -107.5 44.5t-44.5 107.5q0 61 43.5 104t105.5 43zM255 637q-45 0 -76.5 -31t-31.5 -75q0 -46 32.5 -79t78.5 -33q44 0 75.5 32t31.5 78q0 45 -32.5 76.5t-77.5 31.5z" />
    <glyph glyph-name="plusminus" unicode="&#xb1;" horiz-adv-x="667" 
d="M68 437h233v234h64v-234h234v-64h-234v-233h-64v233h-233v64zM68 42h531v-64h-531v64z" />
    <glyph glyph-name="twosuperior" unicode="&#xb2;" horiz-adv-x="313" 
d="M290 403l-25 -83h-227v15q24 26 73 60l58 40q96 68 96 145q0 21 -15 34t-38 13q-34 0 -60 -16q-11 -6 -19.5 -16t-8.5 -17q0 -9 9 -9q4 0 7 1h7q28 0 28 -20q0 -10 -9.5 -17t-22.5 -7q-17 0 -28.5 11t-11.5 27q0 31 35.5 53.5t84.5 22.5q47 0 76.5 -19.5t29.5 -51.5
q0 -19 -11 -35q-16 -20 -35.5 -35.5t-80.5 -56.5l-48 -33q-50 -34 -69 -48v-2h135q27 0 34.5 4.5t14.5 23.5q1 2 2.5 7t2.5 9h16z" />
    <glyph glyph-name="threesuperior" unicode="&#xb3;" horiz-adv-x="313" 
d="M158 605l11 -7q2 -1 4 -6q2 -2 2 -8q0 -10 -8.5 -16.5t-22.5 -6.5q-12 0 -20.5 6.5t-8.5 16.5q0 23 30.5 39.5t73.5 16.5t70.5 -18.5t27.5 -47.5q0 -62 -112 -82v-2q95 -12 95 -73q0 -41 -46.5 -72.5t-106.5 -31.5q-41 0 -70.5 17t-29.5 41q0 14 10.5 23t27.5 9
q12 0 20 -7t8 -16q0 -17 -18 -23q-13 -4 -13 -10q0 -5 8 -8q24 -13 49 -13q41 0 68.5 30.5t26.5 74.5q0 53 -57 53h-4l-36 -3h-2q-11 0 -11 8q0 9 17 9h2l29 -2h3q32 0 56.5 27t24.5 64q0 43 -47 43q-25 0 -47 -12q-7 -5 -7 -9q0 -3 3 -4z" />
    <glyph glyph-name="acute" unicode="&#xb4;" horiz-adv-x="333" 
d="M258 586h101l-133 -128h-51z" />
    <glyph glyph-name="mu" unicode="&#xb5;" horiz-adv-x="500" 
d="M140 430h75l-72 -249l-7 -24l-6 -20t-4 -14t-1 -5q-3 -12 -3 -26q0 -58 50 -58t96 60q30 38 40 60.5t30 90.5l54 185h74l-81 -282l-11 -32q-6 -18 -6 -38q0 -42 28 -42q19 0 33 14.5t34 54.5h18q-13 -39 -25 -58t-34 -36q-31 -23 -65 -23q-28 0 -46 21t-18 53q0 16 3 35
l-2 2q-19 -30 -33 -45t-37 -32q-48 -34 -88 -34q-28 0 -45.5 12t-31.5 41q-21 -70 -30 -174q-7 -82 -54 -82q-16 0 -25.5 11t-9.5 28q0 19 37 90q31 59 56 149l13 42z" />
    <glyph glyph-name="paragraph" unicode="&#xb6;" horiz-adv-x="453" 
d="M392 635v-851h-35v851h-91v-851h-36v510h-14q-81 4 -127.5 25.5t-70.5 66.5q-22 41 -22 91q0 87 58 136t162 49h241v-27h-65z" />
    <glyph glyph-name="periodcentered" unicode="&#xb7;" horiz-adv-x="323" 
d="M163 370q23 0 39.5 -16.5t16.5 -40.5t-17 -40.5t-40 -16.5q-24 0 -41 16.5t-17 40.5t17 40.5t42 16.5z" />
    <glyph glyph-name="cedilla" unicode="&#xb8;" horiz-adv-x="333" 
d="M152 9h46l-20 -51q35 -1 55.5 -19.5t20.5 -47.5q0 -42 -40 -67t-106 -25q-28 0 -84 8l25 43q30 -6 51 -6q97 0 97 46q0 37 -77 39z" />
    <glyph glyph-name="onesuperior" unicode="&#xb9;" horiz-adv-x="313" 
d="M275 640l-85 -308h71l-3 -12h-198l3 12h67l81 288h-75l4 12h42l15 1l35 1q19 1 43 6z" />
    <glyph glyph-name="ordmasculine" unicode="&#xba;" horiz-adv-x="281" 
d="M197 646q40 0 65 -27.5t25 -70.5q0 -56 -44 -101.5t-99 -45.5q-41 0 -66.5 28t-25.5 72q0 59 43 102t102 43zM137 567l-13 -44q-13 -44 -13 -73q0 -17 9 -26.5t25 -9.5q26 0 42 29q12 25 28 82q13 51 13 72q0 17 -10 27t-26 10q-20 0 -32.5 -15t-22.5 -52z" />
    <glyph glyph-name="guillemotright" unicode="&#xbb;" 
d="M301 10h-93l179 198l-86 198h78l90 -210zM103 10h-93l178 198l-85 198h78l91 -210z" />
    <glyph glyph-name="onequarter" unicode="&#xbc;" horiz-adv-x="927" 
d="M768 295l-64 -225h56l9 29h16l-22 -77h-16l10 36h-56l-20 -71h46l-3 -13h-153l3 13h47l20 71h-147v9q56 62 145 143q63 57 99 85h30zM645 70l47 166l-2 2q-38 -35 -62 -57q-76 -73 -101 -98l-12 -13h130zM315 640l-85 -308h71l-3 -12h-199l4 12h66l82 288h-75l3 12h43
l15 1l35 1q20 1 43 6zM704 640h43l-580 -673h-43z" />
    <glyph glyph-name="onehalf" unicode="&#xbd;" horiz-adv-x="927" 
d="M767 57l-25 -83h-228v15q30 30 73 60l59 41q96 68 96 145q0 20 -15 33t-38 13q-34 0 -60 -16q-11 -6 -19.5 -16t-8.5 -17q0 -8 9 -8h7q2 1 7 1q28 0 28 -20q0 -10 -9 -17t-23 -7q-17 0 -28.5 10.5t-11.5 26.5q0 31 35 53.5t84 22.5q48 0 77.5 -19.5t29.5 -50.5
q0 -22 -12 -35q-15 -21 -35 -37t-80 -56l-48 -32q-17 -11 -69 -48v-2h135q27 0 34.5 4.5t14.5 23.5q0 1 1 3.5t2 5.5l2 6h16zM333 640l-85 -308h71l-4 -12h-198l4 12h66l81 288h-74l3 12h43l15 1l35 1q19 1 43 6zM712 640h44l-580 -673h-43z" />
    <glyph glyph-name="threequarters" unicode="&#xbe;" horiz-adv-x="927" 
d="M774 295l-64 -225h56l9 29h16l-22 -77h-16l10 36h-56l-21 -71h47l-3 -13h-153l3 13h47l20 71h-147v9q56 62 145 143q63 57 99 85h30zM651 70l47 166l-2 2q-30 -26 -62 -57q-76 -73 -101 -98l-13 -13h131zM223 605l11 -7q2 -1 4 -6q2 -2 2 -8q0 -10 -8.5 -16.5t-22.5 -6.5
q-12 0 -20.5 6.5t-8.5 16.5q0 23 30.5 39.5t73.5 16.5q44 0 71.5 -18.5t27.5 -47.5q0 -62 -113 -82v-2q95 -12 95 -73q0 -41 -46.5 -72.5t-106.5 -31.5q-41 0 -70.5 17t-29.5 41q0 14 10.5 23t27.5 9q12 0 20.5 -7t8.5 -16q0 -17 -19 -23q-13 -4 -13 -10q0 -5 8 -8
q24 -13 50 -13q40 0 67.5 30.5t27.5 74.5q0 53 -58 53h-4l-36 -3h-1q-12 0 -12 8q0 9 17 9h2l30 -2h2q32 0 56.5 27t24.5 64q0 43 -47 43q-24 0 -47 -12q-7 -5 -7 -9q0 -3 3 -4zM727 640h44l-580 -673h-44z" />
    <glyph glyph-name="questiondown" unicode="&#xbf;" horiz-adv-x="375" 
d="M287 226h26q1 -12 1 -24q0 -73 -28.5 -119t-96.5 -84q-62 -33 -77.5 -45t-29.5 -35q-13 -24 -13 -48q0 -42 32.5 -70.5t81.5 -28.5q61 0 99 38q7 7 7 15q0 6 -8 7q-44 10 -44 51q0 18 14 31t33 13q21 0 35 -16.5t14 -40.5q0 -49 -46.5 -85t-108.5 -36q-65 0 -108 43
t-43 108q0 68 42 122q22 28 49.5 47t87.5 48q46 22 63.5 43t17.5 53v13zM297 396q23 0 40 -17t17 -40q0 -24 -17 -40.5t-40 -16.5q-24 0 -41 16.5t-17 40.5q0 23 17 40t41 17z" />
    <glyph glyph-name="Agrave" unicode="&#xc0;" horiz-adv-x="760" 
d="M485 217h-208l-155 -192h104l-5 -25h-217l5 25h79l524 645h24l-60 -645h95l-5 -25h-304l5 25h98zM485 241l24 260l-2 2l-210 -262h188zM498 835h90l49 -128h-49z" />
    <glyph glyph-name="Aacute" unicode="&#xc1;" horiz-adv-x="760" 
d="M485 217h-208l-155 -192h104l-5 -25h-217l5 25h79l524 645h24l-60 -645h95l-5 -25h-304l5 25h98zM485 241l24 260l-2 2l-210 -262h188zM609 835h101l-133 -128h-51z" />
    <glyph glyph-name="Acircumflex" unicode="&#xc2;" horiz-adv-x="760" 
d="M485 217h-208l-155 -192h104l-5 -25h-217l5 25h79l524 645h24l-60 -645h95l-5 -25h-304l5 25h98zM485 241l24 260l-2 2l-210 -262h188zM548 835h83l61 -128h-61l-43 91l-92 -91h-77z" />
    <glyph glyph-name="Atilde" unicode="&#xc3;" horiz-adv-x="760" 
d="M485 217h-208l-155 -192h104l-5 -25h-217l5 25h79l524 645h24l-60 -645h95l-5 -25h-304l5 25h98zM485 241l24 260l-2 2l-210 -262h188zM661 804h54q-26 -90 -88 -90q-16 0 -43 9l-46 15q-30 10 -41 10q-19 0 -40 -34h-50q19 49 41.5 69.5t54.5 20.5q19 0 50 -11l39 -14
l18 -6q8 -2 12 -2h2q14 0 22 7t15 26z" />
    <glyph glyph-name="Adieresis" unicode="&#xc4;" horiz-adv-x="760" 
d="M485 217h-208l-155 -192h104l-5 -25h-217l5 25h79l524 645h24l-60 -645h95l-5 -25h-304l5 25h98zM485 241l24 260l-2 2l-210 -262h188zM485 803q18 0 31 -13t13 -31q0 -19 -13 -32t-31 -13q-19 0 -32 13t-13 32q0 18 13 31t32 13zM673 803q18 0 31 -13t13 -31
q0 -19 -13 -32t-31 -13t-31 13t-13 32q0 18 13 31t31 13z" />
    <glyph glyph-name="Aring" unicode="&#xc5;" horiz-adv-x="760" 
d="M485 217h-208l-155 -192h104l-5 -25h-217l5 25h79l524 645h24l-60 -645h95l-5 -25h-304l5 25h98zM485 241l24 260l-2 2l-210 -262h188zM469 778q0 37 26 63t62 26q37 0 63.5 -26t26.5 -63t-26 -62.5t-63 -25.5t-63 25.5t-26 62.5zM504 780q0 -23 16 -39.5t38 -16.5
t38 16.5t16 39.5t-16 39t-39 16q-22 0 -37.5 -16t-15.5 -39z" />
    <glyph glyph-name="AE" unicode="&#xc6;" horiz-adv-x="969" 
d="M400 655h546l-29 -168h-25q1 13 1 27q0 91 -50 108q-24 8 -74 8h-120l-59 -278h23q71 0 99 24q30 28 49 93h24l-60 -280h-24q6 34 6 54q0 46 -21 65.5t-71 19.5h-30l-65 -303h142q48 0 74.5 9t48.5 34q51 55 88 135h25l-60 -203h-518l5 25h81l39 185h-227l-140 -185h94
l-5 -25h-196l5 25h70l460 605h-111zM237 235h214l83 391l-2 2z" />
    <glyph glyph-name="Ccedilla" unicode="&#xc7;" horiz-adv-x="646" 
d="M658 646l-37 -183h-26q-5 183 -129 183q-151 0 -221 -265q-13 -47 -23 -111.5t-10 -100.5q0 -73 33 -112q17 -21 46.5 -34t59.5 -13q88 0 156 65q26 26 40.5 47t39.5 67h23l-47 -189h-22q-22 31 -28 39q-49 -31 -86.5 -42.5t-84.5 -11.5q-106 0 -180 74t-74 180
t53.5 204.5t147.5 163.5q91 63 181 63q78 0 125 -64q21 17 43 40h20zM309 9h46l-20 -51q35 -1 55.5 -19.5t20.5 -47.5q0 -42 -40 -67t-106 -25q-28 0 -84 8l25 43q30 -6 51 -6q97 0 97 46q0 37 -77 39z" />
    <glyph glyph-name="Egrave" unicode="&#xc8;" horiz-adv-x="698" 
d="M370 630l-59 -275h51q48 0 70.5 9t39.5 35q16 23 32 71h25l-59 -272h-25q5 35 5 48q0 46 -21 65t-71 19h-52l-65 -305h172q84 0 111 19q58 40 117 162h25l-61 -206h-573l5 25h90l128 605h-101l5 25h552l-30 -166h-22v17q0 70 -26 99q-13 16 -36 20.5t-81 4.5h-146z
M365 835h90l49 -128h-49z" />
    <glyph glyph-name="Eacute" unicode="&#xc9;" horiz-adv-x="698" 
d="M370 630l-59 -275h51q48 0 70.5 9t39.5 35q16 23 32 71h25l-59 -272h-25q5 35 5 48q0 46 -21 65t-71 19h-52l-65 -305h172q84 0 111 19q58 40 117 162h25l-61 -206h-573l5 25h90l128 605h-101l5 25h552l-30 -166h-22v17q0 70 -26 99q-13 16 -36 20.5t-81 4.5h-146z
M476 835h101l-133 -128h-51z" />
    <glyph glyph-name="Ecircumflex" unicode="&#xca;" horiz-adv-x="698" 
d="M370 630l-59 -275h51q48 0 70.5 9t39.5 35q16 23 32 71h25l-59 -272h-25q5 35 5 48q0 46 -21 65t-71 19h-52l-65 -305h172q84 0 111 19q58 40 117 162h25l-61 -206h-573l5 25h90l128 605h-101l5 25h552l-30 -166h-22v17q0 70 -26 99q-13 16 -36 20.5t-81 4.5h-146z
M415 835h83l61 -128h-61l-43 91l-92 -91h-77z" />
    <glyph glyph-name="Edieresis" unicode="&#xcb;" horiz-adv-x="698" 
d="M370 630l-59 -275h51q48 0 70.5 9t39.5 35q16 23 32 71h25l-59 -272h-25q5 35 5 48q0 46 -21 65t-71 19h-52l-65 -305h172q84 0 111 19q58 40 117 162h25l-61 -206h-573l5 25h90l128 605h-101l5 25h552l-30 -166h-22v17q0 70 -26 99q-13 16 -36 20.5t-81 4.5h-146z
M352 803q18 0 31 -13t13 -31q0 -19 -13 -32t-31 -13q-19 0 -32 13t-13 32q0 18 13 31t32 13zM540 803q18 0 31 -13t13 -31q0 -19 -13 -32t-31 -13t-31 13t-13 32q0 18 13 31t31 13z" />
    <glyph glyph-name="Igrave" unicode="&#xcc;" 
d="M406 630l-131 -605h90l-5 -25h-296l5 25h91l131 605h-90l5 25h296l-6 -25h-90zM261 835h90l49 -128h-49z" />
    <glyph glyph-name="Iacute" unicode="&#xcd;" 
d="M406 630l-131 -605h90l-5 -25h-296l5 25h91l131 605h-90l5 25h296l-6 -25h-90zM372 835h101l-133 -128h-51z" />
    <glyph glyph-name="Icircumflex" unicode="&#xce;" 
d="M406 630l-131 -605h90l-5 -25h-296l5 25h91l131 605h-90l5 25h296l-6 -25h-90zM311 835h83l61 -128h-61l-43 91l-92 -91h-77z" />
    <glyph glyph-name="Idieresis" unicode="&#xcf;" 
d="M406 630l-131 -605h90l-5 -25h-296l5 25h91l131 605h-90l5 25h296l-6 -25h-90zM248 803q18 0 31 -13t13 -31q0 -19 -13 -32t-31 -13q-19 0 -32 13t-13 32q0 18 13 31t32 13zM436 803q18 0 31 -13t13 -31q0 -19 -13 -32t-31 -13t-31 13t-13 32q0 18 13 31t31 13z" />
    <glyph glyph-name="Eth" unicode="&#xd0;" horiz-adv-x="760" 
d="M184 320h-100l5 25h100l60 285h-101l6 25h265h31q121 0 196.5 -75t75.5 -195q0 -116 -70.5 -219.5t-175.5 -143.5q-59 -22 -144 -22h-305l5 25h90zM298 320l-62 -295h83q82 0 115 13q51 20 78 64q40 65 66.5 173.5t26.5 207.5q0 147 -150 147h-29h-63l-60 -285h163
l-6 -25h-162z" />
    <glyph glyph-name="Ntilde" unicode="&#xd1;" horiz-adv-x="813" 
d="M414 655l218 -482h2l98 457h-90l5 25h195l-5 -25h-80l-136 -638h-25l-290 638h-8l-129 -605h104l-6 -25h-226l5 25h98l129 605h-95l4 25h232zM585 804h54q-26 -90 -88 -90q-16 0 -43 9l-46 15q-30 10 -41 10q-19 0 -40 -34h-50q19 49 41.5 69.5t54.5 20.5q19 0 50 -11
l39 -14l18 -6q8 -2 12 -2h2q14 0 22 7t15 26z" />
    <glyph glyph-name="Ograve" unicode="&#xd2;" horiz-adv-x="646" 
d="M410 670q95 0 157 -75t62 -189q0 -164 -104.5 -292.5t-237.5 -128.5q-93 0 -159.5 73t-66.5 176q0 101 52.5 204t140.5 172q76 60 156 60zM410 647q-55 0 -92 -32.5t-64 -106.5q-34 -93 -57 -203.5t-23 -180.5q0 -56 29 -86t83 -30q69 0 108 47q56 70 112 348
q14 75 14 126q0 118 -110 118zM339 835h90l49 -128h-49z" />
    <glyph glyph-name="Oacute" unicode="&#xd3;" horiz-adv-x="646" 
d="M410 670q95 0 157 -75t62 -189q0 -164 -104.5 -292.5t-237.5 -128.5q-93 0 -159.5 73t-66.5 176q0 101 52.5 204t140.5 172q76 60 156 60zM410 647q-55 0 -92 -32.5t-64 -106.5q-34 -93 -57 -203.5t-23 -180.5q0 -56 29 -86t83 -30q69 0 108 47q56 70 112 348
q14 75 14 126q0 118 -110 118zM450 835h101l-133 -128h-51z" />
    <glyph glyph-name="Ocircumflex" unicode="&#xd4;" horiz-adv-x="646" 
d="M410 670q95 0 157 -75t62 -189q0 -164 -104.5 -292.5t-237.5 -128.5q-93 0 -159.5 73t-66.5 176q0 101 52.5 204t140.5 172q76 60 156 60zM410 647q-55 0 -92 -32.5t-64 -106.5q-34 -93 -57 -203.5t-23 -180.5q0 -56 29 -86t83 -30q69 0 108 47q56 70 112 348
q14 75 14 126q0 118 -110 118zM389 835h83l61 -128h-61l-43 91l-92 -91h-77z" />
    <glyph glyph-name="Otilde" unicode="&#xd5;" horiz-adv-x="646" 
d="M410 670q95 0 157 -75t62 -189q0 -164 -104.5 -292.5t-237.5 -128.5q-93 0 -159.5 73t-66.5 176q0 101 52.5 204t140.5 172q76 60 156 60zM410 647q-55 0 -92 -32.5t-64 -106.5q-34 -93 -57 -203.5t-23 -180.5q0 -56 29 -86t83 -30q69 0 108 47q56 70 112 348
q14 75 14 126q0 118 -110 118zM502 804h54q-26 -90 -88 -90q-16 0 -43 9l-46 15q-30 10 -41 10q-19 0 -40 -34h-50q19 49 41.5 69.5t54.5 20.5q19 0 50 -11l39 -14l18 -6q8 -2 12 -2h2q14 0 22 7t15 26z" />
    <glyph glyph-name="Odieresis" unicode="&#xd6;" horiz-adv-x="646" 
d="M410 670q95 0 157 -75t62 -189q0 -164 -104.5 -292.5t-237.5 -128.5q-93 0 -159.5 73t-66.5 176q0 101 52.5 204t140.5 172q76 60 156 60zM410 647q-55 0 -92 -32.5t-64 -106.5q-34 -93 -57 -203.5t-23 -180.5q0 -56 29 -86t83 -30q69 0 108 47q56 70 112 348
q14 75 14 126q0 118 -110 118zM326 803q18 0 31 -13t13 -31q0 -19 -13 -32t-31 -13q-19 0 -32 13t-13 32q0 18 13 31t32 13zM514 803q18 0 31 -13t13 -31q0 -19 -13 -32t-31 -13t-31 13t-13 32q0 18 13 31t31 13z" />
    <glyph glyph-name="multiply" unicode="&#xd7;" horiz-adv-x="668" 
d="M90 523l45 45l199 -200l200 200l45 -46l-199 -199l197 -198l-45 -45l-198 198l-198 -198l-45 45l198 198z" />
    <glyph glyph-name="Oslash" unicode="&#xd8;" horiz-adv-x="646" 
d="M45 -9l71 82q-55 73 -55 161q0 101 53 204.5t140 171.5q76 60 155 60q95 0 156 -73l66 77l19 -16l-70 -81q49 -71 49 -176q0 -160 -105 -288t-236 -128q-93 0 -156 69l-68 -79zM175 142l344 402q-6 55 -31.5 79t-77.5 24q-56 0 -93 -33t-63 -106q-32 -87 -54.5 -190
t-24.5 -173v-3zM518 506l-343 -402l1 -3q11 -93 110 -93q69 0 108 47q61 76 112 348q12 67 13 100l1 1z" />
    <glyph glyph-name="Ugrave" unicode="&#xd9;" horiz-adv-x="813" 
d="M379 630l-83 -389l-6 -27q-8 -40 -8 -77q0 -60 37.5 -92.5t106.5 -32.5q136 0 188 116q20 47 34 120l74 382h-92l6 25h204l-6 -25h-86l-78 -404q-25 -127 -86.5 -184t-171.5 -57q-107 0 -174 47t-67 121q0 29 15 104l80 373h-94l5 25h295l-4 -25h-89zM422 835h90l49 -128
h-49z" />
    <glyph glyph-name="Uacute" unicode="&#xda;" horiz-adv-x="813" 
d="M379 630l-83 -389l-6 -27q-8 -40 -8 -77q0 -60 37.5 -92.5t106.5 -32.5q136 0 188 116q20 47 34 120l74 382h-92l6 25h204l-6 -25h-86l-78 -404q-25 -127 -86.5 -184t-171.5 -57q-107 0 -174 47t-67 121q0 29 15 104l80 373h-94l5 25h295l-4 -25h-89zM533 835h101
l-133 -128h-51z" />
    <glyph glyph-name="Ucircumflex" unicode="&#xdb;" horiz-adv-x="813" 
d="M379 630l-83 -389l-6 -27q-8 -40 -8 -77q0 -60 37.5 -92.5t106.5 -32.5q136 0 188 116q20 47 34 120l74 382h-92l6 25h204l-6 -25h-86l-78 -404q-25 -127 -86.5 -184t-171.5 -57q-107 0 -174 47t-67 121q0 29 15 104l80 373h-94l5 25h295l-4 -25h-89zM472 835h83l61 -128
h-61l-43 91l-92 -91h-77z" />
    <glyph glyph-name="Udieresis" unicode="&#xdc;" horiz-adv-x="813" 
d="M379 630l-83 -389l-6 -27q-8 -40 -8 -77q0 -60 37.5 -92.5t106.5 -32.5q136 0 188 116q20 47 34 120l74 382h-92l6 25h204l-6 -25h-86l-78 -404q-25 -127 -86.5 -184t-171.5 -57q-107 0 -174 47t-67 121q0 29 15 104l80 373h-94l5 25h295l-4 -25h-89zM409 803
q18 0 31 -13t13 -31q0 -19 -13 -32t-31 -13q-19 0 -32 13t-13 32q0 18 13 31t32 13zM597 803q18 0 31 -13t13 -31q0 -19 -13 -32t-31 -13t-31 13t-13 32q0 18 13 31t31 13z" />
    <glyph glyph-name="Yacute" unicode="&#xdd;" horiz-adv-x="813" 
d="M479 334l253 296h-96l5 25h209l-6 -25h-79l-272 -322l-60 -283h94l-5 -25h-304l5 25h95l57 268l-169 337h-82l5 25h304l-5 -25h-97zM533 835h101l-133 -128h-51z" />
    <glyph glyph-name="Thorn" unicode="&#xde;" horiz-adv-x="667" 
d="M295 655h85h98l-6 -25h-97l-24 -115h73h35q61 -1 90.5 -7.5t58.5 -26.5q65 -45 65 -124q0 -60 -44 -110t-114 -69q-62 -16 -138 -16h-97l-27 -137h101l-5 -25h-314l6 25h99l122 605h-100l5 25h128zM347 490l-62 -303h91q93 0 121 35q24 28 39.5 79t15.5 101q0 52 -25 70
t-96 18h-84z" />
    <glyph glyph-name="germandbls" unicode="&#xdf;" horiz-adv-x="542" 
d="M269 345l4 22q73 2 99 23q28 23 45 67.5t17 94.5q0 93 -71 93q-36 0 -60.5 -26.5t-44.5 -86.5q-24 -69 -55 -240q-38 -213 -84 -352q-44 -128 -107 -171q-32 -22 -72 -22q-36 0 -59.5 17t-23.5 43q0 18 12.5 31t30.5 13q15 0 27 -11.5t12 -26.5q0 -17 -15 -34l-4 -6
q0 -7 21 -7q43 0 66.5 45.5t43.5 162.5l34 203q26 154 53.5 241t70.5 151q66 98 157 98q67 0 113.5 -44.5t46.5 -106.5q0 -38 -19 -71.5t-51 -52.5q-26 -16 -47 -22.5t-64 -12.5v-2q52 -14 80 -39q61 -51 61 -132q0 -78 -55.5 -137t-129.5 -59q-44 0 -73.5 23t-29.5 57
q0 22 14.5 39t33.5 17q17 0 28.5 -11.5t11.5 -28.5q0 -16 -10 -29t-25 -16q-11 -1 -11 -6q0 -10 19 -18q10 -5 26 -5q29 0 44 18q27 31 45 92t18 121q0 57 -27.5 80t-95.5 24z" />
    <glyph glyph-name="agrave" unicode="&#xe0;" 
d="M439 387l-66 -278q-9 -37 -9 -58t14 -21t36 31.5t41 79.5h20q-23 -71 -58 -112t-73 -41q-59 0 -65 90h-2q-48 -90 -120 -90q-50 0 -84 44.5t-34 109.5t32.5 125t88.5 97q47 32 90 32q62 0 80 -73h2l14 64h93zM253 375q-31 0 -51.5 -29.5t-37.5 -98.5q-37 -149 -37 -186
q0 -22 10 -35t27 -13q41 0 73 39q32 41 55.5 110.5t23.5 122.5q0 41 -17.5 65.5t-45.5 24.5zM226 586h90l49 -128h-49z" />
    <glyph glyph-name="aacute" unicode="&#xe1;" 
d="M439 387l-66 -278q-9 -37 -9 -58t14 -21t36 31.5t41 79.5h20q-23 -71 -58 -112t-73 -41q-59 0 -65 90h-2q-48 -90 -120 -90q-50 0 -84 44.5t-34 109.5t32.5 125t88.5 97q47 32 90 32q62 0 80 -73h2l14 64h93zM253 375q-31 0 -51.5 -29.5t-37.5 -98.5q-37 -149 -37 -186
q0 -22 10 -35t27 -13q41 0 73 39q32 41 55.5 110.5t23.5 122.5q0 41 -17.5 65.5t-45.5 24.5zM337 586h101l-133 -128h-51z" />
    <glyph glyph-name="acircumflex" unicode="&#xe2;" 
d="M439 387l-66 -278q-9 -37 -9 -58t14 -21t36 31.5t41 79.5h20q-23 -71 -58 -112t-73 -41q-59 0 -65 90h-2q-48 -90 -120 -90q-50 0 -84 44.5t-34 109.5t32.5 125t88.5 97q47 32 90 32q62 0 80 -73h2l14 64h93zM253 375q-31 0 -51.5 -29.5t-37.5 -98.5q-37 -149 -37 -186
q0 -22 10 -35t27 -13q41 0 73 39q32 41 55.5 110.5t23.5 122.5q0 41 -17.5 65.5t-45.5 24.5zM276 586h83l61 -128h-61l-43 91l-92 -91h-77z" />
    <glyph glyph-name="atilde" unicode="&#xe3;" 
d="M439 387l-66 -278q-9 -37 -9 -58t14 -21t36 31.5t41 79.5h20q-23 -71 -58 -112t-73 -41q-59 0 -65 90h-2q-48 -90 -120 -90q-50 0 -84 44.5t-34 109.5t32.5 125t88.5 97q47 32 90 32q62 0 80 -73h2l14 64h93zM253 375q-31 0 -51.5 -29.5t-37.5 -98.5q-37 -149 -37 -186
q0 -22 10 -35t27 -13q41 0 73 39q32 41 55.5 110.5t23.5 122.5q0 41 -17.5 65.5t-45.5 24.5zM389 555h54q-26 -90 -88 -90q-16 0 -43 9l-46 15q-30 10 -41 10q-19 0 -40 -34h-50q19 49 41.5 69.5t54.5 20.5q19 0 50 -11l39 -14l18 -6q8 -2 12 -2h2q14 0 22 7t15 26z" />
    <glyph glyph-name="adieresis" unicode="&#xe4;" 
d="M439 387l-66 -278q-9 -37 -9 -58t14 -21t36 31.5t41 79.5h20q-23 -71 -58 -112t-73 -41q-59 0 -65 90h-2q-48 -90 -120 -90q-50 0 -84 44.5t-34 109.5t32.5 125t88.5 97q47 32 90 32q62 0 80 -73h2l14 64h93zM253 375q-31 0 -51.5 -29.5t-37.5 -98.5q-37 -149 -37 -186
q0 -22 10 -35t27 -13q41 0 73 39q32 41 55.5 110.5t23.5 122.5q0 41 -17.5 65.5t-45.5 24.5zM213 554q18 0 31 -13t13 -31q0 -19 -13 -32t-31 -13q-19 0 -32 13t-13 32q0 18 13 31t32 13zM401 554q18 0 31 -13t13 -31q0 -19 -13 -32t-31 -13t-31 13t-13 32q0 18 13 31t31 13
z" />
    <glyph glyph-name="aring" unicode="&#xe5;" 
d="M439 387l-66 -278q-9 -37 -9 -58t14 -21t36 31.5t41 79.5h20q-23 -71 -58 -112t-73 -41q-59 0 -65 90h-2q-48 -90 -120 -90q-50 0 -84 44.5t-34 109.5t32.5 125t88.5 97q47 32 90 32q62 0 80 -73h2l14 64h93zM253 375q-31 0 -51.5 -29.5t-37.5 -98.5q-37 -149 -37 -186
q0 -22 10 -35t27 -13q41 0 73 39q32 41 55.5 110.5t23.5 122.5q0 41 -17.5 65.5t-45.5 24.5zM197 529q0 37 26 63t62 26q37 0 63.5 -26t26.5 -63t-26 -62.5t-63 -25.5t-63 25.5t-26 62.5zM232 531q0 -23 16 -39.5t38 -16.5t38 16.5t16 39.5t-16 39t-39 16q-22 0 -37.5 -16
t-15.5 -39z" />
    <glyph glyph-name="ae" unicode="&#xe6;" horiz-adv-x="646" 
d="M362 394h48v-51q55 53 114 53q47 0 77 -28.5t30 -72.5q0 -49 -35 -82.5t-96 -41.5q-44 -6 -89 -6h-15q-11 -51 -11 -76q0 -33 22.5 -55.5t56.5 -22.5q35 0 72.5 27t66.5 73h23q-19 -38 -34.5 -56.5t-46.5 -38.5q-41 -28 -89 -28q-89 0 -150 105q-46 -105 -126 -105
q-53 0 -94 52t-41 119q0 88 70 163q31 33 68.5 53.5t68.5 20.5q64 0 88 -72h2zM400 187h21h3q65 0 91 19q48 38 48 117q0 52 -49 52q-62 0 -90 -97q-11 -34 -24 -91zM133 62q1 -23 16.5 -38.5t38.5 -15.5q24 0 50 22.5t39 55.5q18 43 32.5 106.5t14.5 100.5q0 34 -20 58
t-47 24q-50 0 -77 -96q-47 -158 -47 -213v-4z" />
    <glyph glyph-name="ccedilla" unicode="&#xe7;" horiz-adv-x="375" 
d="M319 119h22q-64 -131 -161 -131q-60 0 -100 47.5t-40 119.5q0 94 70.5 167.5t160.5 73.5q40 0 67 -20t27 -49q0 -22 -13.5 -37t-33.5 -15t-32.5 12.5t-12.5 32.5q0 24 16 40q4 6 4 7q0 10 -30 10q-59 0 -82 -76q-21 -62 -45 -174q-5 -30 -5 -48q0 -30 15.5 -49t40.5 -19
q39 0 76 35q25 24 56 73zM173 9h46l-20 -51q35 -1 55.5 -19.5t20.5 -47.5q0 -42 -40 -67t-106 -25q-28 0 -84 8l25 43q30 -6 51 -6q97 0 97 46q0 37 -77 39z" />
    <glyph glyph-name="egrave" unicode="&#xe8;" horiz-adv-x="375" 
d="M334 129h21q-29 -67 -75.5 -104t-101.5 -37q-58 0 -98.5 48.5t-40.5 118.5q0 57 33.5 115t87.5 94q46 32 95 32q46 0 76 -28t30 -71q0 -23 -14 -49t-34 -41q-27 -20 -55 -27.5t-88 -9.5q-14 0 -25 -1q-5 -18 -6 -27q-14 -60 -14 -80q0 -23 16.5 -37.5t41.5 -14.5
q88 0 151 119zM155 214l-5 -24q50 2 71.5 8t34.5 24q15 18 25.5 49.5t10.5 56.5q0 47 -41 47t-61 -41q-17 -31 -35 -120zM168 586h90l49 -128h-49z" />
    <glyph glyph-name="eacute" unicode="&#xe9;" horiz-adv-x="375" 
d="M334 129h21q-29 -67 -75.5 -104t-101.5 -37q-58 0 -98.5 48.5t-40.5 118.5q0 57 33.5 115t87.5 94q46 32 95 32q46 0 76 -28t30 -71q0 -23 -14 -49t-34 -41q-27 -20 -55 -27.5t-88 -9.5q-14 0 -25 -1q-5 -18 -6 -27q-14 -60 -14 -80q0 -23 16.5 -37.5t41.5 -14.5
q88 0 151 119zM155 214l-5 -24q50 2 71.5 8t34.5 24q15 18 25.5 49.5t10.5 56.5q0 47 -41 47t-61 -41q-17 -31 -35 -120zM279 586h101l-133 -128h-51z" />
    <glyph glyph-name="ecircumflex" unicode="&#xea;" horiz-adv-x="375" 
d="M334 129h21q-29 -67 -75.5 -104t-101.5 -37q-58 0 -98.5 48.5t-40.5 118.5q0 57 33.5 115t87.5 94q46 32 95 32q46 0 76 -28t30 -71q0 -23 -14 -49t-34 -41q-27 -20 -55 -27.5t-88 -9.5q-14 0 -25 -1q-5 -18 -6 -27q-14 -60 -14 -80q0 -23 16.5 -37.5t41.5 -14.5
q88 0 151 119zM155 214l-5 -24q50 2 71.5 8t34.5 24q15 18 25.5 49.5t10.5 56.5q0 47 -41 47t-61 -41q-17 -31 -35 -120zM218 586h83l61 -128h-61l-43 91l-92 -91h-77z" />
    <glyph glyph-name="edieresis" unicode="&#xeb;" horiz-adv-x="375" 
d="M334 129h21q-29 -67 -75.5 -104t-101.5 -37q-58 0 -98.5 48.5t-40.5 118.5q0 57 33.5 115t87.5 94q46 32 95 32q46 0 76 -28t30 -71q0 -23 -14 -49t-34 -41q-27 -20 -55 -27.5t-88 -9.5q-14 0 -25 -1q-5 -18 -6 -27q-14 -60 -14 -80q0 -23 16.5 -37.5t41.5 -14.5
q88 0 151 119zM155 214l-5 -24q50 2 71.5 8t34.5 24q15 18 25.5 49.5t10.5 56.5q0 47 -41 47t-61 -41q-17 -31 -35 -120zM155 554q18 0 31 -13t13 -31q0 -19 -13 -32t-31 -13q-19 0 -32 13t-13 32q0 18 13 31t32 13zM343 554q18 0 31 -13t13 -31q0 -19 -13 -32t-31 -13
t-31 13t-13 32q0 18 13 31t31 13z" />
    <glyph glyph-name="igrave" unicode="&#xec;" horiz-adv-x="323" 
d="M232 393l-71 -292l-4 -19q-6 -20 -6 -38t18 -18q25 0 54.5 34.5t55.5 94.5h22q-65 -167 -174 -167q-65 0 -65 67q0 20 10 59q1 6 5 22l54 223h-92l5 25h57q68 0 131 9zM142 586h90l49 -128h-49z" />
    <glyph glyph-name="iacute" unicode="&#xed;" horiz-adv-x="323" 
d="M232 393l-71 -292l-4 -19q-6 -20 -6 -38t18 -18q25 0 54.5 34.5t55.5 94.5h22q-65 -167 -174 -167q-65 0 -65 67q0 20 10 59q1 6 5 22l54 223h-92l5 25h57q68 0 131 9zM253 586h101l-133 -128h-51z" />
    <glyph glyph-name="icircumflex" unicode="&#xee;" horiz-adv-x="323" 
d="M232 393l-71 -292l-4 -19q-6 -20 -6 -38t18 -18q25 0 54.5 34.5t55.5 94.5h22q-65 -167 -174 -167q-65 0 -65 67q0 20 10 59q1 6 5 22l54 223h-92l5 25h57q68 0 131 9zM192 586h83l61 -128h-61l-43 91l-92 -91h-77z" />
    <glyph glyph-name="idieresis" unicode="&#xef;" horiz-adv-x="323" 
d="M232 393l-71 -292l-4 -19q-6 -20 -6 -38t18 -18q25 0 54.5 34.5t55.5 94.5h22q-65 -167 -174 -167q-65 0 -65 67q0 20 10 59q1 6 5 22l54 223h-92l5 25h57q68 0 131 9zM129 554q18 0 31 -13t13 -31q0 -19 -13 -32t-31 -13q-19 0 -32 13t-13 32q0 18 13 31t32 13zM317 554
q18 0 31 -13t13 -31q0 -19 -13 -32t-31 -13t-31 13t-13 32q0 18 13 31t31 13z" />
    <glyph glyph-name="eth" unicode="&#xf0;" horiz-adv-x="500" 
d="M340 576l-107 -58l-14 24l109 59q-22 44 -46 76l14 15q38 -38 65 -74l107 59l14 -25l-104 -56q47 -78 66.5 -142t19.5 -143q0 -128 -86 -225.5t-200 -97.5q-66 0 -108.5 45.5t-42.5 115.5q0 50 25.5 104.5t68.5 98.5q41 40 90.5 65t88.5 25q44 0 78 -37q-1 55 -8 85.5
t-30 85.5zM299 416q-69 0 -128 -97q-63 -104 -63 -204q0 -49 21.5 -76t61.5 -27q53 0 102.5 63.5t75.5 163.5q12 46 12 81q0 43 -22.5 69.5t-59.5 26.5z" />
    <glyph glyph-name="ntilde" unicode="&#xf1;" horiz-adv-x="542" 
d="M235 392l-25 -106l2 -2q43 56 79 81q45 31 90 31q35 0 55.5 -19.5t20.5 -52.5q0 -14 -3 -24v-2q-1 -3 -2.5 -8.5t-2.5 -10.5l-44 -181q-7 -27 -7 -42q0 -24 16 -24q42 0 88 107h23q-26 -70 -66 -108.5t-87 -38.5q-31 0 -48.5 17t-17.5 46q0 21 11 65l36 146l5 22l6 22
q1 6 1 17q0 32 -26 32q-27 0 -62 -32q-75 -66 -100 -179l-5 -25l-29 -123h-92l84 359h-84l5 25h65q64 0 114 8zM415 555h54q-26 -90 -88 -90q-16 0 -43 9l-46 15q-30 10 -41 10q-19 0 -40 -34h-50q19 49 41.5 69.5t54.5 20.5q19 0 50 -11l39 -14l18 -6q8 -2 12 -2h2
q14 0 22 7t15 26z" />
    <glyph glyph-name="ograve" unicode="&#xf2;" horiz-adv-x="427" 
d="M260 396q61 0 100 -46t39 -118q0 -92 -68 -168t-152 -76q-62 0 -102 46.5t-40 119.5q0 97 67 169.5t156 72.5zM168 265l-20 -74q-21 -78 -21 -120q0 -28 14.5 -45t38.5 -17q40 0 65 49q18 37 43 137q21 90 21 120q0 28 -15 44t-41 16q-32 0 -50.5 -24t-34.5 -86zM194 586
h90l49 -128h-49z" />
    <glyph glyph-name="oacute" unicode="&#xf3;" horiz-adv-x="427" 
d="M260 396q61 0 100 -46t39 -118q0 -92 -68 -168t-152 -76q-62 0 -102 46.5t-40 119.5q0 97 67 169.5t156 72.5zM168 265l-20 -74q-21 -78 -21 -120q0 -28 14.5 -45t38.5 -17q40 0 65 49q18 37 43 137q21 90 21 120q0 28 -15 44t-41 16q-32 0 -50.5 -24t-34.5 -86zM305 586
h101l-133 -128h-51z" />
    <glyph glyph-name="ocircumflex" unicode="&#xf4;" horiz-adv-x="427" 
d="M260 396q61 0 100 -46t39 -118q0 -92 -68 -168t-152 -76q-62 0 -102 46.5t-40 119.5q0 97 67 169.5t156 72.5zM168 265l-20 -74q-21 -78 -21 -120q0 -28 14.5 -45t38.5 -17q40 0 65 49q18 37 43 137q21 90 21 120q0 28 -15 44t-41 16q-32 0 -50.5 -24t-34.5 -86zM244 586
h83l61 -128h-61l-43 91l-92 -91h-77z" />
    <glyph glyph-name="otilde" unicode="&#xf5;" horiz-adv-x="427" 
d="M260 396q61 0 100 -46t39 -118q0 -92 -68 -168t-152 -76q-62 0 -102 46.5t-40 119.5q0 97 67 169.5t156 72.5zM168 265l-20 -74q-21 -78 -21 -120q0 -28 14.5 -45t38.5 -17q40 0 65 49q18 37 43 137q21 90 21 120q0 28 -15 44t-41 16q-32 0 -50.5 -24t-34.5 -86zM357 555
h54q-26 -90 -88 -90q-16 0 -43 9l-46 15q-30 10 -41 10q-19 0 -40 -34h-50q19 49 41.5 69.5t54.5 20.5q19 0 50 -11l39 -14l18 -6q8 -2 12 -2h2q14 0 22 7t15 26z" />
    <glyph glyph-name="odieresis" unicode="&#xf6;" horiz-adv-x="427" 
d="M260 396q61 0 100 -46t39 -118q0 -92 -68 -168t-152 -76q-62 0 -102 46.5t-40 119.5q0 97 67 169.5t156 72.5zM168 265l-20 -74q-21 -78 -21 -120q0 -28 14.5 -45t38.5 -17q40 0 65 49q18 37 43 137q21 90 21 120q0 28 -15 44t-41 16q-32 0 -50.5 -24t-34.5 -86zM181 554
q18 0 31 -13t13 -31q0 -19 -13 -32t-31 -13q-19 0 -32 13t-13 32q0 18 13 31t32 13zM369 554q18 0 31 -13t13 -31q0 -19 -13 -32t-31 -13t-31 13t-13 32q0 18 13 31t31 13z" />
    <glyph glyph-name="divide" unicode="&#xf7;" horiz-adv-x="668" 
d="M291 529q1 16 13 27.5t29 11.5q16 0 28 -12t12 -29t-12 -29.5t-28 -12.5q-17 0 -29.5 13t-12.5 31zM291 123q0 17 12.5 29.5t29.5 12.5t29 -12t12 -29t-12 -29.5t-29 -12.5t-29.5 12t-12.5 29zM68 354h532v-62h-532v62z" />
    <glyph glyph-name="oslash" unicode="&#xf8;" horiz-adv-x="427" 
d="M406 395l-42 -49q36 -47 36 -117q0 -42 -19.5 -87.5t-51.5 -80.5q-32 -33 -73.5 -53t-78.5 -20q-47 0 -86 33l-40 -47l-15 14l40 47q-22 32 -30.5 58.5t-8.5 64.5q0 95 73 168q70 70 145 70q50 0 94 -34l40 46zM131 99l179 215q-7 59 -53 59q-31 0 -49.5 -22t-36.5 -79
q-29 -90 -42 -171zM303 278l-177 -213q1 -26 15.5 -40.5t37.5 -14.5q35 0 56 34q20 34 32 82q10 40 38 150z" />
    <glyph glyph-name="ugrave" unicode="&#xf9;" horiz-adv-x="542" 
d="M475 384l-64 -277q-10 -41 -10 -56q0 -23 16 -23q19 0 43 31t44 80h22q-26 -72 -64.5 -111.5t-82.5 -39.5q-28 0 -45.5 22t-17.5 56q0 2 0.5 7t1.5 12t1 12l-2 2q-33 -50 -70 -78q-43 -33 -86 -33q-38 0 -63 24t-25 61q0 15 7 46l5 21l51 222h-77l6 22h82q33 0 40 1
q5 0 28 3q3 0 21 2l-65 -283q-1 -1 -4 -18q-1 -5 -2 -10.5t-2 -9t-1 -4.5q0 -3 -0.5 -7t-0.5 -6q0 -31 28 -31q27 0 65 33t60 76q16 33 29 88l39 166h93zM252 586h90l49 -128h-49z" />
    <glyph glyph-name="uacute" unicode="&#xfa;" horiz-adv-x="542" 
d="M475 384l-64 -277q-10 -41 -10 -56q0 -23 16 -23q19 0 43 31t44 80h22q-26 -72 -64.5 -111.5t-82.5 -39.5q-28 0 -45.5 22t-17.5 56q0 2 0.5 7t1.5 12t1 12l-2 2q-33 -50 -70 -78q-43 -33 -86 -33q-38 0 -63 24t-25 61q0 15 7 46l5 21l51 222h-77l6 22h82q33 0 40 1
q5 0 28 3q3 0 21 2l-65 -283q-1 -1 -4 -18q-1 -5 -2 -10.5t-2 -9t-1 -4.5q0 -3 -0.5 -7t-0.5 -6q0 -31 28 -31q27 0 65 33t60 76q16 33 29 88l39 166h93zM363 586h101l-133 -128h-51z" />
    <glyph glyph-name="ucircumflex" unicode="&#xfb;" horiz-adv-x="542" 
d="M475 384l-64 -277q-10 -41 -10 -56q0 -23 16 -23q19 0 43 31t44 80h22q-26 -72 -64.5 -111.5t-82.5 -39.5q-28 0 -45.5 22t-17.5 56q0 2 0.5 7t1.5 12t1 12l-2 2q-33 -50 -70 -78q-43 -33 -86 -33q-38 0 -63 24t-25 61q0 15 7 46l5 21l51 222h-77l6 22h82q33 0 40 1
q5 0 28 3q3 0 21 2l-65 -283q-1 -1 -4 -18q-1 -5 -2 -10.5t-2 -9t-1 -4.5q0 -3 -0.5 -7t-0.5 -6q0 -31 28 -31q27 0 65 33t60 76q16 33 29 88l39 166h93zM302 586h83l61 -128h-61l-43 91l-92 -91h-77z" />
    <glyph glyph-name="udieresis" unicode="&#xfc;" horiz-adv-x="542" 
d="M475 384l-64 -277q-10 -41 -10 -56q0 -23 16 -23q19 0 43 31t44 80h22q-26 -72 -64.5 -111.5t-82.5 -39.5q-28 0 -45.5 22t-17.5 56q0 2 0.5 7t1.5 12t1 12l-2 2q-33 -50 -70 -78q-43 -33 -86 -33q-38 0 -63 24t-25 61q0 15 7 46l5 21l51 222h-77l6 22h82q33 0 40 1
q5 0 28 3q3 0 21 2l-65 -283q-1 -1 -4 -18q-1 -5 -2 -10.5t-2 -9t-1 -4.5q0 -3 -0.5 -7t-0.5 -6q0 -31 28 -31q27 0 65 33t60 76q16 33 29 88l39 166h93zM239 554q18 0 31 -13t13 -31q0 -19 -13 -32t-31 -13q-19 0 -32 13t-13 32q0 18 13 31t32 13zM427 554q18 0 31 -13
t13 -31q0 -19 -13 -32t-31 -13t-31 13t-13 32q0 18 13 31t31 13z" />
    <glyph glyph-name="yacute" unicode="&#xfd;" horiz-adv-x="438" 
d="M202 -23l-82 297q-13 46 -18.5 56.5t-16.5 10.5q-26 0 -62 -103h-22q23 75 57 116.5t73 41.5q28 0 44.5 -20.5t31.5 -73.5l56 -205h2l12 37l39 98q32 82 42 103.5t23 38.5q16 22 40 22q17 0 27 -10t10 -27t-9.5 -29t-22.5 -12q-8 0 -18 6q-2 1 -5 3l-2 2l-2 1h-4
q-10 0 -19.5 -13.5t-23.5 -49.5l-85 -211q-38 -93 -91 -169.5t-106 -115.5q-42 -29 -99 -29q-27 0 -44 12.5t-17 32.5q0 15 10.5 24.5t26.5 9.5q32 0 46 -32q9 -20 18 -20q39 0 93.5 59.5t97.5 148.5zM311 586h101l-133 -128h-51z" />
    <glyph glyph-name="thorn" unicode="&#xfe;" horiz-adv-x="542" 
d="M317 678l-81 -352l2 -2q52 72 128 72q59 0 96.5 -42.5t37.5 -109.5q0 -94 -70 -173q-73 -83 -159 -83q-37 0 -59 14.5t-38 50.5h-2l-65 -279h85l-5 -25h-254l5 25h77l131 569h1l71 302h-58l5 25h57q48 0 95 8zM357 375q-43 -1 -82 -38t-56 -92q-32 -102 -32 -149
q0 -38 23 -62t59 -24q63 0 93 86q17 51 31 118t14 100q0 61 -48 61h-2z" />
    <glyph glyph-name="ydieresis" unicode="&#xff;" horiz-adv-x="438" 
d="M202 -23l-82 297q-13 46 -18.5 56.5t-16.5 10.5q-26 0 -62 -103h-22q23 75 57 116.5t73 41.5q28 0 44.5 -20.5t31.5 -73.5l56 -205h2l12 37l39 98q32 82 42 103.5t23 38.5q16 22 40 22q17 0 27 -10t10 -27t-9.5 -29t-22.5 -12q-8 0 -18 6q-2 1 -5 3l-2 2l-2 1h-4
q-10 0 -19.5 -13.5t-23.5 -49.5l-85 -211q-38 -93 -91 -169.5t-106 -115.5q-42 -29 -99 -29q-27 0 -44 12.5t-17 32.5q0 15 10.5 24.5t26.5 9.5q32 0 46 -32q9 -20 18 -20q39 0 93.5 59.5t97.5 148.5zM187 554q18 0 31 -13t13 -31q0 -19 -13 -32t-31 -13q-19 0 -32 13
t-13 32q0 18 13 31t32 13zM375 554q18 0 31 -13t13 -31q0 -19 -13 -32t-31 -13t-31 13t-13 32q0 18 13 31t31 13z" />
    <glyph glyph-name="dotlessi" unicode="&#x131;" horiz-adv-x="323" 
d="M232 393l-71 -292l-4 -19q-6 -20 -6 -38t18 -18q25 0 54.5 34.5t55.5 94.5h22q-65 -167 -174 -167q-65 0 -65 67q0 20 10 59q1 6 5 22l54 223h-92l5 25h57q68 0 131 9z" />
    <glyph glyph-name="Lslash" unicode="&#x141;" horiz-adv-x="646" 
d="M364 630l-49 -225l2 -2l143 116v-29l-153 -125l-72 -340h129q71 0 105.5 14.5t62.5 57.5q29 43 58 116h25l-58 -213h-530l5 25h91l47 226l-2 2l-139 -115v30l150 124l71 338h-97l5 25h308l-6 -25h-96z" />
    <glyph glyph-name="lslash" unicode="&#x142;" horiz-adv-x="271" 
d="M93 295l77 335h-67l5 25h62q58 0 101 7l-63 -270l2 -2l61 53v-31l-72 -59l-60 -258q-7 -29 -7 -45q0 -17 12 -17q40 0 84 112h22q-55 -157 -146 -157q-28 0 -46 17.5t-18 45.5q0 9 2 23l5 20l37 162l-2 2l-64 -55v30z" />
    <glyph glyph-name="OE" unicode="&#x152;" horiz-adv-x="969" 
d="M687 631l-60 -277h34q54 0 80 20q17 14 27.5 32.5t22.5 58.5h25l-58 -268h-25q4 31 4 44q0 47 -21.5 67.5t-70.5 20.5h-23l-65 -304h152q58 0 88 19q31 19 52.5 47t56.5 95l12 23h22l-57 -209h-397q-59 0 -108 -7q-35 -5 -62 -5q-103 0 -164 49q-94 76 -94 208
q0 85 44 176.5t116 157.5q97 88 224 88q32 0 78 -6q23 -4 29 -4q6 -1 30 -1h24h386l-29 -168h-25q2 30 2 31q0 41 -14.5 69.5t-39.5 36.5q-19 6 -72 6h-124zM573 631l-25 1l-50 8q-18 3 -43 3q-109 0 -155 -55q-48 -58 -85 -192t-37 -248q0 -70 34 -103t106 -33q14 0 51 4
q24 4 54 7l21 2z" />
    <glyph glyph-name="oe" unicode="&#x153;" horiz-adv-x="646" 
d="M600 106h26q-74 -118 -173 -118q-62 0 -126 61q-46 -34 -77.5 -47.5t-67.5 -13.5q-56 0 -98.5 48.5t-42.5 112.5q0 53 27.5 106t73.5 90q62 51 130 51q65 0 114 -58l17 12q62 46 120 46q44 0 75.5 -28t31.5 -66q0 -56 -48 -97q-28 -24 -62.5 -32.5t-105.5 -8.5l-18 1
q-11 -48 -11 -74q0 -36 20 -58t54 -22q47 0 99 44q23 21 42 51zM407 217l-7 -31h30q56 0 78 18q22 17 37 50t15 65q0 54 -45 54q-30 0 -51 -19q-30 -29 -57 -137zM329 307q-1 31 -18 50t-45 19q-59 0 -86 -90q-47 -156 -47 -220q0 -24 16 -39.5t41 -15.5q41 0 68 38.5
t47 126.5q24 99 24 130v1z" />
    <glyph glyph-name="Scaron" unicode="&#x160;" horiz-adv-x="594" 
d="M574 655l-44 -187h-24q-1 52 -10.5 82.5t-32.5 54.5q-40 43 -105 43q-56 0 -100 -34.5t-44 -78.5q0 -20 15 -41t39 -35q34 -19 74 -36q107 -47 150 -94.5t43 -119.5q0 -94 -69 -159t-169 -65q-79 0 -161 64q-35 -24 -64 -49h-19l47 190h20q8 -60 29 -95q49 -85 149 -85
q73 0 121 39t48 98q0 46 -34.5 79t-123.5 73q-86 38 -117 74.5t-31 100.5q0 83 57 139.5t141 56.5q92 0 147 -65q30 24 45 50h23zM290 835h61l43 -92l92 92h78l-130 -128h-83z" />
    <glyph glyph-name="scaron" unicode="&#x161;" horiz-adv-x="375" 
d="M326 124q0 -59 -48.5 -97.5t-123.5 -38.5q-51 0 -87 24.5t-36 58.5q0 19 12.5 32.5t30.5 13.5q17 0 27.5 -11.5t10.5 -28.5q0 -11 -6 -25l-4 -8q-2 -6 -2 -7q0 -28 59 -28q43 0 72.5 19t29.5 48q0 22 -17.5 40t-59.5 39q-97 49 -97 120q0 49 43.5 85t103.5 36
q50 0 79.5 -19t29.5 -50q0 -17 -12 -29.5t-29 -12.5q-16 0 -26.5 11t-10.5 27q0 7 5 21q2 5 2 15q0 17 -41 17q-35 0 -57 -15.5t-22 -38.5q0 -20 14 -35.5t51 -34.5q60 -31 83.5 -59t25.5 -69zM145 586h61l43 -92l92 92h78l-130 -128h-83z" />
    <glyph glyph-name="Ydieresis" unicode="&#x178;" horiz-adv-x="813" 
d="M479 334l253 296h-96l5 25h209l-6 -25h-79l-272 -322l-60 -283h94l-5 -25h-304l5 25h95l57 268l-169 337h-82l5 25h304l-5 -25h-97zM409 803q18 0 31 -13t13 -31q0 -19 -13 -32t-31 -13q-19 0 -32 13t-13 32q0 18 13 31t32 13zM597 803q18 0 31 -13t13 -31q0 -19 -13 -32
t-31 -13t-31 13t-13 32q0 18 13 31t31 13z" />
    <glyph glyph-name="Zcaron" unicode="&#x17d;" horiz-adv-x="646" 
d="M210 655h458v-16l-489 -614h144q81 0 115 14q46 17 77 60q30 42 51 106h24l-46 -205h-506v25l484 605h-121q-65 0 -98 -11.5t-60 -43.5q-19 -22 -29 -41t-24 -60h-25zM316 835h61l43 -92l92 92h78l-130 -128h-83z" />
    <glyph glyph-name="zcaron" unicode="&#x17e;" horiz-adv-x="375" 
d="M40 245l79 151q109 -48 173 -48q36 0 37 22q0 26 18 26q5 0 9.5 -4t4.5 -8q0 -29 -95 -124q-31 -30 -99 -98l-42 -43l-23 -21l2 -2q23 6 38 6q51 0 121 -32q14 -6 23 -6q12 0 22 9t10 21q0 9 -14 10q-31 3 -31 29q0 14 10 24t24 10q16 0 25.5 -13.5t9.5 -36.5
q0 -49 -41 -89t-78 -40q-27 0 -85 26q-55 24 -71 24q-18 0 -18 -11q0 -5 2 -9v-9q0 -21 -19 -21q-18 0 -18 19q0 27 62 90q80 84 95 99q38 38 86 84l21 18l-2 2q-73 -10 -118 -10q-20 0 -66 10l-27 -55h-25zM145 586h61l43 -92l92 92h78l-130 -128h-83z" />
    <glyph glyph-name="florin" unicode="&#x192;" horiz-adv-x="488" 
d="M334 427h87l-8 -32h-85q-11 -59 -41 -184q-33 -127 -50 -187q-65 -234 -178 -234q-26 0 -42.5 14.5t-16.5 38.5q0 17 11.5 29t27.5 12q15 0 26 -14q5 -7 5 -13q0 -11 -5 -16l-5 -5q-2 -4 -2 -8q0 -9 12 -9q51 0 81 145l42 206l51 206l4 19h-86l7 32q3 0 6.5 0.5t4.5 0.5
q51 3 65.5 15.5t34.5 71.5q26 77 47 109t55 46q17 7 37 7q30 0 49 -15t19 -39q0 -16 -9.5 -27t-23.5 -11q-12 0 -21.5 8.5t-9.5 19.5q0 9 6 18q3 6 3 7q1 2 1 6q0 13 -18 13q-24 0 -36 -21t-22 -79l-17 -98z" />
    <glyph glyph-name="circumflex" unicode="&#x2c6;" horiz-adv-x="333" 
d="M197 586h83l61 -128h-61l-43 91l-92 -91h-77z" />
    <glyph glyph-name="caron" unicode="&#x2c7;" horiz-adv-x="333" 
d="M124 586h61l43 -92l92 92h78l-130 -128h-83z" />
    <glyph glyph-name="breve" unicode="&#x2d8;" horiz-adv-x="333" 
d="M69 577h53q1 -34 19 -52t49 -18q67 0 101 70h58q-31 -64 -68 -92t-93 -28q-53 0 -84.5 32t-34.5 88z" />
    <glyph glyph-name="dotaccent" unicode="&#x2d9;" horiz-adv-x="333" 
d="M196 558q18 0 31 -13t13 -31t-13 -31t-31 -13t-31 13t-13 31t13 31t31 13z" />
    <glyph glyph-name="ring" unicode="&#x2da;" horiz-adv-x="333" 
d="M118 529q0 37 26 63t62 26q37 0 63.5 -26t26.5 -63t-26 -62.5t-63 -25.5t-63 25.5t-26 62.5zM153 531q0 -23 16 -39.5t38 -16.5t38 16.5t16 39.5t-16 39t-39 16q-22 0 -37.5 -16t-15.5 -39z" />
    <glyph glyph-name="ogonek" unicode="&#x2db;" horiz-adv-x="333" 
d="M32 9h46q-24 -57 -24 -100q0 -28 15.5 -43t42.5 -15q40 0 88 22l-11 -48q-57 -22 -101 -22q-40 0 -63 23t-23 61q0 47 30 122z" />
    <glyph glyph-name="tilde" unicode="&#x2dc;" horiz-adv-x="333" 
d="M310 555h54q-26 -90 -88 -90q-16 0 -43 9l-46 15q-30 10 -41 10q-19 0 -40 -34h-50q19 49 41.5 69.5t54.5 20.5q19 0 50 -11l39 -14l18 -6q8 -2 12 -2h2q14 0 22 7t15 26z" />
    <glyph glyph-name="hungarumlaut" unicode="&#x2dd;" horiz-adv-x="333" 
d="M173 586h101l-131 -129h-52zM313 586h100l-132 -129h-51z" />
    <glyph glyph-name="endash" unicode="&#x2013;" horiz-adv-x="500" 
d="M-4 223h508v-31h-508v31z" />
    <glyph glyph-name="emdash" unicode="&#x2014;" horiz-adv-x="1000" 
d="M-6 223h1012v-31h-1012v31z" />
    <glyph glyph-name="quoteleft" unicode="&#x2018;" horiz-adv-x="271" 
d="M292 666l11 -20q-64 -24 -99 -54q-27 -24 -43 -53q-13 -24 -15 -50v-1q0 -16 10 -16q5 0 16 14q22 28 48 28q20 0 34 -15t14 -37q0 -29 -20.5 -48.5t-50.5 -19.5q-31 0 -54.5 25.5t-23.5 60.5q0 70 64 124q39 33 109 62z" />
    <glyph glyph-name="quoteright" unicode="&#x2019;" horiz-adv-x="271" 
d="M129 394l-6 22q48 24 80 44q30 20 50 51t20 57q0 21 -13 21q-7 0 -17 -15q-14 -24 -42 -24q-21 0 -35.5 15t-14.5 37q0 28 20.5 46t52.5 18t55 -25t23 -60q0 -58 -45 -106.5t-128 -80.5z" />
    <glyph glyph-name="quotesinglbase" unicode="&#x201a;" horiz-adv-x="271" 
d="M40 -145l-5 24q59 19 96 58t37 83q0 19 -9 19q-7 0 -17 -15q-15 -24 -44 -24q-21 0 -35 14.5t-14 35.5q0 25 21.5 43.5t50.5 18.5q30 0 52 -25t22 -59q0 -73 -68 -128q-29 -24 -87 -45z" />
    <glyph glyph-name="quotedblleft" unicode="&#x201c;" 
d="M514 657l7 -24q-55 -23 -82 -44q-31 -23 -50 -51.5t-19 -52.5q0 -8 4.5 -14t9.5 -6q7 0 16 14q16 23 43 23q20 0 34.5 -15t14.5 -37q0 -26 -20.5 -44t-50.5 -18q-34 0 -57.5 24t-23.5 58q0 35 22.5 73.5t58.5 63.5q31 22 93 50zM292 657l8 -23q-70 -28 -110.5 -67.5
t-40.5 -80.5q0 -20 12 -20q7 0 17 13q21 25 42 25q19 0 34.5 -16.5t15.5 -36.5q0 -26 -21 -44.5t-49 -18.5q-34 0 -58 25.5t-24 61.5q0 52 47 101t127 81z" />
    <glyph glyph-name="quotedblright" unicode="&#x201d;" 
d="M123 388l-7 23q57 26 82 44q31 22 49.5 51t18.5 53q0 21 -13 21q-7 0 -16 -14q-16 -24 -43 -24q-20 0 -34.5 15t-14.5 37q0 27 20.5 45t50.5 18q33 0 57 -24.5t24 -58.5q0 -35 -22.5 -73.5t-58.5 -63.5q-31 -22 -93 -49zM345 388l-8 23q70 27 110.5 66.5t40.5 80.5
q0 20 -12 20q-7 0 -17 -13q-21 -25 -42 -25q-20 0 -35.5 16.5t-15.5 37.5q0 25 21.5 44t49.5 19q34 0 58 -25.5t24 -62.5q0 -52 -47 -101t-127 -80z" />
    <glyph glyph-name="quotedblbase" unicode="&#x201e;" 
d="M11 -159l-7 24q56 25 82 44q30 21 49 50.5t19 53.5q0 20 -13 20q-7 0 -16 -14q-16 -24 -43 -24q-20 0 -34.5 15.5t-14.5 37.5q0 26 20.5 44t50.5 18q34 0 57.5 -24t23.5 -58q0 -35 -22.5 -73.5t-58.5 -63.5q-31 -22 -93 -50zM233 -159l-8 23q70 27 110.5 67t40.5 81
q0 20 -12 20q-7 0 -17 -13q-21 -25 -42 -25q-20 0 -35.5 16t-15.5 37q0 25 21 44t50 19q34 0 58 -25.5t24 -61.5q0 -52 -47 -101t-127 -81z" />
    <glyph glyph-name="dagger" unicode="&#x2020;" horiz-adv-x="542" 
d="M138 -226h-21q18 54 43 137q21 75 37 139q32 138 32 190v11l-1 13v28q38 38 51 55.5t27 51.5q-29 -1 -61 -14q-51 -19 -71 -19q-25 0 -40.5 12t-15.5 32q0 17 16 28t40 11q22 0 73 -18q36 -13 66 -15q8 31 8 45v7l-3 39q-1 8 -1 28q0 107 60 107q19 0 30.5 -14t11.5 -36
q0 -37 -43 -98q-23 -32 -35 -53q-2 -3 -10 -25q27 1 57 11q35 13 41 14q18 6 35 6q55 0 55 -41q0 -18 -14.5 -29t-37.5 -11q-21 0 -75 19q-35 13 -65 14q-4 -32 -4 -41q0 -28 22 -66q-36 -59 -69 -132q-35 -78 -50 -119q-33 -89 -80 -240z" />
    <glyph glyph-name="daggerdbl" unicode="&#x2021;" horiz-adv-x="542" 
d="M336 482l-3 61v6q0 41 17.5 68.5t42.5 27.5q17 0 28 -13.5t11 -32.5q0 -35 -31 -79q-35 -51 -42 -65q-3 -5 -9 -24q39 4 74 17q30 10 52 10q18 0 31 -11t13 -27q0 -14 -14 -26t-29 -12q-19 0 -56 13q-36 14 -77 18q-5 -28 -5 -53q0 -24 19 -57q-83 -68 -83 -124
q0 -22 18 -61q-30 -28 -42.5 -46.5t-28.5 -60.5h5q27 0 66 16q34 12 55 12q18 0 30.5 -10.5t12.5 -25.5q0 -16 -13 -26.5t-33 -10.5q-28 0 -59 10q-28 9 -48 13q-1 0 -21 2q-10 -29 -10 -51v-5l3 -53v-7q0 -41 -17 -69.5t-41 -28.5q-17 0 -29 13t-12 31q0 34 35 88l39 59
l10 23h-7h-13q-3 -1 -53 -16q-26 -9 -53 -9q-20 0 -32.5 9.5t-12.5 25.5q0 15 13 26.5t30 11.5q25 0 60 -13q38 -16 60 -16q2 0 7 0.5t8 0.5q2 30 2 35q0 33 -15 72q47 43 63 69.5t16 63.5q0 21 -17 52q32 32 46 53.5t25 56.5h-3q-23 0 -68 -18q-31 -12 -57 -12
q-17 0 -29.5 10.5t-12.5 26.5q0 14 12 26q17 13 32 13q21 0 60 -13q41 -13 72 -15q8 26 8 46v5z" />
    <glyph glyph-name="bullet" unicode="&#x2022;" horiz-adv-x="350" 
d="M176 453q50 0 86 -35.5t36 -86.5t-36 -87t-86 -36q-51 0 -87 36t-36 86q0 51 36 87t87 36z" />
    <glyph glyph-name="ellipsis" unicode="&#x2026;" horiz-adv-x="969" 
d="M806 108q26 0 44.5 -18t18.5 -44q0 -25 -18 -42.5t-44 -17.5q-25 0 -43 18t-18 43t17.5 43t42.5 18zM483 108q26 0 44.5 -18t18.5 -44q0 -25 -18 -42.5t-44 -17.5t-43.5 18t-17.5 43t17.5 43t42.5 18zM160 108q26 0 44.5 -18t18.5 -44q0 -25 -18 -42.5t-44 -17.5
q-25 0 -43 18t-18 43t17.5 43t42.5 18z" />
    <glyph glyph-name="perthousand" unicode="&#x2030;" horiz-adv-x="969" 
d="M338 537q0 -80 -49 -144.5t-110 -64.5q-44 0 -71.5 37.5t-27.5 97.5q0 78 47 139q51 68 112 68q44 0 71.5 -36.5t27.5 -96.5zM274 609q0 18 -9.5 30t-24.5 12q-29 0 -42 -34q-16 -39 -32.5 -107.5t-21.5 -118.5v-1l-1 -2q0 -16 11 -28.5t25 -12.5q23 0 38 28
q31 63 55 207q2 9 2 27zM603 175q0 -79 -51 -142.5t-114 -63.5q-41 0 -68.5 38t-27.5 96q0 80 51 144t115 64q43 0 69 -37.5t26 -98.5zM539 250q0 17 -9.5 29t-23.5 12q-30 0 -45 -34q-15 -35 -31 -102.5t-23 -121.5v-6q0 -17 9.5 -27.5t25.5 -10.5q33 0 56 67
q41 123 41 194zM910 175q0 -79 -51 -142.5t-114 -63.5q-41 0 -68.5 38t-27.5 96q0 80 51 144t115 64q43 0 69 -37.5t26 -98.5zM846 250q0 17 -9.5 29t-23.5 12q-30 0 -45 -34q-15 -35 -31 -102.5t-23 -121.5v-6q0 -17 9.5 -27.5t25.5 -10.5q33 0 56 67q41 123 41 194z
M597 670h41l-549 -701h-42z" />
    <glyph glyph-name="guilsinglleft" unicode="&#x2039;" horiz-adv-x="292" 
d="M189 406h93l-178 -199l85 -197h-78l-91 210z" />
    <glyph glyph-name="guilsinglright" unicode="&#x203a;" horiz-adv-x="292" 
d="M103 10h-93l178 198l-85 198h78l91 -210z" />
    <glyph glyph-name="fraction" unicode="&#x2044;" horiz-adv-x="83" 
d="M434 671h44l-612 -704h-43z" />
    <glyph glyph-name="trademark" unicode="&#x2122;" horiz-adv-x="980" 
d="M25 662h356l10 -98h-16q-7 39 -27.5 54t-67.5 15h-36v-283q0 -41 8.5 -52t42.5 -13v-17h-183v17q34 4 41.5 14t7.5 50v284h-37q-45 0 -65 -15t-28 -54h-16zM565 662l133 -279l129 279h136v-18q-35 -1 -44 -12t-9 -54v-228q0 -42 8 -52.5t45 -12.5v-17h-194v17
q37 1 47.5 12.5t10.5 51.5v240h-2l-147 -321h-16l-149 317h-2v-235q0 -40 8.5 -52.5t37.5 -12.5h18v-17h-150v17q36 0 45.5 11.5t9.5 52.5v228q0 45 -9 56t-46 11v18h140z" />
    <glyph glyph-name="minus" unicode="&#x2212;" horiz-adv-x="667" 
d="M68 356h531v-64h-531v64z" />
    <glyph glyph-name="fi" unicode="&#xfb01;" horiz-adv-x="542" 
d="M375 359h-141l-4 -21q-47 -214 -67 -289t-48 -143q-29 -70 -73 -114q-41 -43 -96 -43q-38 0 -65.5 20t-27.5 48q0 18 12.5 29.5t31.5 11.5q18 0 31 -12t13 -28q0 -12 -7 -23l-6 -9q-2 -4 -2 -8q0 -11 14 -11q42 0 68.5 40t42.5 127l32 175q30 163 55 250h-78l5 25h79
q29 95 61 150t77 89q56 44 126 44q38 0 64.5 -22t26.5 -54q0 -20 -13 -33.5t-32 -13.5q-16 0 -28 12.5t-12 28.5q0 20 20 39q5 7 5 9q0 13 -40 13q-57 0 -91.5 -53.5t-62.5 -185.5l-5 -23h96q92 0 138 9l-69 -306l-4 -20q-2 -12 -2 -20q0 -14 12 -14q22 0 45.5 29t42.5 79
h24q-24 -70 -64.5 -111.5t-83.5 -41.5q-29 0 -47 18.5t-18 49.5q0 16 11 64z" />
    <glyph glyph-name="fl" unicode="&#xfb02;" horiz-adv-x="542" 
d="M540 667l-133 -576l-5 -20q-3 -11 -3 -20q0 -18 15 -18q41 0 87 112h24q-23 -79 -79 -129q-31 -28 -76 -28q-28 0 -44.5 17.5t-16.5 47.5q0 17 3 33q1 3 2 7t2.5 11t3.5 13l99 425q-19 10 -19 33q0 15 8 26l11 13q2 4 2 8q0 9 -11 15t-28 6q-30 0 -50 -16
q-52 -45 -88 -220l-5 -23h91l-5 -25h-93q-13 -70 -43 -199q-46 -196 -86 -279q-31 -62 -74 -97t-88 -35q-37 0 -61 18t-24 45q0 21 13 34t35 13q18 0 29 -10t11 -26q0 -19 -8 -30l-5 -7q-2 -6 -2 -8q0 -9 19 -9q28 0 47 21q34 37 50 116q13 62 20 103q38 216 64 327
q2 9 6 23h-81l5 25h83q32 124 100 203.5t143 79.5q8 0 24 -2q1 0 3.5 -1t6.5 -1.5t7 -1.5q32 -6 46 -6q21 0 53 12h15z" />
  </font>
</defs>
</svg>
