<?xml version="1.0" standalone="no"?>
<!DOCTYPE svg PUBLIC "-//W3C//DTD SVG 1.1//EN" "http://www.w3.org/Graphics/SVG/1.1/DTD/svg11.dtd" >
<svg xmlns="http://www.w3.org/2000/svg" xmlns:xlink="http://www.w3.org/1999/xlink" version="1.1">
<metadata>
Created by FontForge 20170731 at Thu Aug 11 18:24:42 2022
 By Aleksey,,,
Copyright (c) 1992, 2002 Adobe Systems Incorporated.  All Rights Reserved. (c) 1981, 2002 Heidelberger Druckmaschinen AG. All rights reserved.
</metadata>
<defs>
<font id="DidotLTStd-Bold" horiz-adv-x="1138" >
  <font-face 
    font-family="Didot LT Std"
    font-weight="700"
    font-stretch="normal"
    units-per-em="2048"
    panose-1="0 0 8 0 0 0 0 0 0 0"
    ascent="1477"
    descent="-571"
    x-height="879"
    cap-height="1458"
    bbox="-330 -618 2169 1985"
    underline-thickness="102"
    underline-position="-307"
    unicode-range="U+0020-FB02"
  />
<missing-glyph horiz-adv-x="1024" 
d="M0 0v1434h1024v-1434h-1024zM512 809l348 522h-696zM573 717l349 -522v1044zM164 102h696l-348 523zM102 1239v-1044l349 522z" />
    <glyph glyph-name="f_i" unicode="fi" horiz-adv-x="1290" 
d="M92 0v29h135v821h-135v29h135q0 155 15 243.5t67 171.5q69 106 177 151.5t227 45.5q56 0 113 -10.5t114 -33t93 -67.5t36 -106q0 -53 -34.5 -83t-88.5 -30q-53 0 -90 20.5t-37 69.5q0 34 11.5 78t11.5 62q0 71 -121 71q-50 0 -90 -14t-65 -33.5t-43 -51t-26.5 -57
t-13.5 -62.5t-5.5 -55t-0.5 -46v-264h604v-850h138v-29h-512v29h124v821h-354v-821h125v-29h-510z" />
    <glyph glyph-name="f_l" unicode="fl" horiz-adv-x="1251" 
d="M78 850v29h137q0 218 10.5 296.5t59.5 153.5q30 46 70.5 78.5t76 48t82 24t71 10t58.5 1.5q60 0 154 -16q100 -17 104 -17h152v-1429h135v-29h-500v29h115v1140q-18 6 -28 10t-26 13.5t-24 26t-8 38.5q0 10 15.5 61t15.5 60q0 25 -12 42.5t-31.5 26t-39 12t-40.5 3.5
q-37 0 -65 -11t-45 -34t-27.5 -47t-15 -61.5t-6 -64.5t-1.5 -68v-297h147v-29h-147v-821h113v-29h-500v29h137v821h-137z" />
    <glyph glyph-name=".notdef" horiz-adv-x="1024" 
d="M0 0v1434h1024v-1434h-1024zM512 809l348 522h-696zM573 717l349 -522v1044zM164 102h696l-348 523zM102 1239v-1044l349 522z" />
    <glyph glyph-name=".null" horiz-adv-x="0" 
 />
    <glyph glyph-name="nonmarkingreturn" horiz-adv-x="682" 
 />
    <glyph glyph-name="space" unicode=" " horiz-adv-x="569" 
 />
    <glyph glyph-name="exclam" unicode="!" horiz-adv-x="606" 
d="M283 412l-99 813q-14 119 -14 127q0 62 36.5 100.5t96.5 38.5t96.5 -38.5t36.5 -100.5q0 -8 -14 -127l-98 -813h-41zM158 125q0 60 42.5 102.5t102.5 42.5t103 -42.5t43 -102.5t-43 -102.5t-103 -42.5t-102.5 42.5t-42.5 102.5z" />
    <glyph glyph-name="quotedbl" unicode="&#x22;" horiz-adv-x="757" 
d="M209 868l-53 437q-9 65 -9 86q0 55 23.5 77.5t56.5 22.5t56.5 -22.5t23.5 -77.5q0 -28 -8 -86l-53 -437h-37zM512 868l-53 437q-8 58 -8 86q0 55 23 77.5t56 22.5t56.5 -22.5t23.5 -77.5q0 -28 -8 -86l-53 -437h-37z" />
    <glyph glyph-name="numbersign" unicode="#" 
d="M307 485l-176 -485h-43l176 485h-272l14 37h273l147 406h-272l14 37h272l178 493h44l-179 -493h346l179 493h43l-179 -493h273l-15 -37h-272l-147 -406h272l-14 -37h-273l-176 -485h-43l176 485h-346zM469 928l-147 -406h346l147 406h-346z" />
    <glyph glyph-name="dollar" unicode="$" horiz-adv-x="1290" 
d="M641 618v-620q78 2 140.5 26t100 58.5t62.5 78.5t34 82t9 72q0 54 -19 98t-47.5 73t-77.5 55t-93 42t-109 35zM606 940v522q-141 -9 -225 -86t-84 -170q0 -54 23 -97t67.5 -74.5t96 -53t122.5 -41.5zM606 1491v121h35v-121q77 -1 144.5 -20t113 -37.5t70.5 -18.5
q27 0 37.5 8.5t19.5 34.5h35v-389h-29q-1 2 -2 6q-53 157 -95 224q-95 154 -277 162l-17 1v-530q190 -59 258 -89q191 -84 249 -223q28 -68 28 -153q0 -129 -66.5 -239.5t-189.5 -180.5t-279 -78v-143h-35v143q-72 1 -159 20.5t-152.5 38.5t-85.5 19q-28 0 -40.5 -9.5
t-23.5 -37.5h-30v455h28q14 -76 53 -168.5t113 -165.5q54 -53 112.5 -82t97 -35t87.5 -6v629q-62 19 -97 30.5t-91 34.5t-89 44t-73 55.5t-61.5 72.5t-36.5 90.5t-15 114.5q0 161 131 285.5t332 136.5z" />
    <glyph glyph-name="percent" unicode="%" horiz-adv-x="1593" 
d="M1149 0q46 0 76.5 16.5t46 37t23.5 67.5t9 79.5t1 100.5t-1 100.5t-9 79.5t-23.5 67.5t-46 37t-76.5 16.5t-76.5 -16.5t-46 -37t-23.5 -67.5t-9 -79.5t-1 -100.5t1 -100.5t9 -79.5t23.5 -67.5t46 -37t76.5 -16.5zM391 -10l770 1501l41 -18l-770 -1502zM444 860
q46 0 76.5 16.5t46 37t23.5 67.5t9 79.5t1 100.5t-1 100.5t-9 79.5t-23.5 67.5t-46 37t-76.5 16.5q-26 0 -46.5 -5t-36 -12t-27 -22.5t-19.5 -27.5t-13 -37t-7.5 -40t-4 -48.5t-1.5 -51v-57.5v-57.5t1.5 -51t4 -48.5t7.5 -40t13 -37t19.5 -27.5t27 -22.5t36 -12t46.5 -5z
M1149 -29q-88 0 -168 41.5t-132 118.5t-52 170t52 170t132 118.5t168 41.5t168 -41.5t132 -118.5t52 -170t-52 -170t-132 -118.5t-168 -41.5zM444 831q-88 0 -168 41.5t-132 118.5t-52 170t52 170t132 118.5t168 41.5t168.5 -41.5t132.5 -118.5t52 -170t-52 -170
t-132.5 -118.5t-168.5 -41.5z" />
    <glyph glyph-name="ampersand" unicode="&#x26;" horiz-adv-x="1630" 
d="M801 1010l344 -674q35 50 62.5 154t27.5 245q0 84 -13 137.5t-41.5 82t-65 39t-93.5 10.5v28h414v-28q-29 -5 -42.5 -8t-34 -10t-29 -14t-21.5 -20.5t-18 -31t-11.5 -43.5t-9 -59t-4.5 -77q-11 -303 -105 -438l94 -166q33 -59 86 -59q28 0 49 19.5t30.5 48t13.5 49.5
t4 34q0 16 -6 37h28q6 -18 6 -33q0 -10 -0.5 -21.5t-6 -39t-15 -52t-29.5 -53.5t-47 -49.5t-70.5 -34.5t-97.5 -14q-56 0 -100.5 18.5t-69.5 42t-55 62.5q-41 -32 -63 -47t-63.5 -36.5t-91 -30.5t-112.5 -9q-85 0 -157.5 18t-122 46.5t-89 68.5t-62.5 81t-38 85.5
t-20.5 80.5t-5.5 69q0 53 14 103t33 88t55.5 79.5t64 67.5t76.5 61.5t76 53t78 49.5q-52 140 -61 184q-5 30 -5 59q0 126 94.5 227t210.5 101q84 0 138.5 -51t54.5 -158q0 -73 -37.5 -139t-140.5 -133zM909 207l-307 596q-7 14 -17 36t-17.5 37l-10.5 21q-43 -33 -63 -49.5
t-45.5 -42.5t-36 -48t-18 -54t-7.5 -72q0 -59 32 -159t82.5 -200.5t123 -173.5t143.5 -73q50 0 91.5 22t103.5 70q-35 50 -54 90zM952 1278q0 74 -35 129t-102 55q-10 0 -20 -1t-32.5 -8.5t-38.5 -21t-29 -43t-13 -69.5q0 -103 106 -285q25 17 39 27t41.5 35.5t43 48.5
t28 59t12.5 74z" />
    <glyph glyph-name="quotesingle" unicode="'" horiz-adv-x="569" 
d="M266 868l-53 437q-8 58 -8 86q0 55 23.5 77.5t56.5 22.5t56.5 -22.5t23.5 -77.5q0 -21 -9 -86l-53 -437h-37z" />
    <glyph glyph-name="parenleft" unicode="(" horiz-adv-x="530" 
d="M498 -565l-33 -21q-21 26 -48.5 68t-79 143t-91.5 212t-70.5 274.5t-30.5 330.5t30.5 330.5t70.5 274.5t91.5 212t79 143t48.5 68l33 -20q-312 -458 -312 -1008q0 -549 312 -1007z" />
    <glyph glyph-name="parenright" unicode=")" horiz-adv-x="530" 
d="M66 -586l-33 21q311 456 311 1007q0 552 -311 1008l33 20q21 -26 48.5 -68t79 -143t91 -212t70 -274.5t30.5 -330.5t-30.5 -330.5t-70 -274.5t-91 -212t-79 -143t-48.5 -68z" />
    <glyph glyph-name="asterisk" unicode="*" horiz-adv-x="987" 
d="M98 1219q0 47 33.5 78.5t71.5 31.5q42 0 74 -24t53 -58t64 -87.5t95 -96.5q-6 46 -14 70.5t-43 111.5q-32 78 -39.5 101t-7.5 45q0 40 33 70t76 30t75.5 -30t32.5 -70q0 -22 -7.5 -45t-39.5 -101q-35 -87 -43 -111.5t-14 -70.5q52 43 95 96.5t64 87.5t53 58t74 24
q38 0 71.5 -31.5t33.5 -78.5q0 -100 -123 -113q-164 -16 -264 -51v-4q135 -36 213 -43q36 -4 52.5 -6.5t44.5 -11t41.5 -19.5t24.5 -32t11 -50q0 -44 -32.5 -76.5t-80.5 -32.5q-37 0 -64 24t-83 103q-36 51 -131 140q6 -46 14 -71.5t43 -111.5q32 -78 39.5 -100.5t7.5 -44.5
q0 -40 -32.5 -70.5t-75.5 -30.5t-76 30.5t-33 70.5q0 22 7.5 44.5t39.5 100.5q35 86 42.5 111.5t12.5 71.5q-95 -89 -131 -140q-56 -79 -83 -103t-64 -24q-48 0 -80.5 32.5t-32.5 76.5q0 29 11 50t24.5 32t41.5 19.5t44.5 11t52.5 6.5q78 7 213 43q-95 39 -262 55
q-123 13 -123 113z" />
    <glyph glyph-name="plus" unicode="+" horiz-adv-x="1214" 
d="M586 0v473h-471v37h471v473h41v-473h471v-37h-471v-473h-41z" />
    <glyph glyph-name="comma" unicode="," horiz-adv-x="569" 
d="M166 -371l-14 27q115 79 167 135.5t52 124.5q0 57 -31 84q-11 -8 -41 -16q-28 -4 -45 -4q-51 0 -96 37t-45 108t47 108t108 37q81 0 135 -65t54 -178q0 -61 -20.5 -117t-46.5 -93t-72.5 -78t-74.5 -60t-77 -50z" />
    <glyph glyph-name="hyphen" unicode="-" horiz-adv-x="757" 
d="M186 340v201h385v-201h-385z" />
    <glyph glyph-name="period" unicode="." horiz-adv-x="569" 
d="M139 125q0 60 43 102.5t103 42.5t102.5 -42.5t42.5 -102.5t-42.5 -102.5t-102.5 -42.5t-103 42.5t-43 102.5z" />
    <glyph glyph-name="slash" unicode="/" horiz-adv-x="606" 
d="M6 0l553 1470l41 -12l-553 -1470z" />
    <glyph glyph-name="zero" unicode="0" 
d="M70 731q0 50 3.5 104t16.5 131.5t34 146t59.5 140t89 122.5t127 83.5t169.5 32.5q81 0 149 -22t116 -55.5t86.5 -86t62.5 -101.5t41.5 -115.5t26 -113.5t13 -109t5 -89.5t0.5 -67.5q0 -50 -4 -104t-17 -131.5t-34 -146.5t-59.5 -140t-89 -122t-127 -83.5t-169.5 -32.5
q-81 0 -149 22t-116 55.5t-86.5 86t-62.5 101.5t-41.5 115.5t-25.5 113t-12.5 109t-5 90t-0.5 67.5zM346 731q0 -87 0.5 -146t2.5 -127.5t5.5 -112.5t9.5 -93.5t14.5 -80t21 -62t28.5 -49.5t37 -33t46.5 -21t57.5 -6t57.5 6t46.5 21t37.5 33t28.5 49.5t21 62t15 79.5t9.5 94
t5.5 112.5t2.5 127t0.5 146.5q0 441 -37.5 586t-186.5 145q-32 0 -57.5 -6t-46.5 -21t-37 -33t-28.5 -49.5t-21 -62t-14.5 -80t-9.5 -93.5t-5.5 -112.5t-2.5 -127.5t-0.5 -146z" />
    <glyph glyph-name="one" unicode="1" 
d="M922 29v-29h-631v29h192v1276q-50 -27 -141 -79.5t-127 -72.5l-16 27q18 11 68 39t64.5 36.5t53 31.5t55 34.5t48 33.5t53.5 40t51 43t59 53h82v-1462h189z" />
    <glyph glyph-name="two" unicode="2" 
d="M305 213h451q20 0 36.5 1.5t50.5 12.5t57 30.5t43.5 62t23.5 100.5h28v-420h-934v29l13 10q265 253 352 350q155 171 212 319q58 150 58 377q0 73 -3.5 124.5t-14.5 102t-30.5 81.5t-52.5 50t-79 19q-168 0 -168 -159q0 -8 6 -57.5t6 -57.5q0 -90 -116 -90
q-17 0 -28.5 0.5t-32 6t-32.5 15.5t-22 31t-10 51q0 39 24 85.5t71.5 93.5t134 78.5t194.5 31.5q111 0 196 -32.5t135 -89.5t74.5 -126t24.5 -149q0 -83 -48.5 -194.5t-168.5 -235.5l-148 -152z" />
    <glyph glyph-name="three" unicode="3" 
d="M41 291l33 10q6 -35 20 -71.5t43 -79t67.5 -75t99 -54t132.5 -21.5q77 0 133.5 24.5t89.5 63.5t52.5 100t25.5 120.5t6 137.5q0 35 -0.5 53.5t-2.5 54t-6.5 56.5t-14 52t-22.5 50t-33 40.5t-46 34t-62 20.5t-79 8q-115 0 -246 -82l-16 29q61 39 119.5 57.5t146.5 34.5
q17 4 26 6t30 9t34 14.5t33.5 22t33.5 31.5t28 43.5t24 58t15 74t6 91.5q0 23 -0.5 38t-4 45t-10.5 50.5t-21.5 46t-35 41t-52.5 26.5t-73 11q-63 0 -103 -27t-40 -85q0 -10 8 -63t8 -62q0 -27 -9 -46.5t-21 -29t-32.5 -14.5t-33 -6t-33.5 -1q-46 0 -79.5 23.5t-33.5 75.5
q0 121 110 192.5t292 71.5q102 0 181 -22t124.5 -54.5t75 -75t39.5 -78.5t10 -71q0 -62 -24 -112.5t-62 -85t-99 -64t-119.5 -48t-140.5 -38.5v-4q488 -79 488 -412q0 -77 -33.5 -154.5t-98.5 -146t-175 -111.5t-248 -43q-350 0 -424 320z" />
    <glyph glyph-name="four" unicode="4" 
d="M643 354v525h250v-525h182v-28h-182v-297h182v-29h-612v29h180v297h-580q46 142 185 444t258 500q39 65 72 108t56 65.5t50.5 33.5t43 12.5t46.5 1.5q117 0 117 -66q0 -35 -43 -69q-59 -49 -155.5 -154.5t-206 -242t-216.5 -301.5t-168 -304h541z" />
    <glyph glyph-name="five" unicode="5" 
d="M160 631l137 846h61q20 -19 49.5 -40.5t75.5 -48.5t105.5 -44t118.5 -17q159 0 262 143l26 -12q-56 -78 -82.5 -114t-65 -83.5t-61 -65.5t-55 -38t-63 -25.5t-70.5 -5.5q-15 0 -32 2t-36.5 6t-35 8t-38.5 11.5t-35.5 11.5t-38 14t-33.5 13t-33.5 13.5t-28.5 11.5
l-74 -449l4 -4q26 31 41 46.5t43 37.5t55.5 32.5t70 18.5t95.5 8q128 0 235 -52.5t171.5 -151t64.5 -224.5q0 -68 -22 -138.5t-67 -136.5t-106.5 -118t-147.5 -83.5t-183 -31.5q-158 0 -265.5 67.5t-107.5 160.5q0 114 125 114t125 -90q0 -7 -5 -48t-5 -48q0 -37 12.5 -63.5
t32.5 -39.5t39.5 -18.5t38.5 -5.5q32 0 50 1.5t49.5 10.5t50.5 25.5t42 50.5t36.5 82t22.5 123t9 170q0 104 -13 179.5t-34 119.5t-54.5 69t-66.5 33t-78 8q-35 0 -66 -9t-54 -20t-46.5 -33.5t-36.5 -37.5t-30.5 -44t-23.5 -40.5t-20 -40.5q-5 -11 -8 -16h-26z" />
    <glyph glyph-name="six" unicode="6" 
d="M66 614q0 230 85 431t236 323.5t332 122.5q77 0 142 -22.5t110 -75t45 -127.5q0 -63 -30 -92t-93 -29q-66 0 -93.5 23.5t-27.5 66.5q0 26 17.5 75t17.5 66q0 10 -3 21.5t-12 27.5t-30.5 26.5t-52.5 10.5q-48 0 -89.5 -16.5t-73 -42.5t-58.5 -67.5t-46 -82t-35.5 -96.5
t-26.5 -100t-19 -103.5t-13.5 -96.5t-9.5 -89l4 -4q22 29 36 44t46.5 40t77.5 37t104 12q124 0 231 -61t171.5 -167.5t64.5 -232.5q0 -123 -70.5 -231.5t-183 -171t-235.5 -62.5q-225 0 -371.5 172t-146.5 471zM797 473q0 200 -47.5 297.5t-157.5 97.5q-131 0 -201 -94
q-32 -42 -43.5 -89.5t-11.5 -164.5q0 -104 8.5 -186t21.5 -136t34 -92.5t40 -58.5t46 -31t45 -13.5t44 -2.5q30 0 51.5 3t46.5 14t42 31t33.5 55t26.5 84.5t16 121.5t6 164z" />
    <glyph glyph-name="seven" unicode="7" 
d="M150 1053v405h864q0 -129 -57 -372t-154 -480q-51 -126 -84.5 -204.5t-71.5 -158.5t-67 -124.5t-62.5 -81.5t-66.5 -51.5t-72 -14.5q-57 0 -96 19.5t-39 62.5q0 45 41 86l178 166q106 99 196 227t147.5 253t93.5 231t52 192h-637q-35 0 -62 -15t-41.5 -40.5t-22 -49
t-11.5 -50.5h-28z" />
    <glyph glyph-name="eight" unicode="8" 
d="M80 350q0 51 11 95t35 79.5t49.5 63t67.5 55t76 46t87 44.5q-53 29 -84.5 49t-71 53.5t-60.5 67.5t-36 85t-15 112q0 171 131 281t324 110q160 0 272.5 -89t112.5 -220q0 -100 -67 -179t-207 -143q170 -77 253.5 -176t83.5 -238q0 -81 -36 -164.5t-99 -153t-158.5 -113.5
t-203.5 -44q-190 0 -327.5 109.5t-137.5 269.5zM610 627l-174 92q-36 -22 -62 -56.5t-39 -69.5t-21 -81t-9.5 -78.5t-1.5 -75.5q0 -358 242 -358q65 0 116 20t81.5 51.5t51 73.5t28 81.5t7.5 80.5q0 121 -51.5 189.5t-167.5 130.5zM334 1214q0 -38 9 -71.5t22 -58.5
t40.5 -51t49.5 -43t65.5 -40t72.5 -37t85 -39q20 17 31 30.5t26.5 46t23 89.5t7.5 140q0 25 -1.5 46.5t-7 58t-19 64.5t-34 55.5t-55.5 42.5t-80 15q-104 0 -169.5 -71.5t-65.5 -176.5z" />
    <glyph glyph-name="nine" unicode="9" 
d="M49 1026q0 123 70.5 231.5t183.5 171t236 62.5q225 0 371.5 -172t146.5 -471q-1 -184 -35.5 -338.5t-104 -277t-185.5 -192t-269 -69.5q-80 0 -142.5 15.5t-98.5 39t-58.5 54t-30.5 57.5t-8 53q0 63 35.5 95t99.5 32q107 0 107 -84q0 -18 -12.5 -71.5t-12.5 -69.5
q0 -32 11.5 -52.5t34.5 -28t38.5 -9.5t42.5 -2q62 0 111 23.5t82.5 70t56.5 106.5t35.5 141.5t18 166.5t5.5 190h-4q-17 -26 -32.5 -43.5t-45.5 -41t-75.5 -36t-104.5 -12.5q-124 0 -231 61t-171.5 167.5t-64.5 232.5zM326 989q0 -209 49.5 -302t154.5 -93q92 0 156.5 49.5
t83.5 136.5q10 62 10 162q0 104 -8.5 186t-21 136t-32.5 92.5t-38.5 58.5t-44.5 31t-44.5 13.5t-43.5 2.5q-38 0 -67 -9t-59.5 -38.5t-50 -79.5t-32 -138t-12.5 -208z" />
    <glyph glyph-name="colon" unicode=":" horiz-adv-x="569" 
d="M139 762q0 60 43 102.5t103 42.5t102.5 -42.5t42.5 -102.5t-42.5 -103t-102.5 -43t-103 43t-43 103zM139 125q0 60 43 102.5t103 42.5t102.5 -42.5t42.5 -102.5t-42.5 -102.5t-102.5 -42.5t-103 42.5t-43 102.5z" />
    <glyph glyph-name="semicolon" unicode=";" horiz-adv-x="569" 
d="M166 -371l-14 27q115 79 167 135.5t52 124.5q0 57 -31 84q-11 -8 -41 -16q-28 -4 -45 -4q-51 0 -96 37t-45 108t47 108t108 37q81 0 135 -65t54 -178q0 -61 -20.5 -117t-46.5 -93t-72.5 -78t-74.5 -60t-77 -50zM139 762q0 60 43 102.5t103 42.5t102.5 -42.5t42.5 -102.5
t-42.5 -103t-102.5 -43t-103 43t-43 103z" />
    <glyph glyph-name="less" unicode="&#x3c;" horiz-adv-x="1214" 
d="M1188 41v-41l-1163 483v17l1163 483v-41l-1096 -450z" />
    <glyph glyph-name="equal" unicode="=" horiz-adv-x="1214" 
d="M115 649v37h983v-37h-983zM115 297v37h983v-37h-983z" />
    <glyph glyph-name="greater" unicode="&#x3e;" horiz-adv-x="1214" 
d="M25 942v41l1163 -483v-17l-1163 -483v41l1097 451z" />
    <glyph glyph-name="question" unicode="?" horiz-adv-x="909" 
d="M252 393v481h35q30 -45 60.5 -70.5t70.5 -25.5q76 0 104.5 89t28.5 280q0 182 -26.5 248.5t-100.5 66.5q-52 0 -79.5 -23.5t-27.5 -54.5q0 -23 21.5 -55t21.5 -63q0 -51 -26 -71.5t-86 -20.5q-46 0 -78.5 23t-32.5 73q0 73 46.5 125t111 74t137.5 22q174 0 271.5 -106.5
t97.5 -266.5q0 -78 -26 -143.5t-65.5 -107t-88 -71t-90.5 -41.5t-76 -12q-112 0 -164 70h-4v-420h-35zM123 125q0 60 42.5 102.5t102.5 42.5t103 -42.5t43 -102.5t-43 -102.5t-103 -42.5t-102.5 42.5t-42.5 102.5z" />
    <glyph glyph-name="at" unicode="@" horiz-adv-x="1705" 
d="M1167 1081h174l-139 -477q-18 -65 -18 -108q0 -42 23 -66t67 -24q49 0 102.5 39.5t97.5 104t72.5 154t28.5 181.5q0 113 -43 215t-121.5 180t-199 124t-265.5 46q-135 0 -258 -42.5t-216.5 -116.5t-162.5 -170t-105 -207.5t-36 -225.5q0 -189 91 -343t257 -243.5
t375 -89.5q135 0 279 48t272 147l26 -35q-265 -201 -589 -201q-218 1 -397.5 90t-286.5 254.5t-107 376.5q0 162 67.5 310t182 255t272 170.5t330.5 63.5q151 0 278.5 -46.5t214.5 -127.5t136 -191.5t49 -236.5q0 -141 -59.5 -273.5t-155.5 -213t-197 -80.5q-165 0 -180 182
q-19 -34 -33.5 -56t-46.5 -56t-77.5 -52t-102.5 -18q-31 0 -65 7t-74.5 27t-72 50t-52.5 82t-21 118q0 98 41.5 191.5t106.5 160t147 106.5t160 40q32 0 59 -6.5t45.5 -15.5t34 -25t23.5 -26.5t16 -30t9.5 -26t6.5 -22.5zM1094 909q0 77 -40.5 110.5t-90.5 33.5
q-80 0 -150 -74.5t-109.5 -186t-39.5 -225.5q0 -192 137 -192q73 0 120 51.5t83 140.5q29 69 59.5 177.5t30.5 164.5z" />
    <glyph glyph-name="A" unicode="A" horiz-adv-x="1554" 
d="M-53 0v29h174l610 1487h55l646 -1487h176v-29h-688v29h190l-238 549h-491l-227 -549h182v-29h-389zM862 606l-241 559l-230 -559h471z" />
    <glyph glyph-name="B" unicode="B" horiz-adv-x="1402" 
d="M260 29v1401h-188v28h309q56 0 170 4q29 0 86 1t84 1q69 0 134.5 -10t132.5 -34.5t116.5 -62t81 -98t31.5 -135.5q0 -67 -31 -123t-76.5 -91t-105 -61.5t-107.5 -39t-94 -18.5v-9q57 -4 110 -14t110.5 -28.5t104 -48.5t84.5 -70t59 -98t21 -128q0 -91 -40 -163
t-101 -115.5t-140 -72t-150 -39.5t-138 -11q-60 0 -170 4q-29 0 -86 1t-86 1h-309v29h188zM557 768v-739q55 -6 119 -6q71 0 118.5 15.5t87 57t58 121t18.5 201.5q0 31 -2.5 58t-10.5 71.5t-27 80t-48.5 69t-79.5 52.5t-114 19h-119zM557 1430v-633h84q51 0 92 9t68.5 23
t47.5 37t31 46.5t17.5 56t8 59.5t1.5 64q0 186 -55.5 265t-204.5 79q-14 0 -28.5 -1t-32.5 -2.5t-29 -2.5z" />
    <glyph glyph-name="C" unicode="C" horiz-adv-x="1478" 
d="M1346 1458v-418h-27q-15 47 -28 81.5t-35 81.5t-45 80.5t-58 69.5t-74 58t-92.5 36.5t-114.5 14.5q-84 0 -149 -19.5t-110.5 -51.5t-78 -86t-51 -110.5t-29 -139.5t-13.5 -157t-3 -177q0 -212 24 -351.5t78.5 -222t133.5 -116t198 -33.5q88 0 166 37t134 99.5t95 139
t58 160.5h33v-434h-33q-11 25 -25 34t-43 9q-23 0 -84.5 -18.5t-144 -37t-158.5 -18.5q-119 0 -233.5 37.5t-210 107.5t-168 162t-113.5 208.5t-41 240.5q0 134 46 256.5t123 213.5t175.5 159t207.5 102.5t214 34.5q74 0 152.5 -19t138.5 -38t88 -19q30 0 44 8.5t20 34.5h33
z" />
    <glyph glyph-name="D" unicode="D" horiz-adv-x="1669" 
d="M254 29v1401h-188v28h188q69 0 209 4q35 0 104.5 1t104.5 1q84 0 166 -9t173 -32t170 -58.5t152 -93.5t124.5 -132.5t82.5 -179.5t31 -230q0 -124 -31 -229t-82.5 -179t-123 -132t-147.5 -94t-161.5 -59.5t-160 -32.5t-146.5 -9q-80 0 -232 4q-39 0 -116.5 1t-116.5 1
h-188v29h188zM551 1430v-1401q59 -6 108 -6q110 0 198.5 24.5t148 63.5t103.5 97.5t68 116.5t38 131t18 129.5t4 123.5q0 143 -12.5 246t-48 198.5t-96.5 154.5t-161.5 93.5t-240.5 34.5q-86 0 -127 -6z" />
    <glyph glyph-name="E" unicode="E" horiz-adv-x="1478" 
d="M76 1430v28h1224v-350h-26q-8 25 -16.5 46.5t-26 56t-37 62.5t-51 58.5t-67 51t-84.5 34t-105 13.5h-326v-633h115q141 0 209 76.5t100 228.5h27v-637h-27q-12 53 -26 93.5t-37 81.5t-52.5 68t-73 43.5t-98.5 16.5h-137v-739h336q181 0 299 115.5t162 304.5h26v-449
h-1308v29h188v1401h-188z" />
    <glyph glyph-name="F" unicode="F" horiz-adv-x="1402" 
d="M264 29v1401h-188v28h1210v-350h-26q-32 80 -63.5 134t-77 99t-107 67t-142.5 22h-309v-660h115q141 0 209 76.5t100 228.5h27v-637h-27q-12 53 -26 93.5t-37 81.5t-52.5 68t-73 43.5t-98.5 16.5h-137v-712h191v-29h-676v29h188z" />
    <glyph glyph-name="G" unicode="G" horiz-adv-x="1593" 
d="M1339 1458v-418h-30q-112 425 -445 422q-64 0 -118 -12t-94.5 -33.5t-74 -52.5t-55.5 -68.5t-39.5 -81t-26.5 -91.5t-15.5 -98.5t-7.5 -102.5t-3 -104.5t0 -102.5v-18v-15.5v-17.5q0 -249 45.5 -394.5t138.5 -208.5t250 -63q73 0 125 23t82 59.5t47 96.5t22 119t5 142v78
h-211v29h633v-29h-133v-469h-37q-9 47 -68 47q-42 0 -93 -19.5t-94.5 -43t-119 -43t-160.5 -19.5q-119 0 -233.5 37.5t-210 107.5t-168 162t-113.5 208.5t-41 240.5q0 134 46 256.5t123 213.5t175.5 159t207.5 102.5t214 34.5q72 0 151 -19t140 -38t88 -19t40 9t24 34h34z
" />
    <glyph glyph-name="H" unicode="H" horiz-adv-x="1705" 
d="M72 1430v28h673v-28h-188v-672h592v672h-188v28h673v-28h-188v-1401h188v-29h-673v29h188v700h-592v-700h188v-29h-673v29h188v1401h-188z" />
    <glyph glyph-name="I" unicode="I" horiz-adv-x="833" 
d="M80 1430v28h674v-28h-189v-1401h189v-29h-674v29h188v1401h-188z" />
    <glyph glyph-name="J" unicode="J" horiz-adv-x="1024" 
d="M778 1430v-1012q0 -30 -0.5 -51t-4.5 -59t-11 -66t-21.5 -65.5t-34.5 -64.5t-51.5 -55.5t-71 -46.5t-94.5 -29.5t-120 -11.5q-46 0 -89 6t-86.5 21.5t-75.5 39.5t-52.5 63.5t-20.5 90.5q0 14 1 25.5t9.5 36t24 41t48.5 30t79 13.5q125 0 125 -98q0 -20 -14.5 -84
t-14.5 -74q0 -82 90 -82q21 0 37 6t25 18t15 23.5t8 30t2.5 29t0.5 28.5v1297h-188v28h674v-28h-189z" />
    <glyph glyph-name="K" unicode="K" horiz-adv-x="1593" 
d="M86 1430v28h674v-28h-189v-656h17l626 656h-206v28h409v-28h-164l-456 -480l708 -921h127v-29h-684v29h185l-545 716h-17v-716h189v-29h-674v29h188v1401h-188z" />
    <glyph glyph-name="L" unicode="L" horiz-adv-x="1478" 
d="M94 1430v28h674v-28h-188v-1401h338q70 0 136 23.5t128 73t110.5 136t73.5 201.5h27v-463h-1299v29h189v1401h-189z" />
    <glyph glyph-name="M" unicode="M" horiz-adv-x="1896" 
d="M70 1430v28h526l354 -1020h4l361 1020h512v-28h-189v-1401h189v-29h-672v29h186v1401h-4l-503 -1430h-33l-506 1430h-4v-1401h188v-29h-409v29h188v1401h-188z" />
    <glyph glyph-name="N" unicode="N" horiz-adv-x="1517" 
d="M70 1430v28h483l682 -975h4v947h-188v28h409v-28h-188v-1430h-55l-922 1313h-4v-1284h188v-29h-409v29h188v1401h-188z" />
    <glyph glyph-name="O" unicode="O" horiz-adv-x="1705" 
d="M86 725q0 112 32.5 217t88.5 188t131 151.5t160.5 114t176.5 70.5t179 25q143 0 280 -54t245 -150t174.5 -241.5t66.5 -314.5q0 -151 -63 -291.5t-166.5 -243.5t-245 -165t-291.5 -62q-149 0 -289.5 59.5t-246 159.5t-169 241.5t-63.5 295.5zM420 725q0 -214 24 -354
t78.5 -223t133.5 -116.5t198 -33.5q66 0 121 12t96.5 32.5t74 54.5t55 70.5t38 90t25 102.5t14.5 117.5t6.5 127t1.5 138.5q0 74 -1 126t-6 118.5t-13.5 112.5t-24 99.5t-37.5 89.5t-55 71t-74.5 56t-97.5 33.5t-123 12.5q-81 0 -144.5 -19t-109 -51.5t-78 -85t-52 -110
t-31 -138t-15.5 -157t-4 -176.5z" />
    <glyph glyph-name="P" unicode="P" horiz-adv-x="1327" 
d="M555 694v-665h188v-29h-673v29h188v1401h-188v28h188q69 0 209 4q35 0 104.5 1t104.5 1q81 0 158 -9t161 -35.5t145.5 -67.5t101.5 -111t40 -160q0 -169 -164.5 -278t-478.5 -109h-84zM555 1430v-707h63q176 0 253 79t77 267q0 187 -70.5 277t-242.5 90q-11 0 -80 -6z
" />
    <glyph glyph-name="Q" unicode="Q" horiz-adv-x="1705" 
d="M1505 -410v-28q-122 6 -195 12t-143 18.5t-108.5 28t-78 45t-65.5 65t-59 91.5q-43 73 -121 160q-132 20 -250.5 86.5t-206.5 163t-140 225.5t-52 268q0 112 32.5 217t88.5 188t131 151.5t160.5 114t176.5 70.5t179 25q143 0 280 -54t245 -150t174.5 -241.5t66.5 -314.5
q0 -151 -63 -291.5t-166.5 -243.5t-245 -165t-291.5 -62q-40 0 -70 6q42 -43 90.5 -59.5t174.5 -28.5q93 -8 147 -51.5t98 -122.5q17 -30 25 -43.5t22.5 -31.5t26 -24t32 -13.5t45 -9t60.5 -1.5zM420 725q0 -214 24 -354t78.5 -223t133.5 -116.5t198 -33.5q66 0 121 12
t96.5 32.5t74 54.5t55 70.5t38 90t25 102.5t14.5 117.5t6.5 127t1.5 138.5q0 74 -1 126t-6 118.5t-13.5 112.5t-24 99.5t-37.5 89.5t-55 71t-74.5 56t-97.5 33.5t-123 12.5q-81 0 -144.5 -19t-109 -51.5t-78 -85t-52 -110t-31 -138t-15.5 -157t-4 -176.5z" />
    <glyph glyph-name="R" unicode="R" horiz-adv-x="1478" 
d="M260 29v1401h-188v28h309q56 0 170 4q29 0 86 1t84 1q69 0 135 -10t134 -35.5t118.5 -63.5t82.5 -100.5t32 -140.5t-36.5 -139t-97.5 -97t-128.5 -55.5t-141.5 -25.5v-11q183 -32 251 -59q116 -46 161 -147q29 -65 37 -164q21 -260 30 -309q14 -70 49 -84q16 -7 42 -7
q13 0 26 3.5t21.5 7.5t20.5 13.5t16.5 13.5t16 16t13.5 14l21 -18q-30 -30 -41.5 -40t-41 -27.5t-66.5 -23.5t-91 -6q-49 0 -90 8t-71 20.5t-54 34t-39.5 40.5t-27 49t-17.5 51t-10 55t-5.5 52.5t-2.5 50.5q-2 48 -3.5 74.5t-6 70.5t-10 68.5t-16 60t-24 56t-33.5 44
t-46 35.5t-60 20.5t-76 8.5h-135v-739h188v-29h-673v29h188zM557 1430v-633h84q51 0 92 9t68.5 23t47.5 37t31 46.5t17.5 56t8 59.5t1.5 64q0 186 -55.5 265t-204.5 79q-14 0 -28.5 -1t-32.5 -2.5t-29 -2.5z" />
    <glyph glyph-name="S" unicode="S" horiz-adv-x="1327" 
d="M129 0v455h31q14 -76 53 -168.5t113 -165.5q36 -35 74 -59.5t67 -37t66 -18.5t56.5 -7t53.5 -1q82 0 147.5 23t104 57.5t64.5 79t35.5 83.5t9.5 74q0 65 -29 113.5t-77.5 78.5t-112 53.5t-133.5 43.5t-140 42.5t-133.5 56.5t-112 80t-77.5 119t-29 167q0 81 37 157.5
t100.5 135t157 94t198.5 35.5q78 0 146.5 -19t115 -38t70.5 -19q27 0 37.5 8.5t19.5 34.5h33v-389h-26q-25 76 -40.5 115.5t-50 101.5t-71.5 94t-98 57t-138 25q-153 0 -245.5 -78.5t-92.5 -177.5q0 -60 30 -106.5t81 -77t117 -55.5t139 -47t145.5 -46t138.5 -58.5
t117 -79.5t81 -113.5t30 -155.5q0 -100 -42 -191t-115 -159t-179.5 -108t-228.5 -40q-73 0 -161.5 19.5t-154.5 39t-86 19.5q-27 0 -39.5 -9.5t-23.5 -37.5h-33z" />
    <glyph glyph-name="T" unicode="T" horiz-adv-x="1443" 
d="M573 29v1401h-73q-80 0 -136.5 -15t-106 -53.5t-85.5 -106.5t-66 -172h-26v375h1284v-375h-27q-30 104 -66 172t-85 106.5t-105.5 53.5t-136.5 15h-74v-1401h189v-29h-674v29h188z" />
    <glyph glyph-name="U" unicode="U" horiz-adv-x="1593" 
d="M66 1430v28h675v-28h-188v-920q0 -62 2.5 -109t10.5 -103t21.5 -96.5t38.5 -81t59.5 -66t85 -41t114.5 -15.5q71 0 131 12.5t102.5 32t76 51t55 60.5t37 69t22.5 68.5t11 68.5t4.5 59t0.5 48v963h-186v28h409v-28h-190v-961q0 -43 -1 -71t-10.5 -85.5t-27 -97.5t-54 -90
t-87 -81t-131 -53t-181.5 -22q-112 0 -202 15.5t-153 41.5t-109.5 65t-74 80.5t-44 95t-22 101.5t-5.5 105v957h-190z" />
    <glyph glyph-name="V" unicode="V" horiz-adv-x="1478" 
d="M-37 1430v28h686v-28h-196l424 -1111l432 1111h-185v28h392v-28h-177l-577 -1487h-60l-565 1487h-174z" />
    <glyph glyph-name="W" unicode="W" horiz-adv-x="2123" 
d="M-25 1430v28h629v-28h-149l368 -1080h4l215 611l-159 469h-111v28h612v-28h-190l371 -1082h4l379 1082h-176v28h376v-28h-166l-526 -1487h-59l-336 970h-4l-344 -970h-60l-508 1487h-170z" />
    <glyph glyph-name="X" unicode="X" horiz-adv-x="1554" 
d="M20 1430v28h687v-28h-168l299 -508l319 508h-176v28h371v-28h-160l-336 -537l528 -864h170v-29h-702v29h182l-372 616l-381 -616h184v-29h-389v29h168l399 647l-459 754h-164z" />
    <glyph glyph-name="Y" unicode="Y" horiz-adv-x="1441" 
d="M-33 1430v28h662v-28h-162l418 -715l377 715h-179v28h392v-28h-179l-395 -752v-649h191v-29h-676v29h188v571l-475 830h-162z" />
    <glyph glyph-name="Z" unicode="Z" horiz-adv-x="1402" 
d="M70 0l823 1430h-285q-81 0 -143 -21t-108.5 -66t-78.5 -97t-67 -130h-27v342h1061l-827 -1429h370q84 0 157.5 23.5t139 73t115 135.5t74.5 202h26v-463h-1230z" />
    <glyph glyph-name="bracketleft" unicode="[" horiz-adv-x="530" 
d="M199 -573v2031h250v-41h-209v-1949h209v-41h-250z" />
    <glyph glyph-name="backslash" unicode="\" horiz-adv-x="606" 
d="M47 1470l553 -1470l-41 -12l-553 1470z" />
    <glyph glyph-name="bracketright" unicode="]" horiz-adv-x="530" 
d="M332 1458v-2031h-250v41h209v1949h-209v41h250z" />
    <glyph glyph-name="asciicircum" unicode="^" horiz-adv-x="1214" 
d="M244 625l354 833h18l353 -833h-43l-320 755l-317 -755h-45z" />
    <glyph glyph-name="underscore" unicode="_" horiz-adv-x="1024" 
d="M0 -217v63h1024v-63h-1024z" />
    <glyph glyph-name="grave" unicode="`" horiz-adv-x="569" 
d="M193 1444l180 -361h-27l-289 308q-18 20 -18 55q0 28 23 44.5t44 16.5q25 0 43.5 -10.5t26.5 -22.5t17 -30z" />
    <glyph glyph-name="a" unicode="a" horiz-adv-x="1062" 
d="M1020 51l18 -18q-26 -39 -72.5 -50.5t-111.5 -11.5q-191 0 -217 142h-4q-32 -82 -88.5 -112t-167.5 -30q-53 0 -101.5 10.5t-92.5 32.5t-70.5 64t-26.5 98q0 33 8.5 62t21 49.5t35 39.5t42 31t51.5 25t54 20.5t58 18.5q177 54 223 83.5t46 102.5v125q0 63 -29 104.5
t-98 41.5q-117 0 -117 -101q0 -6 6 -54t6 -58q0 -84 -125 -84q-52 0 -85 21t-33 83q0 102 104 161.5t246 59.5q66 0 119 -7.5t102 -27.5t81.5 -52t52 -83.5t19.5 -118.5v-507q0 -46 14 -72.5t54 -26.5q42 0 78 39zM625 238v270h-4q-6 -25 -56 -49q-11 -5 -34 -15.5
t-35 -16.5t-32.5 -17t-31.5 -20t-26.5 -23t-24 -28.5t-17.5 -33.5t-12.5 -42t-3.5 -50q0 -195 133 -195q59 0 101.5 54.5t42.5 165.5z" />
    <glyph glyph-name="b" unicode="b" horiz-adv-x="1214" 
d="M199 29v1419h-136v29h386v-742h4q64 172 237 172q91 0 167 -30.5t126.5 -79t86 -111t51.5 -125t16 -121.5q0 -122 -55.5 -229t-159 -173.5t-232.5 -66.5q-171 0 -241 181h-5v-152h-381v29h136zM449 438q0 -45 1 -79t6.5 -82.5t15 -84t27.5 -73.5t43 -62.5t63 -40.5
t85 -16q37 0 65 13.5t46.5 42t30.5 63t18 88t8 106t2 125.5q0 247 -41 344t-145 97q-42 0 -76 -15.5t-57.5 -40t-40.5 -61t-26.5 -74t-15.5 -84t-7.5 -84.5t-1.5 -82z" />
    <glyph glyph-name="c" unicode="c" horiz-adv-x="985" 
d="M72 440q0 61 20.5 125.5t63 125.5t101 109.5t141.5 77.5t177 29q154 0 251.5 -62.5t97.5 -164.5q0 -65 -33.5 -94t-99.5 -29q-127 0 -127 90q0 11 15 72t15 72q0 40 -35 64t-90 24q-48 0 -84 -15t-60 -45t-39.5 -66.5t-23.5 -88t-11 -100t-3 -111.5q0 -52 1.5 -92
t7.5 -89.5t16.5 -86t30 -73.5t46 -60t65.5 -37.5t89 -14.5q63 0 116.5 20t86 48.5t56.5 63.5t34.5 61t13.5 45l29 -11q-9 -33 -22.5 -63.5t-42 -67t-66.5 -63t-98 -44.5t-133 -18q-28 0 -62 4t-84.5 16.5t-97.5 32.5t-96 56.5t-84.5 83.5t-58.5 118.5t-23 157.5z" />
    <glyph glyph-name="d" unicode="d" horiz-adv-x="1214" 
d="M1016 1477v-1448h135v-29h-381v152h-4q-70 -181 -242 -181q-129 0 -232.5 66.5t-158.5 173t-55 229.5q0 59 15.5 121.5t51 125t86 111t126.5 79t167 30.5q174 0 238 -172h4v713h-139v29h389zM766 438q0 44 -1.5 82t-7.5 84.5t-15.5 84t-26.5 74t-40.5 61t-57.5 40
t-76 15.5q-71 0 -111 -42t-58 -137t-18 -262q0 -73 2 -125.5t8 -106t18 -88t30.5 -63t46.5 -42t65 -13.5q47 0 85 16t63 40.5t43 62.5t28 74t15 84t6.5 82t1.5 79z" />
    <glyph glyph-name="e" unicode="e" horiz-adv-x="1024" 
d="M952 514h-604v-92q0 -58 2.5 -100t10.5 -95.5t25.5 -90t45 -69.5t72.5 -50t104 -17q61 0 113.5 20.5t85.5 49.5t57 64t34.5 61t12.5 43l29 -11q-9 -33 -25 -65.5t-46 -68t-68.5 -61.5t-96.5 -43.5t-126 -17.5q-219 0 -362.5 128t-143.5 343q0 117 63 224t174 174t240 67
q58 0 114 -13.5t109 -44.5t92.5 -75.5t63.5 -111.5t24 -148zM348 543h328v137q0 21 -1 35t-4 41t-12 45.5t-22.5 38t-37.5 29.5t-56 10q-30 0 -55 -7.5t-43 -18t-33 -31.5t-24 -36.5t-16.5 -46t-11 -47t-6.5 -52t-3.5 -48.5t-2.5 -49z" />
    <glyph glyph-name="f" unicode="f" horiz-adv-x="720" 
d="M78 850v29h135q0 78 1 120t8.5 117t22.5 118t44.5 98.5t72 85.5t108.5 51.5t151 21.5q65 0 121 -19.5t95.5 -66t39.5 -113.5q0 -47 -34.5 -79.5t-82.5 -32.5q-109 0 -109 104q0 10 8.5 55t8.5 52q0 35 -25.5 53t-62.5 18q-28 0 -49 -9t-33.5 -30t-20 -40t-10.5 -56.5
t-3.5 -60.5t-0.5 -70v-317h170v-29h-170v-821h158v-29h-543v29h135v821h-135z" />
    <glyph glyph-name="g" unicode="g" horiz-adv-x="1099" 
d="M360 145h226q82 0 148.5 -15.5t123 -51t88 -101t31.5 -157.5q0 -80 -34 -155.5t-94.5 -135.5t-153.5 -96.5t-203 -36.5q-97 0 -171 19.5t-114.5 47t-65.5 64t-32 64.5t-7 55q0 52 25 97t66 76.5t86.5 53.5t95.5 35v4q-47 0 -94.5 10.5t-95 34t-77.5 69t-30 107.5
q0 17 5.5 39.5t22 59t57.5 76.5t101 73q-26 20 -42 34.5t-39.5 42t-35.5 63t-12 77.5q0 130 109.5 219.5t290.5 89.5q151 0 272 -94q59 53 98.5 73.5t102.5 20.5q58 0 88 -28.5t30 -77.5q0 -41 -24.5 -64.5t-65.5 -23.5q-27 0 -45.5 7t-27 20t-12 22.5t-5.5 23.5
q-7 44 -14 51t-21 7q-22 0 -86 -47q23 -25 37 -43.5t29.5 -61.5t15.5 -94q0 -53 -20.5 -102t-62.5 -91t-115.5 -67t-169.5 -25q-137 0 -250 49q-37 -24 -56 -47t-21.5 -35.5t-2.5 -33.5q0 -50 40 -75.5t111 -25.5zM524 342q39 0 65.5 9.5t49 36.5t33 80.5t10.5 135.5
q0 54 -2.5 90t-11.5 74.5t-25.5 60t-46.5 36t-72 14.5q-50 0 -84 -20.5t-50.5 -58t-23 -78t-6.5 -93.5q0 -93 11.5 -153t36 -88t50.5 -37t66 -9zM287 -322q0 -42 11.5 -81t37.5 -78.5t79 -63.5t126 -24q120 0 207.5 79.5t87.5 198.5q0 57 -20 98.5t-53 62t-66 29.5t-68 9
h-213q-68 -55 -98.5 -104.5t-30.5 -125.5z" />
    <glyph glyph-name="h" unicode="h" horiz-adv-x="1290" 
d="M76 0v29h135v1419h-135v29h385v-795h4q38 77 79 118q97 97 259 97q131 0 207.5 -79t76.5 -212v-577h138v-29h-514v29h127v647q0 82 -34.5 124t-94.5 42q-105 0 -176.5 -98t-71.5 -277v-438h129v-29h-514z" />
    <glyph glyph-name="i" unicode="i" horiz-adv-x="645" 
d="M74 850v29h387v-850h137v-29h-524v29h137v821h-137zM190 1319q0 60 43 102.5t103 42.5t102.5 -42.5t42.5 -102.5t-42.5 -102.5t-102.5 -42.5t-103 42.5t-43 102.5z" />
    <glyph glyph-name="j" unicode="j" horiz-adv-x="681" 
d="M244 -434v1284h-138v29h388v-967q0 -88 -11 -161t-36 -137t-64 -108t-97.5 -69t-133.5 -25q-110 0 -182 47t-72 127q0 60 32.5 87.5t81.5 27.5q51 0 80 -23.5t29 -66.5q0 -16 -8.5 -53.5t-8.5 -51.5t1.5 -22t6.5 -20t20 -17.5t38 -5.5q40 0 57 25t17 100zM223 1319
q0 60 43 102.5t103 42.5t102.5 -42.5t42.5 -102.5t-42.5 -102.5t-102.5 -42.5t-103 42.5t-43 102.5z" />
    <glyph glyph-name="k" unicode="k" horiz-adv-x="1214" 
d="M72 1448v29h385v-977h10l381 350h-150v29h322v-29h-131l-230 -217l469 -604h80v-29h-542v29h147l-346 442h-10v-442h127v-29h-512v29h135v1419h-135z" />
    <glyph glyph-name="l" unicode="l" horiz-adv-x="645" 
d="M74 1448v29h387v-1448h137v-29h-524v29h137v1419h-137z" />
    <glyph glyph-name="m" unicode="m" horiz-adv-x="1820" 
d="M86 850v29h381v-146h4q14 22 25.5 38t37.5 42t54.5 42.5t72.5 29t95 12.5q69 0 119 -13.5t82.5 -41.5t48.5 -50t36 -59q29 51 68 86t79 50.5t70.5 21.5t59.5 6q50 0 92.5 -8t72.5 -19.5t54 -31t39 -37.5t25.5 -44.5t16 -44.5t8 -46t3 -41.5t0.5 -36.5v-559h135v-29h-505
v29h120v635q0 89 -32.5 133.5t-104.5 44.5q-25 0 -56 -12.5t-62.5 -36.5t-52.5 -66t-21 -94v-604h120v-29h-493v29h123v651q0 83 -36 122.5t-89 39.5q-82 0 -144 -72q-34 -41 -47.5 -92t-13.5 -150v-499h121v-29h-506v29h135v821h-135z" />
    <glyph glyph-name="n" unicode="n" horiz-adv-x="1290" 
d="M86 0v29h135v821h-135v29h381v-205h4q12 26 21 44t38.5 55.5t63.5 61t92 43t127 19.5q131 0 208 -79t77 -212v-577h137v-29h-514v29h127v647q0 82 -34.5 124t-94.5 42q-105 0 -176.5 -98t-71.5 -277v-438h129v-29h-514z" />
    <glyph glyph-name="o" unicode="o" 
d="M569 907q138 0 253.5 -64t181 -171t65.5 -232q0 -192 -145 -330.5t-355 -138.5q-138 0 -253.5 64t-180.5 171.5t-65 233.5q0 125 65 232t180.5 171t253.5 64zM569 0q44 0 79 13.5t58.5 34.5t40 56.5t25.5 69t14 83.5t6 88.5t1 94.5t-1 94t-6 88t-14 83.5t-25.5 69
t-40 56.5t-58.5 34.5t-79 13.5t-79 -13.5t-58.5 -34.5t-40 -56.5t-25 -69t-13.5 -83.5t-6 -88t-1 -94q0 -57 1 -95t6 -88t13.5 -83.5t25 -69t40 -56.5t58.5 -34.5t79 -13.5z" />
    <glyph glyph-name="p" unicode="p" horiz-adv-x="1214" 
d="M199 -545v1395h-136v29h381v-152h5q65 180 241 180q91 0 167 -30.5t126.5 -79t86 -111t51.5 -125t16 -121.5q0 -122 -55.5 -229t-159 -173.5t-232.5 -66.5q-88 0 -147.5 48.5t-89.5 127.5h-4v-692h139v-28h-525v28h136zM449 438q0 -45 1 -79t6.5 -82.5t15 -84t27.5 -73.5
t43 -62.5t63 -40.5t85 -16q37 0 65 13.5t46.5 42t30.5 63t18 88t8 106t2 125.5q0 247 -41 344t-145 97q-42 0 -76 -15.5t-57.5 -40t-40.5 -61t-26.5 -74t-15.5 -84t-7.5 -84.5t-1.5 -82z" />
    <glyph glyph-name="q" unicode="q" horiz-adv-x="1214" 
d="M1016 850v-1395h135v-28h-524v28h139v692h-4q-30 -79 -90 -127.5t-148 -48.5q-129 0 -232.5 66.5t-158.5 173t-55 229.5q0 59 15.5 121.5t51 125t86 111t126.5 79t167 30.5q177 0 242 -180h4v152h381v-29h-135zM766 438q0 44 -1.5 82t-7.5 84.5t-15.5 84t-26.5 74
t-40.5 61t-57.5 40t-76 15.5q-71 0 -111 -42t-58 -137t-18 -262q0 -73 2 -125.5t8 -106t18 -88t30.5 -63t46.5 -42t65 -13.5q47 0 85 16t63 40.5t43 62.5t28 74t15 84t6.5 82t1.5 79z" />
    <glyph glyph-name="r" unicode="r" horiz-adv-x="909" 
d="M84 850v29h379v-172h4q90 190 264 190q86 0 139.5 -47t53.5 -127q0 -131 -125 -131q-53 0 -89 21t-36 71q0 9 7 54t7 48t-0.5 6.5t-3 12t-6.5 15t-14 11.5t-23 5q-52 0 -113 -82.5t-61 -200.5v-524h162v-29h-545v29h133v821h-133z" />
    <glyph glyph-name="s" unicode="s" horiz-adv-x="872" 
d="M90 0v297h29q24 -59 39 -91.5t44 -78t58 -69t74 -41t100 -17.5q182 0 182 158q0 47 -31.5 84t-129.5 73l-166 62q-187 71 -187 237q0 122 94.5 207.5t241.5 85.5q60 0 134.5 -25.5t82.5 -25.5q30 0 39 27h29v-250h-27l-21 49.5t-20.5 44.5t-24 43t-27 35.5t-33.5 31.5
t-39 22t-49 15.5t-58 4.5q-73 0 -126.5 -37.5t-53.5 -104.5q0 -14 2 -26t10.5 -29t23.5 -31.5t44 -31t69 -29.5l174 -60q226 -78 226 -264q0 -130 -105 -212.5t-246 -82.5q-56 0 -162 29t-124 29q-16 0 -23 -6.5t-14 -22.5h-29z" />
    <glyph glyph-name="t" unicode="t" horiz-adv-x="757" 
d="M207 879v264q74 -29 125 -29t125 29v-264h239v-29h-239v-686q0 -72 22 -112t86 -40q120 0 170 181l31 -7q-40 -215 -272 -215q-47 0 -85.5 5.5t-66.5 14t-50 23.5t-36 28t-24 33.5t-14.5 35t-7 38t-3 36t-0.5 34.5v631h-137v29h137z" />
    <glyph glyph-name="u" unicode="u" horiz-adv-x="1251" 
d="M55 850v29h387v-650q0 -84 33.5 -135t106.5 -51q93 0 152 81.5t59 197.5v528h-136v29h385v-850h136v-29h-381v166h-4q-32 -85 -120 -134.5t-186 -49.5q-147 0 -220.5 65.5t-73.5 210.5v592h-138z" />
    <glyph glyph-name="v" unicode="v" horiz-adv-x="948" 
d="M-29 850v29h537v-29h-148l252 -567l224 567h-158v29h287v-29h-95l-362 -907h-16l-408 907h-113z" />
    <glyph glyph-name="w" unicode="w" horiz-adv-x="1517" 
d="M467 -57l-356 907h-123v29h522v-29h-133l211 -533l162 437l-41 96h-105v29h512v-29h-137l211 -533l196 533h-143v29h277v-29h-101l-336 -907h-14l-303 768l-285 -768h-14z" />
    <glyph glyph-name="x" unicode="x" horiz-adv-x="1024" 
d="M6 850v29h537v-29h-125l174 -287l209 287h-137v29h288v-29h-114l-226 -313l322 -508h84v-29h-522v29h141l-203 317l-227 -317h158v-29h-334v29h137l248 344l-305 477h-105z" />
    <glyph glyph-name="y" unicode="y" horiz-adv-x="985" 
d="M362 850l250 -592l260 592h-170v29h297v-29h-94q-173 -374 -334 -778.5t-198 -481.5q-43 -92 -96 -135t-134 -43q-93 0 -152 45t-59 121q0 56 36.5 84.5t94.5 28.5q42 0 75.5 -23t33.5 -63q0 -25 -13.5 -59t-13.5 -54q0 -22 11.5 -33.5t29.5 -11.5q29 0 56.5 19t47 43
t41.5 65t33 67t27 66l88 219l-385 924h-110v29h522v-29h-144z" />
    <glyph glyph-name="z" unicode="z" horiz-adv-x="948" 
d="M70 0l497 850h-182q-54 0 -93.5 -12.5t-69.5 -42t-51.5 -65.5t-47.5 -95h-23l31 244h731l-495 -850h249q36 0 66.5 8.5t52 19.5t41 33.5t31 39t25.5 49t20 50t18 54.5h23l-23 -283h-800z" />
    <glyph glyph-name="braceleft" unicode="{" horiz-adv-x="757" 
d="M690 1458v-37q-49 -2 -89 -11.5t-69.5 -22.5t-52.5 -34.5t-37.5 -40.5t-25 -49t-16 -51.5t-8 -56t-3 -54t-0.5 -54.5v-160q0 -179 -13 -251t-57 -116q-63 -63 -192 -78q130 -15 192 -77q44 -44 57 -116t13 -251v-160q0 -35 0.5 -54.5t3 -54t8 -56t16 -51.5t25 -49
t37.5 -41t52.5 -35t69.5 -22.5t89 -11.5v-36q-104 8 -157 30q-36 15 -64 37q-30 23 -51 48t-34 58t-20.5 59.5t-11 73t-4 76t-0.5 89.5v219q0 79 -9.5 126.5t-39.5 87t-84 63t-145 42.5v13q91 19 145 42.5t84 63t39.5 87t9.5 126.5v219q0 60 0.5 89.5t4 76t11 73t20.5 59.5
t34 58t51 48q69 55 211 66q7 1 10 1z" />
    <glyph glyph-name="bar" unicode="|" horiz-adv-x="454" 
d="M207 -512v2048h41v-2048h-41z" />
    <glyph glyph-name="braceright" unicode="}" horiz-adv-x="757" 
d="M70 -573v36q49 2 89 11.5t69.5 22.5t52.5 35t37.5 41t25 49t16 51.5t8 56t3 54t0.5 54.5v160q0 181 12.5 252t56.5 115q62 62 193 77q-130 15 -193 78q-44 44 -56.5 115t-12.5 252v160q0 35 -0.5 54.5t-3 54t-8 56t-16 51.5t-25 49t-37.5 40.5t-52.5 34.5t-69.5 22.5
t-89 11.5v37q104 -8 157 -30q36 -15 64 -37q30 -23 51 -48t34 -58t20.5 -59.5t11 -73t4 -76t0.5 -89.5v-219q0 -79 9.5 -126.5t39.5 -87t84 -63t145 -42.5v-13q-91 -19 -145 -42.5t-84 -63t-39.5 -87t-9.5 -126.5v-219q0 -60 -0.5 -89.5t-4 -76t-11 -73t-20.5 -59.5t-34 -58
t-51 -48q-69 -55 -211 -66q-7 -1 -10 -1z" />
    <glyph glyph-name="asciitilde" unicode="~" horiz-adv-x="1214" 
d="M1145 655h37q-8 -26 -14 -43t-19.5 -49t-27 -53.5t-36 -48.5t-47.5 -43t-59.5 -27.5t-73.5 -11.5q-58 0 -176 45l-250 96q-112 45 -178 45q-43 0 -79.5 -18t-57 -35t-43 -59t-27.5 -54.5t-20 -56.5q-3 -7 -4 -10h-37q8 28 13.5 45t19 49t26.5 53t35.5 47.5t47.5 42
t61 26.5t77 11q54 0 179 -43l253 -96q121 -47 168 -47q155 0 232 235z" />
    <glyph glyph-name="uni00A0" unicode="&#xa0;" horiz-adv-x="569" 
 />
    <glyph glyph-name="exclamdown" unicode="&#xa1;" horiz-adv-x="606" 
d="M324 475l98 -813q14 -119 14 -127q0 -62 -36.5 -100.5t-96.5 -38.5t-96.5 38.5t-36.5 100.5q0 8 14 127l99 813h41zM449 762q0 -60 -43 -103t-103 -43t-102.5 43t-42.5 103t42.5 102.5t102.5 42.5t103 -42.5t43 -102.5z" />
    <glyph glyph-name="cent" unicode="&#xa2;" horiz-adv-x="1064" 
d="M365 -188l55 190q-60 19 -114.5 54t-102.5 88t-76.5 129.5t-28.5 166.5q0 77 34 158t95 150.5t159.5 114t215.5 44.5q49 0 72 -6l49 172l29 -6l-47 -168q112 -21 178.5 -78.5t66.5 -140.5q0 -65 -33.5 -94t-99.5 -29q-127 0 -127 90q0 11 15.5 72t15.5 72q0 37 -31 61
l-223 -791q61 -61 164 -61q63 0 116.5 20t86 48.5t56.5 63.5t34.5 61t13.5 45l29 -11q-9 -33 -22.5 -63.5t-42.5 -67t-66.5 -63t-98 -44.5t-133.5 -18q-71 0 -158 23l-53 -189zM444 90l220 774q-24 15 -68 15q-48 0 -84 -15t-60 -45t-39.5 -66.5t-23.5 -88t-11 -100
t-3 -111.5q0 -124 13.5 -214t55.5 -149z" />
    <glyph glyph-name="sterling" unicode="&#xa3;" horiz-adv-x="1212" 
d="M78 772v29h196q-73 121 -73 254q0 96 44.5 179t117 138.5t163 87t183.5 31.5q90 0 163 -26t114.5 -66t63 -83t21.5 -83q0 -60 -31.5 -83.5t-93.5 -23.5q-119 0 -119 93q0 11 9.5 64t9.5 83q0 38 -32.5 67t-90.5 29q-246 0 -246 -391q0 -219 10 -270h316v-29h-318
q29 -266 29 -391q0 -47 -14 -143q198 -31 342 -31q79 0 121 3t71 16.5t40.5 27.5t33.5 49l27 -8q-18 -42 -29 -66t-35 -69t-48.5 -72.5t-59 -57.5t-77.5 -44.5t-93 -14.5q-48 0 -92 11t-90 37.5t-72 44t-76 55.5q-48 -63 -91.5 -91t-119.5 -28q-67 0 -113.5 33t-46.5 102
q0 41 17 69.5t45.5 42.5t57 19.5t60.5 5.5q26 0 52.5 -3t42 -5.5t50 -10t52.5 -11.5q6 24 6 49q0 94 -36 182t-148 299h-213zM442 137q-73 66 -114.5 86.5t-89.5 20.5q-49 0 -83 -30t-34 -81q0 -46 38.5 -75t92.5 -29q70 0 108 24.5t82 83.5z" />
    <glyph glyph-name="currency" unicode="&#xa4;" 
d="M131 319l129 132q-106 120 -106 280q0 75 28 150t80 131l-131 131l27 26l131 -131q125 109 280 109q154 0 279 -109l133 131l27 -26l-131 -131q108 -124 108 -281q0 -160 -108 -280l131 -132l-27 -26l-133 131q-58 -55 -133 -82t-148 -27q-53 0 -99.5 11t-83 32t-54.5 34
t-41 32l-131 -131zM195 731q0 -155 109.5 -265t264.5 -110t265 110t110 265t-110 265t-265 110t-264.5 -110t-109.5 -265z" />
    <glyph glyph-name="yen" unicode="&#xa5;" 
d="M463 29v546h-365v35h357l-97 215h-260v35h246l-254 570h-160v28h635v-28h-162l322 -773l276 773h-178v28h385v-28h-172l-198 -570h278v-35h-289l-75 -215h364v-35h-366v-546h190v-29h-666v29h189z" />
    <glyph glyph-name="brokenbar" unicode="&#xa6;" horiz-adv-x="454" 
d="M207 -358v716h41v-716h-41zM207 666v716h41v-716h-41z" />
    <glyph glyph-name="section" unicode="&#xa7;" 
d="M557 985l274 -172q177 -107 177 -283q0 -62 -18 -118.5t-51.5 -104t-62.5 -79.5t-69 -68q81 -67 124.5 -139.5t43.5 -180.5q0 -66 -30 -136.5t-85 -133t-144 -103t-194 -40.5q-87 0 -155.5 20t-108.5 50t-66.5 68.5t-35.5 71t-9 62.5q0 115 129 115q43 0 77 -19.5
t34 -62.5q0 -31 -23.5 -74t-23.5 -72q0 -59 55 -95t133 -36q68 0 121 27.5t83 71.5t45.5 92.5t15.5 95.5q0 62 -24.5 111t-61.5 81.5t-101 71.5l-278 168q-105 67 -151 140.5t-46 185.5q0 64 21.5 123t56 102.5t62.5 70.5t57 48q-57 55 -90 114.5t-33 151.5q0 68 28.5 134
t81.5 122t140 90.5t192 34.5q140 0 231 -62t91 -169q0 -24 -2 -38t-11.5 -36t-34.5 -33.5t-65 -11.5q-117 0 -117 84q0 29 22.5 71t22.5 72q0 50 -45.5 72t-103.5 22q-60 0 -107.5 -19t-74 -46t-44 -61t-23 -60t-5.5 -47q0 -135 176 -244zM238 649q0 -129 184 -243l246 -154
l114 -76q21 17 32.5 28t31 36t29.5 56.5t10 68.5q0 121 -146 213q-29 18 -122.5 75t-153.5 96t-113 78q-30 -27 -43 -39.5t-33 -37t-28 -48.5t-8 -53z" />
    <glyph glyph-name="dieresis" unicode="&#xa8;" horiz-adv-x="569" 
d="M-25 1319q0 54 38.5 92.5t92.5 38.5t93 -38.5t39 -92.5t-39 -92.5t-93 -38.5t-92.5 38.5t-38.5 92.5zM332 1319q0 54 38.5 92.5t92.5 38.5t92.5 -38.5t38.5 -92.5t-38.5 -92.5t-92.5 -38.5t-92.5 38.5t-38.5 92.5z" />
    <glyph glyph-name="copyright" unicode="&#xa9;" horiz-adv-x="1705" 
d="M92 731q0 154 60 294.5t162 242.5t242.5 162.5t295.5 60.5q154 0 294.5 -60.5t242.5 -162.5t162.5 -242.5t60.5 -294.5t-60.5 -294.5t-162.5 -242.5t-242.5 -162.5t-294.5 -60.5q-155 0 -295.5 60.5t-242.5 162.5t-162 242.5t-60 294.5zM133 731q0 -117 36.5 -226.5
t103 -198t154.5 -155t198 -103t227 -36.5q116 0 226 36.5t198.5 103t155 155t103 198.5t36.5 226t-36.5 226t-103 198.5t-155 155t-198.5 103t-226 36.5q-117 0 -227 -36.5t-198 -103t-154.5 -155t-103 -198t-36.5 -226.5zM1169 565v-258h-20q-6 15 -14 21t-25 6
q-10 0 -90.5 -22.5t-140.5 -22.5q-119 0 -224.5 59t-170 163.5t-64.5 227.5q0 99 42 187t109 145.5t148 91t160 33.5q58 0 135 -22.5t92 -22.5q30 0 35 25h20v-248h-16q-12 40 -23.5 69.5t-33 66.5t-48 60t-67.5 39.5t-92 16.5q-56 0 -97.5 -12t-70 -39.5t-46.5 -63.5
t-28.5 -93t-14 -119.5t-3.5 -150.5q0 -221 60 -309t200 -88q102 0 173 76.5t95 183.5h20z" />
    <glyph glyph-name="ordfeminine" unicode="&#xaa;" horiz-adv-x="636" 
d="M545 1319v-305q0 -64 37 -64q27 0 49 39l18 -18q-16 -18 -24.5 -25.5t-34 -15.5t-64.5 -8q-62 0 -94.5 24.5t-40.5 54.5q-38 -79 -139 -79q-40 0 -74 6t-65.5 20t-49.5 41t-18 64q0 52 36 87t146 66l101 29q55 14 55 76v88q0 69 -74 69q-69 0 -69 -55q0 -5 4 -31t4 -30
q0 -41 -23 -53.5t-67 -12.5q-33 0 -52.5 18t-19.5 48q0 60 59 99.5t170 39.5q65 0 111.5 -14t68.5 -31.5t34.5 -45.5t14 -43.5t1.5 -37.5zM379 1061v172q-17 -12 -66 -29q-24 -9 -34.5 -15t-27 -20t-23.5 -36.5t-7 -55.5q0 -25 0.5 -39.5t4.5 -33.5t11.5 -29t22 -17.5
t35.5 -7.5q41 0 62.5 31.5t21.5 79.5z" />
    <glyph glyph-name="guillemotleft" unicode="&#xab;" horiz-adv-x="909" 
d="M444 729l7 -24q-30 -8 -47 -14t-42 -24t-38.5 -44t-24 -72.5t-10.5 -110.5q0 -58 7.5 -100.5t20 -69.5t34 -46t44 -29t56.5 -19l-7 -24q-34 7 -56 12.5t-62.5 18.5t-67.5 26.5t-60.5 36.5t-53.5 49t-34 63.5t-14 81.5t15 82.5t35 64.5t56 49.5t61 36.5t68.5 26.5t60 17.5
t52.5 12zM807 729l6 -24q-30 -8 -47 -14t-42 -24t-38.5 -44t-24 -72.5t-10.5 -110.5q0 -58 7.5 -100.5t20 -69.5t34 -46t44 -29t56.5 -19l-6 -24q-34 7 -56 12.5t-62.5 18.5t-67.5 26.5t-60.5 36.5t-53.5 49t-34 63.5t-14 81.5t15 82.5t35 64.5t56 49.5t61 36.5t68.5 26.5
t60 17.5t52.5 12z" />
    <glyph glyph-name="logicalnot" unicode="&#xac;" horiz-adv-x="1214" 
d="M1057 297v352h-942v37h983v-389h-41z" />
    <glyph glyph-name="uni00AD" unicode="&#xad;" horiz-adv-x="757" 
d="M186 340v201h385v-201h-385z" />
    <glyph glyph-name="registered" unicode="&#xae;" horiz-adv-x="1003" 
d="M123 1110q0 157 111 269t268 112t269 -112t112 -269t-112 -268t-269 -111t-268 111t-111 268zM383 928v385h-53v8h86q16 0 47 1t47 1q54 0 95.5 -23t41.5 -73q0 -42 -32.5 -63t-77.5 -25v-2q36 -7 51 -11t34 -14.5t27 -29t10 -48.5q8 -91 15 -102q5 -8 18 -8q6 0 11 2
t8 4.5t7.5 6.5t6.5 5l6 -4q-10 -10 -15.5 -14.5t-19 -8.5t-32.5 -4q-29 0 -47.5 9t-26 27t-9.5 30t-3 33q-2 26 -3 36.5t-5.5 31t-11.5 29t-21.5 16t-34.5 7.5h-37v-202h51v-8h-186v8h53zM143 1110q0 -148 105 -253t254 -105t254.5 105t105.5 253q0 149 -105.5 254.5
t-254.5 105.5t-254 -105.5t-105 -254.5zM465 1313v-174h22q46 0 60 21t14 61q0 51 -15 72.5t-57 21.5q-4 0 -12 -1t-12 -1z" />
    <glyph glyph-name="macron" unicode="&#xaf;" horiz-adv-x="569" 
d="M-45 1253v62h659v-62h-659z" />
    <glyph glyph-name="degree" unicode="&#xb0;" horiz-adv-x="819" 
d="M133 1214q0 116 80.5 196.5t196.5 80.5q115 0 195.5 -80.5t80.5 -196.5t-80 -196t-196 -80t-196.5 80.5t-80.5 195.5zM174 1214q0 -98 69 -166.5t167 -68.5t166.5 68.5t68.5 166.5t-68.5 167t-166.5 69t-167 -69t-69 -167z" />
    <glyph glyph-name="plusminus" unicode="&#xb1;" horiz-adv-x="1214" 
d="M586 135v404h-471v36h471v408h41v-408h471v-36h-471v-404h-41zM115 0v37h983v-37h-983z" />
    <glyph glyph-name="two.superior" unicode="&#xb2;" horiz-adv-x="681" 
d="M211 731h188q34 0 50 0.5t41 2.5t36.5 6.5t27.5 13.5t23.5 22t14.5 32.5t10 45.5h29v-258h-590v29l20 18q86 77 131 119t95 95.5t71.5 89t41.5 85t26 99t6 116.5q0 62 -7.5 105t-16.5 64t-26 32t-27 12.5t-29 1.5q-34 0 -56 -8.5t-30.5 -24.5t-10.5 -26.5t-2 -26.5
q0 -5 6.5 -33.5t6.5 -33.5q0 -28 -25 -46t-59 -18q-30 0 -55 16t-25 44q0 59 44 103.5t101.5 63.5t114.5 19q117 0 198.5 -65.5t81.5 -178.5q0 -125 -137 -256z" />
    <glyph glyph-name="three.superior" unicode="&#xb3;" horiz-adv-x="681" 
d="M152 1026l-17 27q47 28 70 34l139 37q98 27 98 197q0 141 -118 141q-82 0 -82 -63q0 -6 6 -36.5t6 -35.5q0 -36 -28 -51.5t-56 -15.5q-5 0 -10 0.5t-18.5 4t-23.5 10t-18 20.5t-8 34q0 50 31 85t79 50t86 21t72 6q43 0 85.5 -10t82.5 -30.5t65 -58.5t25 -87
q0 -39 -16.5 -70.5t-38.5 -51t-61 -37t-65 -25.5t-70 -19v-4q40 -3 79 -14t75.5 -31t64 -47t44.5 -66t17 -84q0 -118 -101.5 -199.5t-244.5 -81.5q-223 0 -274 203h30q23 -74 82.5 -124t134.5 -50q44 0 76.5 10t53 31t33.5 44.5t18.5 59.5t7.5 66t2 74q0 20 -1 33t-4.5 39
t-13.5 43.5t-26 36.5t-43.5 28.5t-63.5 9.5q-98 0 -161 -53z" />
    <glyph glyph-name="acute" unicode="&#xb4;" horiz-adv-x="569" 
d="M197 1083l180 361q9 19 17 30t26 22t43 11q21 0 44 -16.5t23 -44.5q0 -35 -18 -55l-289 -308h-26z" />
    <glyph glyph-name="mu" unicode="&#xb5;" horiz-adv-x="1251" 
d="M193 -573v1423h-138v29h387v-650q0 -84 33.5 -135t106.5 -51q93 0 152 81.5t59 197.5v528h-136v29h385v-850h136v-29h-381v166h-4q-30 -74 -101 -126t-135 -52q-68 0 -115 47v-608h-249z" />
    <glyph glyph-name="paragraph" unicode="&#xb6;" horiz-adv-x="1214" 
d="M643 1458h500v-28h-137v-1129q0 -197 -49 -334t-164 -223q-97 -70 -200.5 -96.5t-182.5 -26.5q-56 0 -98.5 14t-63.5 33t-34 44.5t-16 42t-3 32.5q0 58 37.5 86.5t93.5 28.5q108 0 108 -76q0 -31 -18 -84q-13 -39 -13 -41t1 -5t6 -7t12 -4q8 0 22.5 5t36.5 19t46 46.5
t42 78.5q43 111 43 467v291q-188 4 -305 49q-109 43 -181.5 149.5t-72.5 239.5q0 121 59.5 219t153.5 140q94 41 179 55t198 14zM786 301v1129h-143v-1129q0 -112 -2.5 -184t-10 -149t-23 -124t-41.5 -90t-64.5 -67.5t-91.5 -36.5q29 1 46 3t51.5 10t68.5 28t67 51
q30 28 51 59t44.5 91.5t35.5 163.5t12 245z" />
    <glyph glyph-name="periodcentered" unicode="&#xb7;" horiz-adv-x="569" 
d="M139 578q0 60 43 102.5t103 42.5t102.5 -42.5t42.5 -102.5t-42.5 -103t-102.5 -43t-103 43t-43 103z" />
    <glyph glyph-name="cedilla" unicode="&#xb8;" horiz-adv-x="569" 
d="M168 -162l149 162h41l-143 -147l4 -5q64 29 107 29q74 0 130 -50.5t56 -123.5q0 -92 -68.5 -143.5t-162.5 -51.5q-49 0 -84 14t-80 48l18 24q27 -18 39.5 -25.5t33.5 -13.5t46 -6q96 0 96 146q0 28 -2 46t-8.5 41.5t-23.5 35.5t-44 12q-42 0 -75 -20z" />
    <glyph glyph-name="one.superior" unicode="&#xb9;" horiz-adv-x="681" 
d="M301 625v737q-105 -62 -164 -86l-14 27q68 34 105.5 55t90 57.5t91.5 75.5h57v-866h117v-29h-402v29h119z" />
    <glyph glyph-name="ordmasculine" unicode="&#xba;" horiz-adv-x="684" 
d="M657 1206q0 -117 -94.5 -200.5t-220.5 -83.5t-220.5 83.5t-94.5 200.5t94.5 201t220.5 84t220.5 -84t94.5 -201zM342 944q32 0 56 9t38 30t22.5 40t12 56t4 59.5t0.5 67.5t-0.5 67.5t-4 59.5t-12 56t-22.5 40t-38 30t-56 9t-56 -9t-38 -30t-22.5 -40t-12 -56t-4 -59.5
t-0.5 -67.5t0.5 -67.5t4 -59.5t12 -56t22.5 -40t38 -30t56 -9z" />
    <glyph glyph-name="guillemotright" unicode="&#xbb;" horiz-adv-x="909" 
d="M465 152l-6 24q31 8 47 14t42 24t39 43.5t23.5 72t10.5 110.5q0 72 -10 120t-33 76.5t-49.5 43t-69.5 25.5l6 24q29 -6 48.5 -11t54 -15t58.5 -21t55.5 -27.5t52.5 -37t40.5 -46.5t29 -59.5t9.5 -71.5q0 -35 -9.5 -66t-22 -54.5t-37 -45t-42.5 -35.5t-51 -28.5t-50 -21.5
t-52 -16.5t-44.5 -11.5t-39.5 -9zM102 152l-6 24q31 8 47 14t42 24t39 43.5t23.5 72t10.5 110.5q0 72 -10 120t-33 76.5t-49.5 43t-69.5 25.5l6 24q34 -7 56.5 -12.5t62.5 -18.5t67.5 -26.5t60.5 -37t53.5 -49.5t34.5 -63.5t14 -81.5q0 -60 -27.5 -108.5t-60 -76t-90 -51.5
t-85 -31.5t-78.5 -18.5q-6 -1 -8 -2z" />
    <glyph glyph-name="onequarter" unicode="&#xbc;" horiz-adv-x="1708" 
d="M1401 526v-305h110v-28h-110v-164h110v-29h-391v29h115v164h-365q113 274 234 495q65 115 113.5 161t101.5 46q80 0 80 -45q0 -13 -5 -19.5t-34 -33.5l-100 -92q-15 -13 -44.5 -44.5t-79 -91t-110 -152.5t-113.5 -196h322v305h166zM301 625v737q-105 -62 -164 -86l-14 27
q68 34 105.5 55t90 57.5t91.5 75.5h57v-866h117v-29h-402v29h119zM391 -10l770 1501l41 -18l-770 -1502z" />
    <glyph glyph-name="onehalf" unicode="&#xbd;" horiz-adv-x="1708" 
d="M391 -10l770 1501l41 -18l-770 -1502zM301 625v737q-105 -62 -164 -86l-14 27q68 34 105.5 55t90 57.5t91.5 75.5h57v-866h117v-29h-402v29h119zM1085 135h189q34 0 50 0.5t41 2.5t36.5 6.5t27.5 13.5t23.5 22t14.5 32.5t10 45.5h28v-258h-590v29l21 18q86 77 131 119
t95 95.5t71.5 89t41.5 85t26 99t6 116.5q0 62 -7.5 105t-16.5 64t-26.5 32t-27.5 12.5t-29 1.5q-34 0 -56 -8.5t-30 -24.5t-10 -26.5t-2 -26.5q0 -5 6 -33.5t6 -33.5q0 -28 -25 -46t-59 -18q-30 0 -55 16t-25 44q0 59 44 103.5t101.5 63.5t114.5 19q117 0 199 -65.5
t82 -178.5q0 -125 -137 -256z" />
    <glyph glyph-name="threequarters" unicode="&#xbe;" horiz-adv-x="1708" 
d="M209 1026l-16 27q47 29 69 34l139 37q30 8 50.5 30t30.5 52.5t14 57.5t4 57q0 141 -119 141q-82 0 -82 -63q0 -6 6 -36.5t6 -35.5q0 -36 -28 -51.5t-56 -15.5q-5 0 -10 0.5t-18.5 4t-23 10t-17.5 20.5t-8 34q0 50 31 85t79 50t86 21t72 6q43 0 85.5 -10t82.5 -30.5
t65 -58.5t25 -87q0 -39 -17 -70.5t-38.5 -51t-61 -37t-65.5 -25.5t-70 -19v-4q69 -5 130.5 -31.5t106 -81.5t44.5 -129q0 -118 -102 -199.5t-245 -81.5q-223 0 -274 203h31q23 -74 82.5 -124t134.5 -50q44 0 76.5 10t53 31.5t33 44.5t18.5 59.5t7.5 65.5t1.5 74
q0 17 -0.5 27.5t-3 33t-8 37t-16.5 34t-26.5 31t-40.5 19.5t-56 8q-99 0 -162 -53zM1458 526v-305h111v-28h-111v-164h111v-29h-391v29h114v164h-364q117 282 233 495q65 115 113.5 161t101.5 46q80 0 80 -45q0 -13 -5 -19.5t-34 -33.5l-100 -92q-15 -13 -44 -44.5
t-78.5 -91t-110 -152.5t-113.5 -196h321v305h166zM449 -10l770 1501l41 -18l-771 -1502z" />
    <glyph glyph-name="questiondown" unicode="&#xbf;" horiz-adv-x="909" 
d="M657 494v-482h-34q-31 45 -61 71t-70 26q-76 0 -105 -89t-29 -280q0 -182 26.5 -248.5t100.5 -66.5q52 0 79.5 23t27.5 54q0 23 -21.5 55.5t-21.5 63.5q0 51 26.5 71.5t86.5 20.5q46 0 78 -23t32 -73q0 -73 -46.5 -125t-111 -74t-137.5 -22q-174 0 -271 106.5t-97 266.5
q0 78 26 143.5t65.5 107t88 70.5t90.5 41t76 12q112 0 163 -69h5v420h34zM786 762q0 -60 -42.5 -103t-102.5 -43t-102.5 43t-42.5 103t42.5 102.5t102.5 42.5t102.5 -42.5t42.5 -102.5z" />
    <glyph glyph-name="Agrave" unicode="&#xc0;" horiz-adv-x="1554" 
d="M-53 0v29h174l610 1487h55l646 -1487h176v-29h-688v29h190l-238 549h-491l-227 -549h182v-29h-389zM862 606l-241 559l-230 -559h471zM670 1921l180 -360h-27l-288 307q-19 21 -19 55q0 28 23.5 45t44.5 17q25 0 43 -11t26 -22.5t17 -30.5z" />
    <glyph glyph-name="Aacute" unicode="&#xc1;" horiz-adv-x="1554" 
d="M-53 0v29h174l610 1487h55l646 -1487h176v-29h-688v29h190l-238 549h-491l-227 -549h182v-29h-389zM862 606l-241 559l-230 -559h471zM674 1561l180 360q9 19 17 30.5t26 22.5t43 11q21 0 44.5 -17t23.5 -45q0 -34 -19 -55l-289 -307h-26z" />
    <glyph glyph-name="Acircumflex" unicode="&#xc2;" horiz-adv-x="1554" 
d="M-53 0v29h174l610 1487h55l646 -1487h176v-29h-688v29h190l-238 549h-491l-227 -549h182v-29h-389zM862 606l-241 559l-230 -559h471zM465 1561l223 403h150l221 -403h-25l-272 260l-273 -260h-24z" />
    <glyph glyph-name="Atilde" unicode="&#xc3;" horiz-adv-x="1554" 
d="M-53 0v29h174l610 1487h55l646 -1487h176v-29h-688v29h190l-238 549h-491l-227 -549h182v-29h-389zM862 606l-241 559l-230 -559h471zM496 1698l-25 -56h-29q38 106 55 142t44 59q18 15 50 26t54 11q21 0 167.5 -41t158.5 -41q35 0 56.5 35.5t25.5 58.5h28
q-8 -34 -21 -68.5t-35.5 -75.5t-59 -67t-80.5 -26q-43 0 -172 42t-160 42q-15 0 -32 -10.5t-25 -30.5z" />
    <glyph glyph-name="Adieresis" unicode="&#xc4;" horiz-adv-x="1554" 
d="M-53 0v29h174l610 1487h55l646 -1487h176v-29h-688v29h190l-238 549h-491l-227 -549h182v-29h-389zM862 606l-241 559l-230 -559h471zM453 1755q0 54 38.5 92.5t92.5 38.5t92.5 -38.5t38.5 -92.5t-38.5 -92.5t-92.5 -38.5t-92.5 38.5t-38.5 92.5zM809 1755
q0 54 38.5 92.5t92.5 38.5t92.5 -38.5t38.5 -92.5t-38.5 -92.5t-92.5 -38.5t-92.5 38.5t-38.5 92.5z" />
    <glyph glyph-name="Aring" unicode="&#xc5;" horiz-adv-x="1554" 
d="M-53 0v29h174l610 1487h55l646 -1487h176v-29h-688v29h190l-238 549h-491l-227 -549h182v-29h-389zM862 606l-241 559l-230 -559h471zM963 1755q0 -75 -57.5 -139t-157.5 -64q-101 0 -158.5 64t-57.5 139t57.5 139t158.5 64q100 0 157.5 -64t57.5 -139zM748 1935
q-57 0 -77 -43.5t-20 -136.5t20 -136.5t77 -43.5t76.5 43t19.5 137t-19.5 137t-76.5 43z" />
    <glyph glyph-name="AE" unicode="&#xc6;" horiz-adv-x="2009" 
d="M-63 0v29h122l809 1401h-190v28h1159v-350h-27q-8 25 -16.5 46.5t-26 56t-37 62.5t-51 58.5t-67 51t-84.5 34t-105 13.5h-219v-633h39q141 0 209 76.5t100 228.5h27v-637h-27q-16 68 -35 116.5t-51 94t-82 69t-118 23.5h-62v-739h195q181 0 299 115.5t162 304.5h26v-449
h-1167v29h188v739h-385l-428 -739h203v-29h-360zM903 1430l-364 -633h368v633h-4z" />
    <glyph glyph-name="Ccedilla" unicode="&#xc7;" horiz-adv-x="1478" 
d="M1358 434v-434h-33q-11 25 -25 34t-43 9q-23 0 -84.5 -18.5t-144 -37t-158.5 -18.5h-47l-116 -116l4 -5q64 29 106 29q74 0 130.5 -50.5t56.5 -123.5q0 -92 -68.5 -143.5t-163.5 -51.5q-49 0 -84 14t-80 48l19 24q28 -19 39.5 -26t32.5 -13t46 -6q97 0 97 146q0 28 -2 46
t-8.5 41.5t-23.5 35.5t-44 12q-43 0 -76 -20l-29 28l127 137q-136 15 -261 80t-218 163.5t-148 231t-55 275.5q0 134 46 256.5t123 213.5t175.5 159t207.5 102.5t214 34.5q74 0 152.5 -19t138.5 -38t88 -19q30 0 44 8.5t20 34.5h33v-418h-27q-15 47 -28 81.5t-35 81.5
t-45 80.5t-58 69.5t-74 58t-92.5 36.5t-114.5 14.5q-64 0 -118 -12t-94.5 -33.5t-74 -52.5t-55.5 -68.5t-39.5 -81t-26.5 -91.5t-15.5 -98.5t-7.5 -102.5t-3 -104.5t0 -102.5v-18v-15.5v-17.5q0 -249 45.5 -394.5t138.5 -208.5t250 -63q88 0 166 37t134 99.5t95 139
t58 160.5h33z" />
    <glyph glyph-name="Egrave" unicode="&#xc8;" horiz-adv-x="1478" 
d="M76 1430v28h1224v-350h-26q-8 25 -16.5 46.5t-26 56t-37 62.5t-51 58.5t-67 51t-84.5 34t-105 13.5h-326v-633h115q141 0 209 76.5t100 228.5h27v-637h-27q-12 53 -26 93.5t-37 81.5t-52.5 68t-73 43.5t-98.5 16.5h-137v-739h336q181 0 299 115.5t162 304.5h26v-449
h-1308v29h188v1401h-188zM664 1921l180 -360h-27l-289 307q-18 20 -18 55q0 28 23.5 45t44.5 17q25 0 43 -11t26 -22.5t17 -30.5z" />
    <glyph glyph-name="Eacute" unicode="&#xc9;" horiz-adv-x="1478" 
d="M76 1430v28h1224v-350h-26q-8 25 -16.5 46.5t-26 56t-37 62.5t-51 58.5t-67 51t-84.5 34t-105 13.5h-326v-633h115q141 0 209 76.5t100 228.5h27v-637h-27q-12 53 -26 93.5t-37 81.5t-52.5 68t-73 43.5t-98.5 16.5h-137v-739h336q181 0 299 115.5t162 304.5h26v-449
h-1308v29h188v1401h-188zM668 1561l180 360q9 19 17 30.5t26 22.5t43 11q21 0 44 -17t23 -45q0 -35 -18 -55l-289 -307h-26z" />
    <glyph glyph-name="Ecircumflex" unicode="&#xca;" horiz-adv-x="1478" 
d="M76 1430v28h1224v-350h-26q-8 25 -16.5 46.5t-26 56t-37 62.5t-51 58.5t-67 51t-84.5 34t-105 13.5h-326v-633h115q141 0 209 76.5t100 228.5h27v-637h-27q-12 53 -26 93.5t-37 81.5t-52.5 68t-73 43.5t-98.5 16.5h-137v-739h336q181 0 299 115.5t162 304.5h26v-449
h-1308v29h188v1401h-188zM459 1561l223 403h149l222 -403h-25l-272 260l-273 -260h-24z" />
    <glyph glyph-name="Edieresis" unicode="&#xcb;" horiz-adv-x="1478" 
d="M76 1430v28h1224v-350h-26q-8 25 -16.5 46.5t-26 56t-37 62.5t-51 58.5t-67 51t-84.5 34t-105 13.5h-326v-633h115q141 0 209 76.5t100 228.5h27v-637h-27q-12 53 -26 93.5t-37 81.5t-52.5 68t-73 43.5t-98.5 16.5h-137v-739h336q181 0 299 115.5t162 304.5h26v-449
h-1308v29h188v1401h-188zM446 1755q0 54 39 92.5t93 38.5t92.5 -38.5t38.5 -92.5t-38.5 -92.5t-92.5 -38.5t-93 38.5t-39 92.5zM803 1755q0 54 38.5 92.5t92.5 38.5t92.5 -38.5t38.5 -92.5t-38.5 -92.5t-92.5 -38.5t-92.5 38.5t-38.5 92.5z" />
    <glyph glyph-name="Igrave" unicode="&#xcc;" horiz-adv-x="833" 
d="M80 1430v28h674v-28h-189v-1401h189v-29h-674v29h188v1401h-188zM326 1921l180 -360h-27l-289 307q-18 20 -18 55q0 28 23.5 45t44.5 17q25 0 43 -11t26 -22.5t17 -30.5z" />
    <glyph glyph-name="Iacute" unicode="&#xcd;" horiz-adv-x="833" 
d="M80 1430v28h674v-28h-189v-1401h189v-29h-674v29h188v1401h-188zM330 1561l180 360q9 19 17 30.5t26 22.5t43 11q21 0 44.5 -17t23.5 -45q0 -34 -19 -55l-289 -307h-26z" />
    <glyph glyph-name="Icircumflex" unicode="&#xce;" horiz-adv-x="833" 
d="M80 1430v28h674v-28h-189v-1401h189v-29h-674v29h188v1401h-188zM121 1561l223 403h150l221 -403h-25l-272 260l-273 -260h-24z" />
    <glyph glyph-name="Idieresis" unicode="&#xcf;" horiz-adv-x="833" 
d="M80 1430v28h674v-28h-189v-1401h189v-29h-674v29h188v1401h-188zM109 1755q0 54 38.5 92.5t92.5 38.5t92.5 -38.5t38.5 -92.5t-38.5 -92.5t-92.5 -38.5t-92.5 38.5t-38.5 92.5zM465 1755q0 54 38.5 92.5t92.5 38.5t92.5 -38.5t38.5 -92.5t-38.5 -92.5t-92.5 -38.5
t-92.5 38.5t-38.5 92.5z" />
    <glyph glyph-name="Eth" unicode="&#xd0;" horiz-adv-x="1669" 
d="M254 29v733h-188v35h188v633h-188v28h188q69 0 209 4q35 0 104.5 1t104.5 1q84 0 166 -9t173 -32t170 -58.5t152 -93.5t124.5 -132.5t82.5 -179.5t31 -230q0 -124 -31 -229t-82.5 -179t-123 -132t-147.5 -94t-161.5 -59.5t-160 -32.5t-146.5 -9q-80 0 -232 4
q-39 0 -116.5 1t-116.5 1h-188v29h188zM551 1430v-633h303v-35h-303v-733q59 -6 108 -6q110 0 198.5 24.5t148 63.5t103.5 97.5t68 116.5t38 131t18 129.5t4 123.5q0 143 -12.5 246t-48 198.5t-96.5 154.5t-161.5 93.5t-240.5 34.5q-86 0 -127 -6z" />
    <glyph glyph-name="Ntilde" unicode="&#xd1;" horiz-adv-x="1517" 
d="M70 1430v28h483l682 -975h4v947h-188v28h409v-28h-188v-1430h-55l-922 1313h-4v-1284h188v-29h-409v29h188v1401h-188zM494 1698l-25 -56h-29q38 106 55 142t44 59q18 15 50 26t54 11q21 0 167.5 -41t158.5 -41q35 0 56.5 35.5t25.5 58.5h28q-8 -34 -21 -68.5
t-35.5 -75.5t-59 -67t-80.5 -26q-43 0 -172 42t-160 42q-15 0 -32 -10.5t-25 -30.5z" />
    <glyph glyph-name="Ograve" unicode="&#xd2;" horiz-adv-x="1705" 
d="M86 725q0 112 32.5 217t88.5 188t131 151.5t160.5 114t176.5 70.5t179 25q143 0 280 -54t245 -150t174.5 -241.5t66.5 -314.5q0 -151 -63 -291.5t-166.5 -243.5t-245 -165t-291.5 -62q-149 0 -289.5 59.5t-246 159.5t-169 241.5t-63.5 295.5zM420 725q0 -214 24 -354
t78.5 -223t133.5 -116.5t198 -33.5q66 0 121 12t96.5 32.5t74 54.5t55 70.5t38 90t25 102.5t14.5 117.5t6.5 127t1.5 138.5q0 74 -1 126t-6 118.5t-13.5 112.5t-24 99.5t-37.5 89.5t-55 71t-74.5 56t-97.5 33.5t-123 12.5q-81 0 -144.5 -19t-109 -51.5t-78 -85t-52 -110
t-31 -138t-15.5 -157t-4 -176.5zM762 1921l180 -360h-27l-288 307q-19 21 -19 55q0 28 23.5 45t44.5 17q25 0 43 -11t26 -22.5t17 -30.5z" />
    <glyph glyph-name="Oacute" unicode="&#xd3;" horiz-adv-x="1705" 
d="M86 725q0 112 32.5 217t88.5 188t131 151.5t160.5 114t176.5 70.5t179 25q143 0 280 -54t245 -150t174.5 -241.5t66.5 -314.5q0 -151 -63 -291.5t-166.5 -243.5t-245 -165t-291.5 -62q-149 0 -289.5 59.5t-246 159.5t-169 241.5t-63.5 295.5zM420 725q0 -214 24 -354
t78.5 -223t133.5 -116.5t198 -33.5q66 0 121 12t96.5 32.5t74 54.5t55 70.5t38 90t25 102.5t14.5 117.5t6.5 127t1.5 138.5q0 74 -1 126t-6 118.5t-13.5 112.5t-24 99.5t-37.5 89.5t-55 71t-74.5 56t-97.5 33.5t-123 12.5q-81 0 -144.5 -19t-109 -51.5t-78 -85t-52 -110
t-31 -138t-15.5 -157t-4 -176.5zM766 1561l180 360q9 19 17 30.5t26 22.5t43 11q21 0 44.5 -17t23.5 -45q0 -34 -19 -55l-288 -307h-27z" />
    <glyph glyph-name="Ocircumflex" unicode="&#xd4;" horiz-adv-x="1705" 
d="M86 725q0 112 32.5 217t88.5 188t131 151.5t160.5 114t176.5 70.5t179 25q143 0 280 -54t245 -150t174.5 -241.5t66.5 -314.5q0 -151 -63 -291.5t-166.5 -243.5t-245 -165t-291.5 -62q-149 0 -289.5 59.5t-246 159.5t-169 241.5t-63.5 295.5zM420 725q0 -214 24 -354
t78.5 -223t133.5 -116.5t198 -33.5q66 0 121 12t96.5 32.5t74 54.5t55 70.5t38 90t25 102.5t14.5 117.5t6.5 127t1.5 138.5q0 74 -1 126t-6 118.5t-13.5 112.5t-24 99.5t-37.5 89.5t-55 71t-74.5 56t-97.5 33.5t-123 12.5q-81 0 -144.5 -19t-109 -51.5t-78 -85t-52 -110
t-31 -138t-15.5 -157t-4 -176.5zM557 1561l223 403h150l221 -403h-25l-272 260l-272 -260h-25z" />
    <glyph glyph-name="Otilde" unicode="&#xd5;" horiz-adv-x="1705" 
d="M86 725q0 112 32.5 217t88.5 188t131 151.5t160.5 114t176.5 70.5t179 25q143 0 280 -54t245 -150t174.5 -241.5t66.5 -314.5q0 -151 -63 -291.5t-166.5 -243.5t-245 -165t-291.5 -62q-149 0 -289.5 59.5t-246 159.5t-169 241.5t-63.5 295.5zM420 725q0 -214 24 -354
t78.5 -223t133.5 -116.5t198 -33.5q66 0 121 12t96.5 32.5t74 54.5t55 70.5t38 90t25 102.5t14.5 117.5t6.5 127t1.5 138.5q0 74 -1 126t-6 118.5t-13.5 112.5t-24 99.5t-37.5 89.5t-55 71t-74.5 56t-97.5 33.5t-123 12.5q-81 0 -144.5 -19t-109 -51.5t-78 -85t-52 -110
t-31 -138t-15.5 -157t-4 -176.5zM588 1698l-25 -56h-28q29 80 38.5 105t25 52.5t34.5 43.5q18 15 50 26t54 11q21 0 167.5 -41t158.5 -41q35 0 56.5 35.5t25.5 58.5h29q-7 -34 -20.5 -68.5t-36.5 -75.5t-59.5 -67t-80.5 -26q-43 0 -172 42t-160 42q-15 0 -32 -10.5
t-25 -30.5z" />
    <glyph glyph-name="Odieresis" unicode="&#xd6;" horiz-adv-x="1705" 
d="M86 725q0 112 32.5 217t88.5 188t131 151.5t160.5 114t176.5 70.5t179 25q143 0 280 -54t245 -150t174.5 -241.5t66.5 -314.5q0 -151 -63 -291.5t-166.5 -243.5t-245 -165t-291.5 -62q-149 0 -289.5 59.5t-246 159.5t-169 241.5t-63.5 295.5zM420 725q0 -214 24 -354
t78.5 -223t133.5 -116.5t198 -33.5q66 0 121 12t96.5 32.5t74 54.5t55 70.5t38 90t25 102.5t14.5 117.5t6.5 127t1.5 138.5q0 74 -1 126t-6 118.5t-13.5 112.5t-24 99.5t-37.5 89.5t-55 71t-74.5 56t-97.5 33.5t-123 12.5q-81 0 -144.5 -19t-109 -51.5t-78 -85t-52 -110
t-31 -138t-15.5 -157t-4 -176.5zM545 1755q0 54 38.5 92.5t92.5 38.5t92.5 -38.5t38.5 -92.5t-38.5 -92.5t-92.5 -38.5t-92.5 38.5t-38.5 92.5zM901 1755q0 54 38.5 92.5t92.5 38.5t92.5 -38.5t38.5 -92.5t-38.5 -92.5t-92.5 -38.5t-92.5 38.5t-38.5 92.5z" />
    <glyph glyph-name="multiply" unicode="&#xd7;" horiz-adv-x="1214" 
d="M1032 39l-426 426l-426 -426l-26 29l424 424l-424 423l26 29l426 -426l426 426l27 -29l-424 -423l424 -424z" />
    <glyph glyph-name="Oslash" unicode="&#xd8;" horiz-adv-x="1705" 
d="M526 143l625 1215q-101 104 -297 104q-81 0 -144.5 -19t-109 -51.5t-78 -85t-52 -110t-31 -138t-15.5 -157t-4 -176.5q0 -423 106 -582zM1174 1333l-627 -1218q95 -117 307 -117q66 0 121 12t96.5 32.5t74 54.5t55 70.5t38 90t25 102.5t14.5 117.5t6.5 127t1.5 138.5
q0 222 -21 362.5t-91 227.5zM381 -139l106 207q-180 96 -290.5 271.5t-110.5 385.5q0 112 32.5 217t88.5 188t131 151.5t160.5 114t176.5 70.5t179 25q167 0 328 -76l100 199l29 -15l-101 -196q183 -94 296.5 -269t113.5 -403q0 -151 -63 -291.5t-166.5 -243.5t-245 -165
t-291.5 -62q-179 0 -340 82l-104 -205z" />
    <glyph glyph-name="Ugrave" unicode="&#xd9;" horiz-adv-x="1593" 
d="M66 1430v28h675v-28h-188v-920q0 -62 2.5 -109t10.5 -103t21.5 -96.5t38.5 -81t59.5 -66t85 -41t114.5 -15.5q71 0 131 12.5t102.5 32t76 51t55 60.5t37 69t22.5 68.5t11 68.5t4.5 59t0.5 48v963h-186v28h409v-28h-190v-961q0 -43 -1 -71t-10.5 -85.5t-27 -97.5t-54 -90
t-87 -81t-131 -53t-181.5 -22q-112 0 -202 15.5t-153 41.5t-109.5 65t-74 80.5t-44 95t-22 101.5t-5.5 105v957h-190zM766 1921l180 -360h-26l-289 307q-19 21 -19 55q0 28 23.5 45t44.5 17q25 0 43 -11t26 -22.5t17 -30.5z" />
    <glyph glyph-name="Uacute" unicode="&#xda;" horiz-adv-x="1593" 
d="M66 1430v28h675v-28h-188v-920q0 -62 2.5 -109t10.5 -103t21.5 -96.5t38.5 -81t59.5 -66t85 -41t114.5 -15.5q71 0 131 12.5t102.5 32t76 51t55 60.5t37 69t22.5 68.5t11 68.5t4.5 59t0.5 48v963h-186v28h409v-28h-190v-961q0 -43 -1 -71t-10.5 -85.5t-27 -97.5t-54 -90
t-87 -81t-131 -53t-181.5 -22q-112 0 -202 15.5t-153 41.5t-109.5 65t-74 80.5t-44 95t-22 101.5t-5.5 105v957h-190zM770 1561l180 360q9 19 17 30.5t26 22.5t43 11q21 0 44.5 -17t23.5 -45q0 -34 -19 -55l-288 -307h-27z" />
    <glyph glyph-name="Ucircumflex" unicode="&#xdb;" horiz-adv-x="1593" 
d="M66 1430v28h675v-28h-188v-920q0 -62 2.5 -109t10.5 -103t21.5 -96.5t38.5 -81t59.5 -66t85 -41t114.5 -15.5q71 0 131 12.5t102.5 32t76 51t55 60.5t37 69t22.5 68.5t11 68.5t4.5 59t0.5 48v963h-186v28h409v-28h-190v-961q0 -43 -1 -71t-10.5 -85.5t-27 -97.5t-54 -90
t-87 -81t-131 -53t-181.5 -22q-112 0 -202 15.5t-153 41.5t-109.5 65t-74 80.5t-44 95t-22 101.5t-5.5 105v957h-190zM561 1561l223 403h150l221 -403h-25l-272 260l-272 -260h-25z" />
    <glyph glyph-name="Udieresis" unicode="&#xdc;" horiz-adv-x="1593" 
d="M66 1430v28h675v-28h-188v-920q0 -62 2.5 -109t10.5 -103t21.5 -96.5t38.5 -81t59.5 -66t85 -41t114.5 -15.5q71 0 131 12.5t102.5 32t76 51t55 60.5t37 69t22.5 68.5t11 68.5t4.5 59t0.5 48v963h-186v28h409v-28h-190v-961q0 -43 -1 -71t-10.5 -85.5t-27 -97.5t-54 -90
t-87 -81t-131 -53t-181.5 -22q-112 0 -202 15.5t-153 41.5t-109.5 65t-74 80.5t-44 95t-22 101.5t-5.5 105v957h-190zM549 1755q0 54 38.5 92.5t92.5 38.5t92.5 -38.5t38.5 -92.5t-38.5 -92.5t-92.5 -38.5t-92.5 38.5t-38.5 92.5zM905 1755q0 54 38.5 92.5t92.5 38.5
t92.5 -38.5t38.5 -92.5t-38.5 -92.5t-92.5 -38.5t-92.5 38.5t-38.5 92.5z" />
    <glyph glyph-name="Yacute" unicode="&#xdd;" horiz-adv-x="1441" 
d="M-33 1430v28h662v-28h-162l418 -715l377 715h-179v28h392v-28h-179l-395 -752v-649h191v-29h-676v29h188v571l-475 830h-162zM694 1561l180 360q9 19 17 30.5t26.5 22.5t43.5 11q21 0 44 -17t23 -45q0 -35 -18 -55l-289 -307h-27z" />
    <glyph glyph-name="Thorn" unicode="&#xde;" horiz-adv-x="1327" 
d="M555 451v-422h188v-29h-673v29h188v1401h-188v28h673v-28h-188v-209h121q81 0 158 -9t161 -35.5t145.5 -67.5t101.5 -111t40 -160q0 -169 -164.5 -278t-478.5 -109h-84zM555 1186v-707h63q176 0 253 79t77 267q0 187 -70.5 277t-242.5 90q-11 0 -80 -6z" />
    <glyph glyph-name="germandbls" unicode="&#xdf;" horiz-adv-x="1327" 
d="M70 0v29h137v1009q0 105 25 179t92 143q134 131 352 131q65 0 117.5 -12.5t85 -34t55.5 -46.5t34.5 -54.5t16 -53t4.5 -45.5q0 -66 -23.5 -124.5t-51 -93t-51 -75.5t-23.5 -75q0 -41 22 -79.5t57 -71t77.5 -65.5t85.5 -70t78 -76.5t57 -91.5t22 -110q0 -142 -117.5 -242
t-283.5 -100q-48 0 -94 9.5t-89.5 29.5t-70.5 58t-27 90q0 51 37 80.5t90 29.5q39 0 71.5 -20.5t32.5 -57.5q0 -17 -11 -64.5t-11 -62.5q0 -63 86 -63q48 0 85.5 13.5t59 34t35.5 46t18.5 47t4.5 41.5q0 49 -22.5 95t-59 84t-80 74.5t-87 72.5t-80 72t-59 78.5t-22.5 86.5
t22.5 85t56 71.5t73 67t73 71.5t56 85t22.5 106q0 58 -20 102.5t-52 69t-67 36t-70 11.5q-69 0 -120.5 -19.5t-82 -50.5t-49 -77.5t-24.5 -91.5t-6 -101v-1110h-387z" />
    <glyph glyph-name="agrave" unicode="&#xe0;" horiz-adv-x="1062" 
d="M1020 51l18 -18q-26 -39 -72.5 -50.5t-111.5 -11.5q-191 0 -217 142h-4q-32 -82 -88.5 -112t-167.5 -30q-53 0 -101.5 10.5t-92.5 32.5t-70.5 64t-26.5 98q0 33 8.5 62t21 49.5t35 39.5t42 31t51.5 25t54 20.5t58 18.5q177 54 223 83.5t46 102.5v125q0 63 -29 104.5
t-98 41.5q-117 0 -117 -101q0 -6 6 -54t6 -58q0 -84 -125 -84q-52 0 -85 21t-33 83q0 102 104 161.5t246 59.5q66 0 119 -7.5t102 -27.5t81.5 -52t52 -83.5t19.5 -118.5v-507q0 -46 14 -72.5t54 -26.5q42 0 78 39zM625 238v270h-4q-6 -25 -56 -49q-11 -5 -34 -15.5
t-35 -16.5t-32.5 -17t-31.5 -20t-26.5 -23t-24 -28.5t-17.5 -33.5t-12.5 -42t-3.5 -50q0 -195 133 -195q59 0 101.5 54.5t42.5 165.5zM440 1444l181 -361h-27l-289 308q-18 20 -18 55q0 28 23 44.5t44 16.5q25 0 43 -11t26 -22t17 -30z" />
    <glyph glyph-name="aacute" unicode="&#xe1;" horiz-adv-x="1062" 
d="M1020 51l18 -18q-26 -39 -72.5 -50.5t-111.5 -11.5q-191 0 -217 142h-4q-32 -82 -88.5 -112t-167.5 -30q-53 0 -101.5 10.5t-92.5 32.5t-70.5 64t-26.5 98q0 33 8.5 62t21 49.5t35 39.5t42 31t51.5 25t54 20.5t58 18.5q177 54 223 83.5t46 102.5v125q0 63 -29 104.5
t-98 41.5q-117 0 -117 -101q0 -6 6 -54t6 -58q0 -84 -125 -84q-52 0 -85 21t-33 83q0 102 104 161.5t246 59.5q66 0 119 -7.5t102 -27.5t81.5 -52t52 -83.5t19.5 -118.5v-507q0 -46 14 -72.5t54 -26.5q42 0 78 39zM625 238v270h-4q-6 -25 -56 -49q-11 -5 -34 -15.5
t-35 -16.5t-32.5 -17t-31.5 -20t-26.5 -23t-24 -28.5t-17.5 -33.5t-12.5 -42t-3.5 -50q0 -195 133 -195q59 0 101.5 54.5t42.5 165.5zM444 1083l181 361q9 19 17 30t26 22t43 11q21 0 44 -16.5t23 -44.5q0 -35 -18 -55l-289 -308h-27z" />
    <glyph glyph-name="acircumflex" unicode="&#xe2;" horiz-adv-x="1062" 
d="M1020 51l18 -18q-26 -39 -72.5 -50.5t-111.5 -11.5q-191 0 -217 142h-4q-32 -82 -88.5 -112t-167.5 -30q-53 0 -101.5 10.5t-92.5 32.5t-70.5 64t-26.5 98q0 33 8.5 62t21 49.5t35 39.5t42 31t51.5 25t54 20.5t58 18.5q177 54 223 83.5t46 102.5v125q0 63 -29 104.5
t-98 41.5q-117 0 -117 -101q0 -6 6 -54t6 -58q0 -84 -125 -84q-52 0 -85 21t-33 83q0 102 104 161.5t246 59.5q66 0 119 -7.5t102 -27.5t81.5 -52t52 -83.5t19.5 -118.5v-507q0 -46 14 -72.5t54 -26.5q42 0 78 39zM625 238v270h-4q-6 -25 -56 -49q-11 -5 -34 -15.5
t-35 -16.5t-32.5 -17t-31.5 -20t-26.5 -23t-24 -28.5t-17.5 -33.5t-12.5 -42t-3.5 -50q0 -195 133 -195q59 0 101.5 54.5t42.5 165.5zM236 1083l223 404h149l221 -404h-24l-273 260l-272 -260h-24z" />
    <glyph glyph-name="atilde" unicode="&#xe3;" horiz-adv-x="1062" 
d="M1020 51l18 -18q-26 -39 -72.5 -50.5t-111.5 -11.5q-191 0 -217 142h-4q-32 -82 -88.5 -112t-167.5 -30q-53 0 -101.5 10.5t-92.5 32.5t-70.5 64t-26.5 98q0 33 8.5 62t21 49.5t35 39.5t42 31t51.5 25t54 20.5t58 18.5q177 54 223 83.5t46 102.5v125q0 63 -29 104.5
t-98 41.5q-117 0 -117 -101q0 -6 6 -54t6 -58q0 -84 -125 -84q-52 0 -85 21t-33 83q0 102 104 161.5t246 59.5q66 0 119 -7.5t102 -27.5t81.5 -52t52 -83.5t19.5 -118.5v-507q0 -46 14 -72.5t54 -26.5q42 0 78 39zM625 238v270h-4q-6 -25 -56 -49q-11 -5 -34 -15.5
t-35 -16.5t-32.5 -17t-31.5 -20t-26.5 -23t-24 -28.5t-17.5 -33.5t-12.5 -42t-3.5 -50q0 -195 133 -195q59 0 101.5 54.5t42.5 165.5zM266 1221l-24 -56h-29q29 80 38.5 105t25 52.5t34.5 43.5q18 15 50.5 26t54.5 11q21 0 167 -41t158 -41q35 0 56.5 35.5t25.5 58.5h29
q-7 -34 -20.5 -68.5t-36.5 -75.5t-59.5 -67t-80.5 -26q-43 0 -171.5 42t-159.5 42q-16 0 -33 -10.5t-25 -30.5z" />
    <glyph glyph-name="adieresis" unicode="&#xe4;" horiz-adv-x="1062" 
d="M1020 51l18 -18q-26 -39 -72.5 -50.5t-111.5 -11.5q-191 0 -217 142h-4q-32 -82 -88.5 -112t-167.5 -30q-53 0 -101.5 10.5t-92.5 32.5t-70.5 64t-26.5 98q0 33 8.5 62t21 49.5t35 39.5t42 31t51.5 25t54 20.5t58 18.5q177 54 223 83.5t46 102.5v125q0 63 -29 104.5
t-98 41.5q-117 0 -117 -101q0 -6 6 -54t6 -58q0 -84 -125 -84q-52 0 -85 21t-33 83q0 102 104 161.5t246 59.5q66 0 119 -7.5t102 -27.5t81.5 -52t52 -83.5t19.5 -118.5v-507q0 -46 14 -72.5t54 -26.5q42 0 78 39zM625 238v270h-4q-6 -25 -56 -49q-11 -5 -34 -15.5
t-35 -16.5t-32.5 -17t-31.5 -20t-26.5 -23t-24 -28.5t-17.5 -33.5t-12.5 -42t-3.5 -50q0 -195 133 -195q59 0 101.5 54.5t42.5 165.5zM223 1319q0 54 38.5 92.5t92.5 38.5t92.5 -38.5t38.5 -92.5t-38.5 -92.5t-92.5 -38.5t-92.5 38.5t-38.5 92.5zM580 1319q0 54 38.5 92.5
t92.5 38.5t92.5 -38.5t38.5 -92.5t-38.5 -92.5t-92.5 -38.5t-92.5 38.5t-38.5 92.5z" />
    <glyph glyph-name="aring" unicode="&#xe5;" horiz-adv-x="1062" 
d="M1020 51l18 -18q-26 -39 -72.5 -50.5t-111.5 -11.5q-191 0 -217 142h-4q-32 -82 -88.5 -112t-167.5 -30q-53 0 -101.5 10.5t-92.5 32.5t-70.5 64t-26.5 98q0 33 8.5 62t21 49.5t35 39.5t42 31t51.5 25t54 20.5t58 18.5q177 54 223 83.5t46 102.5v125q0 63 -29 104.5
t-98 41.5q-117 0 -117 -101q0 -6 6 -54t6 -58q0 -84 -125 -84q-52 0 -85 21t-33 83q0 102 104 161.5t246 59.5q66 0 119 -7.5t102 -27.5t81.5 -52t52 -83.5t19.5 -118.5v-507q0 -46 14 -72.5t54 -26.5q42 0 78 39zM625 238v270h-4q-6 -25 -56 -49q-11 -5 -34 -15.5
t-35 -16.5t-32.5 -17t-31.5 -20t-26.5 -23t-24 -28.5t-17.5 -33.5t-12.5 -42t-3.5 -50q0 -195 133 -195q59 0 101.5 54.5t42.5 165.5zM748 1288q0 -75 -57.5 -139t-158.5 -64q-100 0 -157.5 64t-57.5 139t57.5 139t157.5 64q101 0 158.5 -64t57.5 -139zM532 1468
q-57 0 -76.5 -43t-19.5 -137t19.5 -137t76.5 -43t77 43.5t20 136.5t-20 136.5t-77 43.5z" />
    <glyph glyph-name="ae" unicode="&#xe6;" horiz-adv-x="1517" 
d="M63 176q0 33 8.5 62t21 49.5t35 39.5t42.5 31t52 25t54 20.5t58 18.5q60 17 90 26.5t66.5 22t52 21.5t33.5 21t24 25.5t10 30t4 39.5v150q0 18 -3.5 34.5t-15 38.5t-39 35t-69.5 13q-116 0 -116 -101q0 -6 6 -54t6 -58q0 -84 -125 -84q-24 0 -42.5 3.5t-37 13.5t-29 32
t-10.5 55q0 102 104 161.5t246 59.5q116 0 183 -23t125 -67q111 90 243 90q56 0 110.5 -13.5t106.5 -44.5t91.5 -75.5t63.5 -111.5t24 -148h-572v-92q0 -48 1.5 -85t7 -83.5t15 -80t26.5 -68t40.5 -56.5t58.5 -35.5t79 -13.5q61 0 113.5 20.5t85.5 49.5t57 64t34.5 61
t12.5 43l28 -11q-9 -33 -25 -65.5t-46 -68t-68.5 -61.5t-96.5 -43.5t-126 -17.5q-321 0 -418 230h-4q-3 -47 -16.5 -84t-43 -72t-87 -54.5t-138.5 -19.5q-53 0 -101.5 10.5t-92.5 32.5t-70.5 64t-26.5 98zM614 238v270h-4q-2 -7 -8.5 -13t-22.5 -15l-16 -9q-27 -18 -68 -39
t-66 -36t-51.5 -38.5t-39 -59t-12.5 -85.5q0 -195 133 -195q61 0 108 55t47 165zM864 543h295v137q0 21 -1 35t-4 41t-12 45.5t-22.5 38t-37.5 29.5t-56 10q-52 0 -86 -29t-48.5 -83t-19.5 -101t-8 -111v-12z" />
    <glyph glyph-name="ccedilla" unicode="&#xe7;" horiz-adv-x="985" 
d="M418 -190l-29 28l129 139q-51 4 -103.5 17.5t-116.5 47t-112 82t-81 131t-33 185.5q0 60 19.5 123.5t61 125t99.5 110t142 78.5t181 30q154 0 251.5 -62.5t97.5 -164.5q0 -65 -33.5 -94t-99.5 -29q-127 0 -127 90q0 11 15 72t15 72q0 40 -35 64t-90 24q-48 0 -84 -15
t-60 -45t-39.5 -66.5t-23.5 -88t-11 -100t-3 -111.5q0 -52 1.5 -92t7.5 -89.5t16.5 -86t30 -73.5t46 -60t65.5 -37.5t89 -14.5q63 0 116.5 20t86 48.5t56.5 63.5t34.5 61t13.5 45l29 -11q-9 -33 -22.5 -63.5t-42 -67t-66.5 -63t-98 -44.5t-133 -18h-23l-119 -118l4 -5
q64 29 107 29q74 0 130 -50.5t56 -123.5q0 -92 -68.5 -143.5t-162.5 -51.5q-49 0 -84 14t-80 48l18 24q27 -18 39.5 -25.5t33.5 -13.5t46 -6q96 0 96 146q0 29 -1.5 46.5t-8 41t-23.5 35.5t-44 12q-43 0 -76 -20z" />
    <glyph glyph-name="egrave" unicode="&#xe8;" horiz-adv-x="1024" 
d="M952 514h-604v-92q0 -58 2.5 -100t10.5 -95.5t25.5 -90t45 -69.5t72.5 -50t104 -17q61 0 113.5 20.5t85.5 49.5t57 64t34.5 61t12.5 43l29 -11q-9 -33 -25 -65.5t-46 -68t-68.5 -61.5t-96.5 -43.5t-126 -17.5q-219 0 -362.5 128t-143.5 343q0 117 63 224t174 174t240 67
q58 0 114 -13.5t109 -44.5t92.5 -75.5t63.5 -111.5t24 -148zM348 543h328v137q0 21 -1 35t-4 41t-12 45.5t-22.5 38t-37.5 29.5t-56 10q-30 0 -55 -7.5t-43 -18t-33 -31.5t-24 -36.5t-16.5 -46t-11 -47t-6.5 -52t-3.5 -48.5t-2.5 -49zM420 1444l180 -361h-27l-288 308
q-19 21 -19 55q0 28 23 44.5t45 16.5q25 0 43 -11t26 -22t17 -30z" />
    <glyph glyph-name="eacute" unicode="&#xe9;" horiz-adv-x="1024" 
d="M952 514h-604v-92q0 -58 2.5 -100t10.5 -95.5t25.5 -90t45 -69.5t72.5 -50t104 -17q61 0 113.5 20.5t85.5 49.5t57 64t34.5 61t12.5 43l29 -11q-9 -33 -25 -65.5t-46 -68t-68.5 -61.5t-96.5 -43.5t-126 -17.5q-219 0 -362.5 128t-143.5 343q0 117 63 224t174 174t240 67
q58 0 114 -13.5t109 -44.5t92.5 -75.5t63.5 -111.5t24 -148zM348 543h328v137q0 21 -1 35t-4 41t-12 45.5t-22.5 38t-37.5 29.5t-56 10q-30 0 -55 -7.5t-43 -18t-33 -31.5t-24 -36.5t-16.5 -46t-11 -47t-6.5 -52t-3.5 -48.5t-2.5 -49zM424 1083l180 361q9 19 17 30t26 22
t43 11q22 0 45 -16.5t23 -44.5q0 -34 -19 -55l-288 -308h-27z" />
    <glyph glyph-name="ecircumflex" unicode="&#xea;" horiz-adv-x="1024" 
d="M952 514h-604v-92q0 -58 2.5 -100t10.5 -95.5t25.5 -90t45 -69.5t72.5 -50t104 -17q61 0 113.5 20.5t85.5 49.5t57 64t34.5 61t12.5 43l29 -11q-9 -33 -25 -65.5t-46 -68t-68.5 -61.5t-96.5 -43.5t-126 -17.5q-219 0 -362.5 128t-143.5 343q0 117 63 224t174 174t240 67
q58 0 114 -13.5t109 -44.5t92.5 -75.5t63.5 -111.5t24 -148zM348 543h328v137q0 21 -1 35t-4 41t-12 45.5t-22.5 38t-37.5 29.5t-56 10q-30 0 -55 -7.5t-43 -18t-33 -31.5t-24 -36.5t-16.5 -46t-11 -47t-6.5 -52t-3.5 -48.5t-2.5 -49zM215 1083l223 404h150l221 -404h-25
l-272 260l-272 -260h-25z" />
    <glyph glyph-name="edieresis" unicode="&#xeb;" horiz-adv-x="1024" 
d="M952 514h-604v-92q0 -58 2.5 -100t10.5 -95.5t25.5 -90t45 -69.5t72.5 -50t104 -17q61 0 113.5 20.5t85.5 49.5t57 64t34.5 61t12.5 43l29 -11q-9 -33 -25 -65.5t-46 -68t-68.5 -61.5t-96.5 -43.5t-126 -17.5q-219 0 -362.5 128t-143.5 343q0 117 63 224t174 174t240 67
q58 0 114 -13.5t109 -44.5t92.5 -75.5t63.5 -111.5t24 -148zM348 543h328v137q0 21 -1 35t-4 41t-12 45.5t-22.5 38t-37.5 29.5t-56 10q-30 0 -55 -7.5t-43 -18t-33 -31.5t-24 -36.5t-16.5 -46t-11 -47t-6.5 -52t-3.5 -48.5t-2.5 -49zM203 1319q0 54 38.5 92.5t92.5 38.5
t92.5 -38.5t38.5 -92.5t-38.5 -92.5t-92.5 -38.5t-92.5 38.5t-38.5 92.5zM559 1319q0 54 38.5 92.5t92.5 38.5t92.5 -38.5t38.5 -92.5t-38.5 -92.5t-92.5 -38.5t-92.5 38.5t-38.5 92.5z" />
    <glyph glyph-name="igrave" unicode="&#xec;" horiz-adv-x="645" 
d="M74 850v29h387v-850h137v-29h-524v29h137v821h-137zM231 1444l181 -361h-27l-289 308q-18 20 -18 55q0 28 23 44.5t44 16.5q25 0 43 -11t26 -22t17 -30z" />
    <glyph glyph-name="iacute" unicode="&#xed;" horiz-adv-x="645" 
d="M74 850v29h387v-850h137v-29h-524v29h137v821h-137zM236 1083l180 361q9 19 17 30t26 22t43 11q21 0 44 -16.5t23 -44.5q0 -35 -18 -55l-289 -308h-26z" />
    <glyph glyph-name="icircumflex" unicode="&#xee;" horiz-adv-x="645" 
d="M74 850v29h387v-850h137v-29h-524v29h137v821h-137zM27 1083l223 404h149l222 -404h-25l-272 260l-273 -260h-24z" />
    <glyph glyph-name="idieresis" unicode="&#xef;" horiz-adv-x="645" 
d="M74 850v29h387v-850h137v-29h-524v29h137v821h-137zM14 1319q0 54 38.5 92.5t92.5 38.5t92.5 -38.5t38.5 -92.5t-38.5 -92.5t-92.5 -38.5t-92.5 38.5t-38.5 92.5zM371 1319q0 54 38.5 92.5t92.5 38.5t92.5 -38.5t38.5 -92.5t-38.5 -92.5t-92.5 -38.5t-92.5 38.5
t-38.5 92.5z" />
    <glyph glyph-name="eth" unicode="&#xf0;" 
d="M272 1102l234 153q-91 94 -252 175l16 28q180 -73 308 -155l237 155l16 -22l-229 -152q467 -322 467 -782q0 -100 -23 -183t-58.5 -136.5t-84.5 -94.5t-95 -62.5t-96.5 -34.5t-83 -16.5t-59.5 -3.5q-138 0 -253.5 64t-180.5 171.5t-65 233.5q0 125 65 232t180.5 171
t253.5 64q53 0 88 -13t82 -42q-10 35 -29 84.5t-70.5 139t-115.5 159.5l-235 -156zM346 440q0 -57 1 -95t6 -88t13.5 -83.5t25 -69t40 -56.5t58.5 -34.5t79 -13.5t79 13.5t58.5 34.5t40 56.5t25.5 69t14 83.5t6 88.5t1 94.5t-1 94t-6 88t-14 83.5t-25.5 69t-40 56.5
t-58.5 34.5t-79 13.5t-79 -13.5t-58.5 -34.5t-40 -56.5t-25 -69t-13.5 -83.5t-6 -88t-1 -94z" />
    <glyph glyph-name="ntilde" unicode="&#xf1;" horiz-adv-x="1290" 
d="M86 0v29h135v821h-135v29h381v-205h4q12 26 21 44t38.5 55.5t63.5 61t92 43t127 19.5q131 0 208 -79t77 -212v-577h137v-29h-514v29h127v647q0 82 -34.5 124t-94.5 42q-105 0 -176.5 -98t-71.5 -277v-438h129v-29h-514zM379 1221l-25 -56h-28q29 80 38.5 105t25 52.5
t34.5 43.5q18 15 50 26t54 11q21 0 167.5 -41t158.5 -41q35 0 56.5 35.5t25.5 58.5h29q-7 -34 -20.5 -68.5t-36.5 -75.5t-59.5 -67t-80.5 -26q-43 0 -172 42t-160 42q-15 0 -32 -10.5t-25 -30.5z" />
    <glyph glyph-name="ograve" unicode="&#xf2;" 
d="M569 907q138 0 253.5 -64t181 -171t65.5 -232q0 -192 -145 -330.5t-355 -138.5q-138 0 -253.5 64t-180.5 171.5t-65 233.5q0 125 65 232t180.5 171t253.5 64zM569 0q44 0 79 13.5t58.5 34.5t40 56.5t25.5 69t14 83.5t6 88.5t1 94.5t-1 94t-6 88t-14 83.5t-25.5 69
t-40 56.5t-58.5 34.5t-79 13.5t-79 -13.5t-58.5 -34.5t-40 -56.5t-25 -69t-13.5 -83.5t-6 -88t-1 -94q0 -57 1 -95t6 -88t13.5 -83.5t25 -69t40 -56.5t58.5 -34.5t79 -13.5zM477 1444l180 -361h-26l-289 308q-18 20 -18 55q0 28 23 44.5t44 16.5q25 0 43 -11t26 -22t17 -30z
" />
    <glyph glyph-name="oacute" unicode="&#xf3;" 
d="M569 907q138 0 253.5 -64t181 -171t65.5 -232q0 -192 -145 -330.5t-355 -138.5q-138 0 -253.5 64t-180.5 171.5t-65 233.5q0 125 65 232t180.5 171t253.5 64zM569 0q44 0 79 13.5t58.5 34.5t40 56.5t25.5 69t14 83.5t6 88.5t1 94.5t-1 94t-6 88t-14 83.5t-25.5 69
t-40 56.5t-58.5 34.5t-79 13.5t-79 -13.5t-58.5 -34.5t-40 -56.5t-25 -69t-13.5 -83.5t-6 -88t-1 -94q0 -57 1 -95t6 -88t13.5 -83.5t25 -69t40 -56.5t58.5 -34.5t79 -13.5zM481 1083l181 361q9 19 17 30t26 22t43 11q21 0 44 -16.5t23 -44.5q0 -35 -18 -55l-289 -308h-27z
" />
    <glyph glyph-name="ocircumflex" unicode="&#xf4;" 
d="M569 907q138 0 253.5 -64t181 -171t65.5 -232q0 -192 -145 -330.5t-355 -138.5q-138 0 -253.5 64t-180.5 171.5t-65 233.5q0 125 65 232t180.5 171t253.5 64zM569 0q44 0 79 13.5t58.5 34.5t40 56.5t25.5 69t14 83.5t6 88.5t1 94.5t-1 94t-6 88t-14 83.5t-25.5 69
t-40 56.5t-58.5 34.5t-79 13.5t-79 -13.5t-58.5 -34.5t-40 -56.5t-25 -69t-13.5 -83.5t-6 -88t-1 -94q0 -57 1 -95t6 -88t13.5 -83.5t25 -69t40 -56.5t58.5 -34.5t79 -13.5zM272 1083l224 404h149l221 -404h-24l-273 260l-272 -260h-25z" />
    <glyph glyph-name="otilde" unicode="&#xf5;" 
d="M569 907q138 0 253.5 -64t181 -171t65.5 -232q0 -192 -145 -330.5t-355 -138.5q-138 0 -253.5 64t-180.5 171.5t-65 233.5q0 125 65 232t180.5 171t253.5 64zM569 0q44 0 79 13.5t58.5 34.5t40 56.5t25.5 69t14 83.5t6 88.5t1 94.5t-1 94t-6 88t-14 83.5t-25.5 69
t-40 56.5t-58.5 34.5t-79 13.5t-79 -13.5t-58.5 -34.5t-40 -56.5t-25 -69t-13.5 -83.5t-6 -88t-1 -94q0 -57 1 -95t6 -88t13.5 -83.5t25 -69t40 -56.5t58.5 -34.5t79 -13.5zM303 1221l-24 -56h-29q29 80 38.5 105t25 52.5t34.5 43.5q18 15 50.5 26t54.5 11q21 0 167 -41
t158 -41q35 0 56.5 35.5t25.5 58.5h29q-7 -34 -20.5 -68.5t-36.5 -75.5t-59.5 -67t-80.5 -26q-43 0 -172 42t-160 42q-15 0 -32 -10.5t-25 -30.5z" />
    <glyph glyph-name="odieresis" unicode="&#xf6;" 
d="M569 907q138 0 253.5 -64t181 -171t65.5 -232q0 -192 -145 -330.5t-355 -138.5q-138 0 -253.5 64t-180.5 171.5t-65 233.5q0 125 65 232t180.5 171t253.5 64zM569 0q44 0 79 13.5t58.5 34.5t40 56.5t25.5 69t14 83.5t6 88.5t1 94.5t-1 94t-6 88t-14 83.5t-25.5 69
t-40 56.5t-58.5 34.5t-79 13.5t-79 -13.5t-58.5 -34.5t-40 -56.5t-25 -69t-13.5 -83.5t-6 -88t-1 -94q0 -57 1 -95t6 -88t13.5 -83.5t25 -69t40 -56.5t58.5 -34.5t79 -13.5zM260 1319q0 54 38.5 92.5t92.5 38.5t92.5 -38.5t38.5 -92.5t-38.5 -92.5t-92.5 -38.5t-92.5 38.5
t-38.5 92.5zM616 1319q0 54 39 92.5t93 38.5t92.5 -38.5t38.5 -92.5t-38.5 -92.5t-92.5 -38.5t-93 38.5t-39 92.5z" />
    <glyph glyph-name="divide" unicode="&#xf7;" horiz-adv-x="1214" 
d="M115 473v37h983v-37h-983zM461 168q0 60 42.5 102.5t102.5 42.5t103 -42.5t43 -102.5t-43 -102.5t-103 -42.5t-102.5 42.5t-42.5 102.5zM461 815q0 60 42.5 103t102.5 43t103 -43t43 -103t-43 -102.5t-103 -42.5t-102.5 42.5t-42.5 102.5z" />
    <glyph glyph-name="oslash" unicode="&#xf8;" 
d="M745 774l-348 -674q48 -100 172 -100q44 0 79 13.5t58.5 34.5t40 56.5t25.5 69t14 83.5t6 88.5t1 94.5q0 240 -48 334zM383 139l344 666q-52 74 -158 74q-44 0 -79 -13.5t-58.5 -34.5t-40 -56.5t-25 -69t-13.5 -83.5t-6 -88t-1 -94q0 -214 37 -301zM240 -137l88 170
q-118 59 -188 168.5t-70 238.5q0 125 65 232t180.5 171t253.5 64q104 0 191 -37l84 162l28 -12l-84 -162q127 -56 204 -169.5t77 -248.5q0 -192 -145 -330.5t-355 -138.5q-123 0 -215 47l-86 -168z" />
    <glyph glyph-name="ugrave" unicode="&#xf9;" horiz-adv-x="1251" 
d="M55 850v29h387v-650q0 -84 33.5 -135t106.5 -51q93 0 152 81.5t59 197.5v528h-136v29h385v-850h136v-29h-381v166h-4q-32 -85 -120 -134.5t-186 -49.5q-147 0 -220.5 65.5t-73.5 210.5v592h-138zM535 1444l180 -361h-27l-289 308q-18 20 -18 55q0 28 23 44.5t45 16.5
q25 0 43 -11t26 -22t17 -30z" />
    <glyph glyph-name="uacute" unicode="&#xfa;" horiz-adv-x="1251" 
d="M55 850v29h387v-650q0 -84 33.5 -135t106.5 -51q93 0 152 81.5t59 197.5v528h-136v29h385v-850h136v-29h-381v166h-4q-32 -85 -120 -134.5t-186 -49.5q-147 0 -220.5 65.5t-73.5 210.5v592h-138zM539 1083l180 361q9 19 17 30t26 22t43 11q21 0 44 -16.5t23 -44.5
q0 -35 -18 -55l-289 -308h-26z" />
    <glyph glyph-name="ucircumflex" unicode="&#xfb;" horiz-adv-x="1251" 
d="M55 850v29h387v-650q0 -84 33.5 -135t106.5 -51q93 0 152 81.5t59 197.5v528h-136v29h385v-850h136v-29h-381v166h-4q-32 -85 -120 -134.5t-186 -49.5q-147 0 -220.5 65.5t-73.5 210.5v592h-138zM330 1083l223 404h149l222 -404h-25l-272 260l-273 -260h-24z" />
    <glyph glyph-name="udieresis" unicode="&#xfc;" horiz-adv-x="1251" 
d="M55 850v29h387v-650q0 -84 33.5 -135t106.5 -51q93 0 152 81.5t59 197.5v528h-136v29h385v-850h136v-29h-381v166h-4q-32 -85 -120 -134.5t-186 -49.5q-147 0 -220.5 65.5t-73.5 210.5v592h-138zM309 1319q0 54 38.5 92.5t92.5 38.5t92.5 -38.5t38.5 -92.5t-38.5 -92.5
t-92.5 -38.5t-92.5 38.5t-38.5 92.5zM666 1319q0 54 38.5 92.5t92.5 38.5t92.5 -38.5t38.5 -92.5t-38.5 -92.5t-92.5 -38.5t-92.5 38.5t-38.5 92.5z" />
    <glyph glyph-name="yacute" unicode="&#xfd;" horiz-adv-x="985" 
d="M362 850l250 -592l260 592h-170v29h297v-29h-94q-173 -374 -334 -778.5t-198 -481.5q-43 -92 -96 -135t-134 -43q-93 0 -152 45t-59 121q0 56 36.5 84.5t94.5 28.5q42 0 75.5 -23t33.5 -63q0 -25 -13.5 -59t-13.5 -54q0 -22 11.5 -33.5t29.5 -11.5q29 0 56.5 19t47 43
t41.5 65t33 67t27 66l88 219l-385 924h-110v29h522v-29h-144zM455 1083l180 361q9 19 17 30t26 22t43 11q21 0 44 -16.5t23 -44.5q0 -35 -18 -55l-289 -308h-26z" />
    <glyph glyph-name="thorn" unicode="&#xfe;" horiz-adv-x="1214" 
d="M199 -545v1993h-136v29h386v-742h4q64 172 237 172q91 0 167 -30.5t126.5 -79t86 -111t51.5 -125t16 -121.5q0 -122 -55.5 -229t-159 -173.5t-232.5 -66.5q-88 0 -147.5 48.5t-89.5 127.5h-4v-692h139v-28h-525v28h136zM449 438q0 -45 1 -79t6.5 -82.5t15 -84t27.5 -73.5
t43 -62.5t63 -40.5t85 -16q37 0 65 13.5t46.5 42t30.5 63t18 88t8 106t2 125.5q0 247 -41 344t-145 97q-42 0 -76 -15.5t-57.5 -40t-40.5 -61t-26.5 -74t-15.5 -84t-7.5 -84.5t-1.5 -82z" />
    <glyph glyph-name="ydieresis" unicode="&#xff;" horiz-adv-x="985" 
d="M362 850l250 -592l260 592h-170v29h297v-29h-94q-173 -374 -334 -778.5t-198 -481.5q-43 -92 -96 -135t-134 -43q-93 0 -152 45t-59 121q0 56 36.5 84.5t94.5 28.5q42 0 75.5 -23t33.5 -63q0 -25 -13.5 -59t-13.5 -54q0 -22 11.5 -33.5t29.5 -11.5q29 0 56.5 19t47 43
t41.5 65t33 67t27 66l88 219l-385 924h-110v29h522v-29h-144zM205 1319q0 54 38.5 92.5t92.5 38.5t92.5 -38.5t38.5 -92.5t-38.5 -92.5t-92.5 -38.5t-92.5 38.5t-38.5 92.5zM561 1319q0 54 38.5 92.5t92.5 38.5t92.5 -38.5t38.5 -92.5t-38.5 -92.5t-92.5 -38.5t-92.5 38.5
t-38.5 92.5z" />
    <glyph glyph-name="dotlessi" unicode="&#x131;" horiz-adv-x="645" 
d="M74 850v29h387v-850h137v-29h-524v29h137v821h-137z" />
    <glyph glyph-name="Lslash" unicode="&#x141;" horiz-adv-x="1478" 
d="M283 29v645l-189 -107v41l189 107v715h-189v28h674v-28h-188v-562l303 170v-41l-303 -170v-798h338q70 0 136 23.5t128 73t110.5 136t73.5 201.5h27v-463h-1299v29h189z" />
    <glyph glyph-name="lslash" unicode="&#x142;" horiz-adv-x="645" 
d="M211 735v713h-137v29h387v-596l137 80v-41l-137 -80v-811h137v-29h-524v29h137v665l-137 -80v41z" />
    <glyph glyph-name="OE" unicode="&#x152;" horiz-adv-x="2238" 
d="M2169 449v-449h-975q-80 0 -160 -6q-159 -6 -160 -6q-152 0 -283 48.5t-219 125.5t-151 174.5t-92 193.5t-29 183q0 157 66 299.5t173.5 241.5t247.5 157.5t285 58.5q96 0 187 -6q183 -6 186 -6h840v-350h-27q-8 25 -16.5 46.5t-26 56t-37 62.5t-51 58.5t-67 51t-84.5 34
t-105 13.5h-325v-633h114q141 0 209 76.5t100 228.5h27v-637h-27q-16 68 -35 116.5t-51 94t-82 69t-118 23.5h-137v-739h335q181 0 299 115.5t162 304.5h27zM1049 35v1388q-108 19 -179 19q-68 0 -124 -13t-98 -34.5t-75 -58t-55.5 -73.5t-38 -91t-24.5 -101t-13.5 -113
t-6 -117.5t-1.5 -123.5q0 -267 42.5 -417.5t136.5 -217t261 -66.5q87 0 175 19z" />
    <glyph glyph-name="oe" unicode="&#x153;" horiz-adv-x="1744" 
d="M573 0q44 0 79 13.5t58.5 34.5t40 56.5t25.5 69t14 83.5t6 88.5t1 94.5t-1 94t-6 88t-14 83.5t-25.5 69t-40 56.5t-58.5 34.5t-79 13.5t-79 -13.5t-58.5 -34.5t-40 -56.5t-25 -69t-13.5 -83.5t-6 -88t-1 -94q0 -57 1 -95t6 -88t13.5 -83.5t25 -69t40 -56.5t58.5 -34.5
t79 -13.5zM1671 514h-604v-92q0 -58 2.5 -100t10.5 -95.5t25.5 -90t45 -69.5t72.5 -50t104 -17q61 0 113.5 20.5t85.5 49.5t57 64t34.5 61t12.5 43l29 -11q-9 -33 -25 -65.5t-46 -67.5t-68.5 -61.5t-95.5 -44t-124 -17.5q-229 0 -372 140q-150 -140 -355 -140
q-138 0 -253.5 64t-180.5 171.5t-65 233.5q0 125 65 232t180.5 171t253.5 64q107 0 201 -39t160 -108q65 68 152.5 107.5t185.5 39.5q57 0 112.5 -13.5t107.5 -44.5t91.5 -75.5t63.5 -111.5t24 -148zM1067 543h328v137q0 21 -1 35t-4 41t-12 45.5t-22.5 38t-37.5 29.5
t-56 10q-30 0 -55 -7.5t-43 -18t-33 -31.5t-24 -36.5t-16.5 -46t-11 -47t-6.5 -52t-3.5 -48.5t-2.5 -49z" />
    <glyph glyph-name="Scaron" unicode="&#x160;" horiz-adv-x="1327" 
d="M129 0v455h31q14 -76 53 -168.5t113 -165.5q36 -35 74 -59.5t67 -37t66 -18.5t56.5 -7t53.5 -1q82 0 147.5 23t104 57.5t64.5 79t35.5 83.5t9.5 74q0 65 -29 113.5t-77.5 78.5t-112 53.5t-133.5 43.5t-140 42.5t-133.5 56.5t-112 80t-77.5 119t-29 167q0 81 37 157.5
t100.5 135t157 94t198.5 35.5q78 0 146.5 -19t115 -38t70.5 -19q27 0 37.5 8.5t19.5 34.5h33v-389h-26q-25 76 -40.5 115.5t-50 101.5t-71.5 94t-98 57t-138 25q-153 0 -245.5 -78.5t-92.5 -177.5q0 -60 30 -106.5t81 -77t117 -55.5t139 -47t145.5 -46t138.5 -58.5
t117 -79.5t81 -113.5t30 -155.5q0 -100 -42 -191t-115 -159t-179.5 -108t-228.5 -40q-73 0 -161.5 19.5t-154.5 39t-86 19.5q-27 0 -39.5 -9.5t-23.5 -37.5h-33zM961 1964l-224 -403h-149l-221 403h24l273 -260l272 260h25z" />
    <glyph glyph-name="scaron" unicode="&#x161;" horiz-adv-x="872" 
d="M90 0v297h29q24 -59 39 -91.5t44 -78t58 -69t74 -41t100 -17.5q182 0 182 158q0 47 -31.5 84t-129.5 73l-166 62q-187 71 -187 237q0 122 94.5 207.5t241.5 85.5q60 0 134.5 -25.5t82.5 -25.5q30 0 39 27h29v-250h-27l-21 49.5t-20.5 44.5t-24 43t-27 35.5t-33.5 31.5
t-39 22t-49 15.5t-58 4.5q-73 0 -126.5 -37.5t-53.5 -104.5q0 -14 2 -26t10.5 -29t23.5 -31.5t44 -31t69 -29.5l174 -60q226 -78 226 -264q0 -130 -105 -212.5t-246 -82.5q-56 0 -162 29t-124 29q-16 0 -23 -6.5t-14 -22.5h-29zM733 1487l-223 -404h-150l-221 404h25
l272 -260l273 260h24z" />
    <glyph glyph-name="Ydieresis" unicode="&#x178;" horiz-adv-x="1441" 
d="M-33 1430v28h662v-28h-162l418 -715l377 715h-179v28h392v-28h-179l-395 -752v-649h191v-29h-676v29h188v571l-475 830h-162zM473 1755q0 54 38.5 92.5t92.5 38.5t92.5 -38.5t38.5 -92.5t-38.5 -92.5t-92.5 -38.5t-92.5 38.5t-38.5 92.5zM829 1755q0 54 39 92.5t93 38.5
t92.5 -38.5t38.5 -92.5t-38.5 -92.5t-92.5 -38.5t-93 38.5t-39 92.5z" />
    <glyph glyph-name="Zcaron" unicode="&#x17d;" horiz-adv-x="1402" 
d="M70 0l823 1430h-285q-81 0 -143 -21t-108.5 -66t-78.5 -97t-67 -130h-27v342h1061l-827 -1429h370q84 0 157.5 23.5t139 73t115 135.5t74.5 202h26v-463h-1230zM999 1964l-223 -403h-149l-221 403h24l272 -260l273 260h24z" />
    <glyph glyph-name="zcaron" unicode="&#x17e;" horiz-adv-x="948" 
d="M70 0l497 850h-182q-54 0 -93.5 -12.5t-69.5 -42t-51.5 -65.5t-47.5 -95h-23l31 244h731l-495 -850h249q36 0 66.5 8.5t52 19.5t41 33.5t31 39t25.5 49t20 50t18 54.5h23l-23 -283h-800zM772 1487l-223 -404h-150l-221 404h25l272 -260l273 260h24z" />
    <glyph glyph-name="florin" unicode="&#x192;" 
d="M131 696v29h258q15 119 43 226.5t73 207.5t102.5 172.5t136 116t169.5 43.5q60 0 113.5 -18t93 -63t39.5 -110q0 -55 -39.5 -79.5t-79.5 -24.5q-112 0 -112 80q0 35 20.5 73.5t20.5 59.5q0 18 -10.5 29.5t-26 16t-25 6t-16.5 1.5q-34 0 -61.5 -10.5t-46.5 -26.5
t-34.5 -44.5t-24.5 -53t-16.5 -64t-11 -66.5t-8.5 -71q-3 -33 -16 -179.5t-15 -166.5l-6 -55h238v-29h-240q-23 -212 -60 -415.5t-73 -317.5q-67 -210 -85 -258q-77 -198 -180 -253q-48 -25 -104 -25q-78 0 -147.5 43.5t-69.5 119.5q0 48 32 74.5t81 26.5q38 0 66 -18
t28 -50q0 -15 -17.5 -61.5t-17.5 -59.5q0 -8 2.5 -16.5t19.5 -19.5t48 -11q158 0 168 361q0 10 2 86.5t2.5 92t2.5 84.5t3 91.5t3.5 84t4.5 92t5 84.5t6 91.5t7 84t9 89.5h-254z" />
    <glyph glyph-name="circumflex" unicode="&#x2c6;" horiz-adv-x="569" 
d="M-12 1083l223 404h149l222 -404h-25l-272 260l-273 -260h-24z" />
    <glyph glyph-name="caron" unicode="&#x2c7;" horiz-adv-x="569" 
d="M582 1487l-224 -404h-149l-221 404h24l273 -260l272 260h25z" />
    <glyph glyph-name="uni02C9" unicode="&#x2c9;" horiz-adv-x="569" 
d="M-45 1253v62h659v-62h-659z" />
    <glyph glyph-name="breve" unicode="&#x2d8;" horiz-adv-x="569" 
d="M-6 1458h24q28 -101 95.5 -142.5t171.5 -41.5t171 41.5t95 142.5h24q1 -156 -77 -237.5t-213 -81.5t-213.5 82t-77.5 237z" />
    <glyph glyph-name="dotaccent" unicode="&#x2d9;" horiz-adv-x="569" 
d="M154 1319q0 54 38.5 92.5t92.5 38.5t92.5 -38.5t38.5 -92.5t-38.5 -92.5t-92.5 -38.5t-92.5 38.5t-38.5 92.5z" />
    <glyph glyph-name="ring" unicode="&#x2da;" horiz-adv-x="569" 
d="M500 1288q0 -75 -57.5 -139t-157.5 -64t-157.5 64t-57.5 139t57.5 139t157.5 64t157.5 -64t57.5 -139zM285 1468q-57 0 -77 -43.5t-20 -136.5t20 -136.5t77 -43.5t76.5 43t19.5 137t-19.5 137t-76.5 43z" />
    <glyph glyph-name="ogonek" unicode="&#x2db;" horiz-adv-x="569" 
d="M293 -86l162 86h43q-105 -90 -150 -147.5t-45 -104.5q0 -11 2 -22t9 -30.5t27.5 -31.5t51.5 -12q51 0 90 29l15 -25q-60 -41 -95 -53.5t-94 -12.5q-84 0 -129 40t-45 98q0 102 158 186z" />
    <glyph glyph-name="tilde" unicode="&#x2dc;" horiz-adv-x="569" 
d="M18 1221l-24 -56h-29q29 80 38.5 105t25 52.5t34.5 43.5q18 15 50.5 26t54.5 11q21 0 167.5 -41t158.5 -41q25 0 44.5 22.5t27 41.5t9.5 30h29q-8 -34 -21 -68.5t-35.5 -75.5t-59 -67t-80.5 -26q-43 0 -172 42t-160 42q-16 0 -33 -10.5t-25 -30.5z" />
    <glyph glyph-name="hungarumlaut" unicode="&#x2dd;" horiz-adv-x="569" 
d="M322 1083l180 361q9 19 17 30t26 22t43 11q21 0 44 -16.5t23 -44.5q0 -35 -18 -55l-289 -308h-26zM72 1083l180 361q9 19 17 30t26 22t43 11q22 0 45 -16.5t23 -44.5q0 -34 -19 -55l-289 -308h-26z" />
    <glyph glyph-name="uni03A9" unicode="&#x3a9;" horiz-adv-x="1490" 
d="M1421 338l-53 -338h-506l-18 43q10 23 54.5 126.5t65.5 159t52.5 149t45.5 176t13 161.5q0 160 -26.5 278.5t-74 186t-105.5 99.5t-128 32q-74 0 -131.5 -30t-103 -97.5t-70 -187.5t-24.5 -289q0 -77 15.5 -164t34 -153t56.5 -162t58.5 -142.5t64.5 -142.5l-20 -43h-506
l-47 338l63 2q31 -94 63.5 -123t98.5 -29h196q-55 46 -91.5 80t-91.5 98.5t-88 126t-58 150t-25 182.5q0 148 47 272.5t129.5 209t195 131.5t241.5 47q267 0 435.5 -175t168.5 -472q0 -62 -12.5 -122.5t-31 -110t-50.5 -102t-59.5 -89.5t-70.5 -83.5t-71 -74t-72 -68.5h217
q65 0 94 27.5t60 124.5z" />
    <glyph glyph-name="uni03BC" unicode="&#x3bc;" horiz-adv-x="1251" 
d="M193 -573v1423h-138v29h387v-650q0 -84 33.5 -135t106.5 -51q93 0 152 81.5t59 197.5v528h-136v29h385v-850h136v-29h-381v166h-4q-30 -74 -101 -126t-135 -52q-68 0 -115 47v-608h-249z" />
    <glyph glyph-name="pi" unicode="&#x3c0;" horiz-adv-x="1191" 
d="M1079 1006l60 -17q-9 -62 -32 -129t-44 -98q-42 -12 -133 -12q-10 -113 -10 -437q0 -99 20.5 -143.5t63.5 -44.5q26 0 46.5 12t47.5 39l26 -53q-38 -66 -103.5 -108t-131.5 -42q-95 0 -150 64t-55 221q0 154 21 498q-55 0 -147 2t-130 2v-29q0 -171 -15.5 -309.5
t-40 -220t-43.5 -124.5t-36 -65q-76 -32 -141 -39l-17 43q103 142 149 349t46 399q-88 0 -137.5 -18t-122.5 -66l-35 59q4 6 19 24.5t22 27t23.5 27t28 28t31.5 25.5t37 24.5t41.5 19.5t49 16.5t55.5 9t64 3.5q474 -6 552 -6q50 0 73.5 13.5t47.5 54.5z" />
    <glyph glyph-name="endash" unicode="&#x2013;" horiz-adv-x="1024" 
d="M0 432v29h1024v-29h-1024z" />
    <glyph glyph-name="emdash" unicode="&#x2014;" horiz-adv-x="2048" 
d="M266 432v29h1516v-29h-1516z" />
    <glyph glyph-name="quoteleft" unicode="&#x2018;" horiz-adv-x="569" 
d="M403 1491l15 -27q-115 -79 -167 -135.5t-52 -124.5q0 -58 30 -84q33 21 86 21q51 0 96.5 -37.5t45.5 -108.5t-47.5 -108t-108.5 -37q-81 0 -134.5 65.5t-53.5 178.5q0 44 10.5 85.5t25.5 73t42 64t48 53.5t56 47.5t54.5 39t53.5 34.5z" />
    <glyph glyph-name="quoteright" unicode="&#x2019;" horiz-adv-x="569" 
d="M166 850l-14 27q115 79 167 135.5t52 124.5q0 57 -31 84q-33 -21 -86 -21q-51 0 -96 37.5t-45 108.5t47 108t108 37q81 0 135 -65.5t54 -178.5q0 -44 -10.5 -85.5t-25.5 -73t-42.5 -64t-48.5 -53.5t-56 -47.5t-54 -39t-54 -34.5z" />
    <glyph glyph-name="quotesinglbase" unicode="&#x201a;" horiz-adv-x="569" 
d="M166 -371l-14 27q115 79 167 135.5t52 124.5q0 57 -31 84q-11 -8 -41 -16q-28 -4 -45 -4q-51 0 -96 37t-45 108t47 108t108 37q81 0 135 -65t54 -178q0 -61 -20.5 -117t-46.5 -93t-72.5 -78t-74.5 -60t-77 -50z" />
    <glyph glyph-name="quotedblleft" unicode="&#x201c;" horiz-adv-x="948" 
d="M381 1491l14 -27q-115 -79 -167 -135.5t-52 -124.5q0 -57 31 -84q33 21 86 21q51 0 96 -37.5t45 -108.5t-47 -108t-108 -37q-81 0 -135 65.5t-54 178.5q0 44 10.5 85.5t25.5 73t42.5 64t48.5 53.5t56 47.5t54 39t54 34.5zM805 1491l14 -27q-115 -79 -167 -135.5
t-52 -124.5q0 -57 31 -84q33 21 86 21q51 0 96 -37.5t45 -108.5t-47.5 -108t-108.5 -37q-81 0 -134.5 65.5t-53.5 178.5q0 44 10.5 85.5t25.5 73t42.5 64t48.5 53.5t56 47.5t54 39t54 34.5z" />
    <glyph glyph-name="quotedblright" unicode="&#x201d;" horiz-adv-x="948" 
d="M567 850l-14 27q115 79 167 135.5t52 124.5q0 57 -31 84q-33 -21 -86 -21q-51 0 -96 37.5t-45 108.5t47.5 108t108.5 37q81 0 134.5 -65.5t53.5 -178.5q0 -44 -10.5 -85.5t-25.5 -73t-42.5 -64t-48.5 -53.5t-56 -47.5t-54 -39t-54 -34.5zM143 850l-14 27
q115 79 167 135.5t52 124.5q0 57 -31 84q-33 -21 -86 -21q-51 0 -96 37.5t-45 108.5t47.5 108t108.5 37q81 0 134.5 -65.5t53.5 -178.5q0 -44 -10.5 -85.5t-25.5 -73t-42.5 -64t-48.5 -53.5t-56 -47.5t-54 -39t-54 -34.5z" />
    <glyph glyph-name="quotedblbase" unicode="&#x201e;" horiz-adv-x="948" 
d="M567 -371l-14 27q115 79 167 135.5t52 124.5q0 57 -31 84q-11 -8 -41 -16q-28 -4 -45 -4q-51 0 -96 37t-45 108t47.5 108t108.5 37q81 0 134.5 -65t53.5 -178q0 -61 -20.5 -117t-46.5 -93t-72.5 -78t-74.5 -60t-77 -50zM143 -371l-14 27q115 79 167 135.5t52 124.5
q0 57 -31 84q-11 -8 -41 -16q-28 -4 -45 -4q-51 0 -96 37t-45 108t47.5 108t108.5 37q81 0 134.5 -65t53.5 -178q0 -61 -20.5 -117t-46.5 -93t-72.5 -78t-74.5 -60t-77 -50z" />
    <glyph glyph-name="dagger" unicode="&#x2020;" 
d="M432 1366q0 45 34.5 85t104.5 40q69 0 103.5 -40.5t34.5 -84.5q0 -29 -9.5 -53t-56.5 -117q-38 -79 -46.5 -122t-8.5 -124q123 0 170 29q5 3 30.5 21t46 31.5t49.5 25.5t50 12q58 0 96.5 -39t38.5 -94q0 -52 -36.5 -92.5t-92.5 -40.5q-31 0 -50.5 7t-48.5 28.5t-42 29.5
q-61 36 -103.5 46t-107.5 8q1 -52 2.5 -89.5t7 -89.5t16.5 -91.5t28 -80.5t45 -73.5t65 -55.5q-24 -19 -39 -32.5t-41.5 -50.5t-42.5 -79.5t-28.5 -114.5t-12.5 -159v-579h-35v579q0 87 -12.5 159t-28.5 114.5t-42.5 79.5t-41.5 50.5t-39 32.5q37 23 65 55.5t45 73.5
t28 80.5t16.5 91.5t7 89.5t2.5 89.5q-67 2 -109.5 -8t-103.5 -46q-15 -9 -35 -23.5t-31.5 -22t-31 -13.5t-43.5 -6q-56 0 -92.5 40.5t-36.5 92.5q0 55 38.5 94t96.5 39q21 0 50 -12t49.5 -25.5t46 -31.5t30.5 -21q47 -29 172 -29q0 81 -8.5 124t-46.5 122q-47 93 -56.5 117
t-9.5 53z" />
    <glyph glyph-name="daggerdbl" unicode="&#x2021;" 
d="M571 1491q69 0 103.5 -40.5t34.5 -84.5q0 -29 -9.5 -53t-56.5 -117q-38 -79 -46.5 -122t-8.5 -124q123 0 170 29q5 3 30.5 21t46 31.5t49.5 25.5t50 12q58 0 96.5 -39t38.5 -94q0 -52 -36.5 -92.5t-92.5 -40.5q-31 0 -50.5 7t-48.5 28.5t-42 29.5q-61 36 -103.5 46
t-107.5 8q1 -64 3 -108t12 -105.5t26.5 -104t47.5 -83t75 -62.5q-44 -22 -75 -62.5t-47.5 -83t-26.5 -104t-12 -105.5t-3 -108q66 -2 108.5 7.5t102.5 45.5q14 8 42 29.5t48 29t51 7.5q56 0 92.5 -40.5t36.5 -92.5q0 -55 -38.5 -94.5t-96.5 -39.5q-21 0 -50 12.5t-49.5 26
t-46 31.5t-30.5 21q-45 28 -170 28q0 -81 8.5 -124t46.5 -122q47 -93 56.5 -117t9.5 -53q0 -44 -34.5 -84t-103.5 -40q-70 0 -104.5 40t-34.5 84q0 29 9.5 53t56.5 117q38 79 46.5 122t8.5 124q-127 0 -172 -28q-5 -3 -30.5 -21t-46 -31.5t-49.5 -26t-50 -12.5
q-58 0 -96.5 39.5t-38.5 94.5q0 52 36.5 92.5t92.5 40.5q31 0 51 -7.5t48 -29t42 -29.5q61 -36 103 -45.5t110 -7.5q-1 64 -3 108t-12 105.5t-26.5 104t-47.5 83t-75 62.5q44 22 75 62.5t47.5 83t26.5 104t12 105.5t3 108q-67 2 -109.5 -8t-103.5 -46q-15 -9 -35 -23.5
t-31.5 -22t-31 -13.5t-43.5 -6q-56 0 -92.5 40.5t-36.5 92.5q0 55 38.5 94t96.5 39q21 0 50 -12t49.5 -25.5t46 -31.5t30.5 -21q47 -29 172 -29q0 81 -8.5 124t-46.5 122q-47 93 -56.5 117t-9.5 53q0 45 34.5 85t104.5 40z" />
    <glyph glyph-name="bullet" unicode="&#x2022;" horiz-adv-x="1024" 
d="M147 729q0 151 107 258t258 107t258 -107t107 -258t-107 -257.5t-258 -106.5t-258 106.5t-107 257.5z" />
    <glyph glyph-name="ellipsis" unicode="&#x2026;" horiz-adv-x="2048" 
d="M197 125q0 60 42.5 102.5t102.5 42.5t102.5 -42.5t42.5 -102.5t-42.5 -102.5t-102.5 -42.5t-102.5 42.5t-42.5 102.5zM879 125q0 60 42.5 102.5t102.5 42.5t102.5 -42.5t42.5 -102.5t-42.5 -102.5t-102.5 -42.5t-102.5 42.5t-42.5 102.5zM1561 125q0 60 42.5 102.5
t102.5 42.5t102.5 -42.5t42.5 -102.5t-42.5 -102.5t-102.5 -42.5t-102.5 42.5t-42.5 102.5z" />
    <glyph glyph-name="perthousand" unicode="&#x2030;" horiz-adv-x="2123" 
d="M1704 0q23 0 42.5 5t33.5 12.5t24.5 22t18 26.5t12 34t7 37t4 42.5t1.5 43.5v47q0 40 -0.5 60t-3 54.5t-7.5 52.5t-15.5 41t-25.5 34.5t-38 20t-53 8.5t-53 -8.5t-38 -20t-25.5 -34.5t-15.5 -41t-7.5 -52.5t-3 -54.5t-0.5 -60v-47t1.5 -43.5t4 -42.5t7 -37t12 -34
t18 -26.5t24.5 -22t33.5 -12.5t42.5 -5zM281 -10l770 1501l41 -18l-770 -1502zM420 922q23 0 42.5 5t33.5 12.5t24.5 22t18 26.5t12 34t7 37t4 42.5t1.5 43.5v47v47t-1.5 43.5t-4 42.5t-7 37t-12 34t-18 26.5t-24.5 22t-33.5 12.5t-42.5 5q-30 0 -53 -8.5t-38 -20
t-25.5 -34.5t-16 -41t-8 -51.5t-3 -54.5t-0.5 -60t0.5 -60t3 -54.5t8 -51.5t16 -41t25.5 -34.5t38 -20t53 -8.5zM1704 -29q-132 0 -226 84t-94 215t94 215t226 84t225.5 -84t93.5 -215t-93.5 -215t-225.5 -84zM420 893q-132 0 -226 84t-94 215t94 215t226 84t225.5 -84
t93.5 -215t-93.5 -215t-225.5 -84zM952 -29q-132 0 -225.5 84t-93.5 215t93.5 215t225.5 84t226 -84t94 -215t-94 -215t-226 -84zM952 0q30 0 53 8.5t38 20t25.5 34.5t16 41t8 51.5t3 54.5t0.5 60t-0.5 60t-3 54.5t-8 52t-16 41.5t-25.5 34.5t-38 20t-53 8.5t-53 -8.5
t-38 -20t-25.5 -34.5t-15.5 -41t-7.5 -52.5t-3 -54.5t-0.5 -60v-47t1.5 -43.5t4 -42.5t7 -37t12 -34t18 -26.5t24.5 -22t33.5 -12.5t42.5 -5z" />
    <glyph glyph-name="guilsinglleft" unicode="&#x2039;" horiz-adv-x="530" 
d="M436 729l6 -24q-30 -8 -46.5 -14t-42 -24t-38.5 -44t-23.5 -72.5t-10.5 -110.5q0 -58 7.5 -100.5t19.5 -69.5t33.5 -46t44 -29t56.5 -19l-6 -24q-34 7 -56 12.5t-62.5 18.5t-67.5 26.5t-60.5 36.5t-53.5 49t-34 63.5t-14 81.5t15 82.5t35 64.5t56 49.5t61 36.5t68.5 26.5
t60 17.5t52.5 12z" />
    <glyph glyph-name="guilsinglright" unicode="&#x203a;" horiz-adv-x="530" 
d="M94 152l-6 24q31 8 47 14t42 24t39 43.5t23.5 72t10.5 110.5q0 72 -10 120t-33 76.5t-49.5 43t-69.5 25.5l6 24q29 -6 48.5 -11t54 -15t58.5 -21t55.5 -27.5t52.5 -37t40.5 -46.5t29 -59.5t9.5 -71.5q0 -35 -9.5 -66t-22 -54.5t-37 -45t-42.5 -35.5t-51 -28.5t-50 -21.5
t-52 -16.5t-44.5 -11.5t-39.5 -9z" />
    <glyph glyph-name="fraction" unicode="&#x2044;" horiz-adv-x="151" 
d="M-330 -10l770 1501l41 -18l-770 -1502z" />
    <glyph glyph-name="Euro" unicode="&#x20ac;" 
d="M1006 1458v-397h-27q-12 65 -49 160q-29 67 -56 108q-44 65 -90 96q-58 37 -135 37q-59 0 -102 -30q-45 -32 -74 -107q-34 -85 -51 -205t-14 -219h452l-10 -35h-442v-32q0 -38 -1 -82.5t-1 -100.5h382l-10 -35h-372q-5 -119 18.5 -271t67.5 -236q30 -53 67.5 -82
t95.5 -29q130 0 230 156q73 118 100 260h33v-414h-33q-13 36 -41 41q-6 2 -18 2q-21 0 -80 -23q-46 -20 -67.5 -28t-55.5 -15.5t-70 -7.5q-79 0 -159.5 36t-147.5 106q-96 101 -158 278q-37 111 -49 227h-137l16 35h117q0 4 -1 13.5t-1 13.5q-4 66 -4 98q0 44 6 90h-133
l16 35h123q15 111 54 205q51 129 131 217q75 85 161.5 126.5t165.5 41.5q37 0 82 -10q33 -8 96 -39q5 -2 15.5 -7.5t15.5 -7.5q30 -12 51 -12q23 0 33 4q24 10 27 39h33z" />
    <glyph glyph-name="afii61289" unicode="&#x2113;" horiz-adv-x="901" 
d="M817 279l49 -43q-137 -261 -374 -261q-156 0 -230 84q-40 52 -57 115.5t-17 196.5v155l-116 -82l-29 62l145 110v289q0 234 23 343.5t88 191.5q91 125 217 125q100 0 154.5 -82t54.5 -209q0 -173 -75 -312.5t-228 -293.5v-181q0 -202 39.5 -282t132.5 -80q120 0 223 154z
M422 1022v-240q76 91 123 220.5t47 267.5q0 104 -21 162.5t-63 58.5q-26 0 -42 -20.5t-26.5 -75.5t-14 -142.5t-3.5 -230.5z" />
    <glyph glyph-name="trademark" unicode="&#x2122;" horiz-adv-x="2009" 
d="M379 682v754q-35 0 -56.5 -2t-53 -12t-52.5 -29t-42.5 -56.5t-33.5 -91.5h-22v213h692v-213h-23q-9 39 -22.5 69t-27.5 50t-33.5 34t-35.5 21.5t-39.5 11.5t-39 4.5t-39.5 0.5v-754h104v-23h-381v23h105zM971 682v754h-99v22h293l195 -543l196 543h283v-22h-98v-754h98
v-23h-369v23h99v731l-275 -754h-22l-275 754v-731h99v-23h-224v23h99z" />
    <glyph glyph-name="Omega" unicode="&#x2126;" horiz-adv-x="1490" 
d="M1421 338l-53 -338h-506l-18 43q10 23 54.5 126.5t65.5 159t52.5 149t45.5 176t13 161.5q0 160 -26.5 278.5t-74 186t-105.5 99.5t-128 32q-74 0 -131.5 -30t-103 -97.5t-70 -187.5t-24.5 -289q0 -77 15.5 -164t34 -153t56.5 -162t58.5 -142.5t64.5 -142.5l-20 -43h-506
l-47 338l63 2q31 -94 63.5 -123t98.5 -29h196q-55 46 -91.5 80t-91.5 98.5t-88 126t-58 150t-25 182.5q0 148 47 272.5t129.5 209t195 131.5t241.5 47q267 0 435.5 -175t168.5 -472q0 -62 -12.5 -122.5t-31 -110t-50.5 -102t-59.5 -89.5t-70.5 -83.5t-71 -74t-72 -68.5h217
q65 0 94 27.5t60 124.5z" />
    <glyph glyph-name="estimated" unicode="&#x212e;" horiz-adv-x="1828" 
d="M1757 709h-1366q-10 0 -10 -9v-413q0 -26 18 -47q101 -106 234.5 -166t281.5 -60q159 0 299.5 67.5t243.5 184.5h121q-115 -135 -291 -214t-375 -79q-171 0 -327 60t-268.5 161t-179 241t-66.5 294q0 155 66.5 295.5t179 241.5t268.5 161t327 60q172 0 328.5 -60
t269.5 -161t179.5 -241.5t66.5 -295.5v-20zM1446 762v416q0 30 -19 49q-103 101 -234.5 158t-277.5 57q-148 0 -280.5 -58.5t-233.5 -162.5q-20 -20 -20 -52v-407q0 -12 10 -12h1047q8 0 8 12z" />
    <glyph glyph-name="partialdiff" unicode="&#x2202;" horiz-adv-x="1126" 
d="M553 911h4q69 0 138 -32t114 -95q18 154 22 234q11 187 -49 323q-33 70 -96 115t-149 45q-139 0 -295 -129q-17 -1 -38.5 29t-33 71.5t-2.5 67.5q141 84 297 84q291 0 450 -305q58 -114 83.5 -249t25.5 -253q0 -135 -25.5 -274t-76.5 -246q-69 -150 -182.5 -236
t-266.5 -86q-175 0 -281 112t-106 306q0 106 35.5 200t91.5 161q60 71 150.5 114t189.5 43zM610 815h-2q-58 0 -105.5 -26t-88.5 -93q-44 -79 -68 -196.5t-24 -237.5q-2 -98 39.5 -156.5t115.5 -58.5q114 0 209 225q39 90 61.5 183t40.5 231q-21 47 -69.5 88t-108.5 41z" />
    <glyph glyph-name="Delta" unicode="&#x2206;" horiz-adv-x="1335" 
d="M1264 0h-1194v70l534 1388l105 27l555 -1415v-70zM965 121l-385 1009l-375 -1009h760z" />
    <glyph glyph-name="product" unicode="&#x220f;" horiz-adv-x="1464" 
d="M1407 1473v-66q-48 -4 -76.5 -8t-51.5 -13.5t-34 -19.5t-18 -32.5t-8.5 -46t-1.5 -66.5v-1135q0 -46 1.5 -72t9 -50.5t18 -35.5t33.5 -21t51 -14t75 -8v-67h-592v67q42 3 64.5 6t43 12.5t29 20t15 35.5t7.5 51.5t1 75.5v1229q0 50 -14 63t-66 13h-330q-47 0 -59 -11.5
t-12 -56.5v-1237q0 -112 10 -141q13 -37 63 -50q25 -6 70 -10v-67h-578v67q46 4 73.5 8t51 13.5t34.5 21.5t18.5 35.5t9.5 50.5t2 72v1135q0 43 -1.5 67.5t-9.5 46.5t-18.5 32.5t-35 19.5t-53 12.5t-77.5 7.5v66h1356z" />
    <glyph glyph-name="summation" unicode="&#x2211;" horiz-adv-x="1161" 
d="M1114 244l-96 -439h-961v62l453 688l-444 854v64h954q3 -67 24 -361l-67 -14q-31 141 -74 215q-24 47 -66.5 63.5t-154.5 16.5h-322l359 -666l-463 -713h492q52 0 80.5 1.5t59 11t46.5 23t37 43.5t36.5 67t39.5 100z" />
    <glyph glyph-name="minus" unicode="&#x2212;" horiz-adv-x="1214" 
d="M115 473v37h983v-37h-983z" />
    <glyph glyph-name="uni2215" unicode="&#x2215;" horiz-adv-x="151" 
d="M-330 -10l770 1501l41 -18l-770 -1502z" />
    <glyph glyph-name="uni2219" unicode="&#x2219;" horiz-adv-x="569" 
d="M139 578q0 60 43 102.5t103 42.5t102.5 -42.5t42.5 -102.5t-42.5 -103t-102.5 -43t-103 43t-43 103z" />
    <glyph glyph-name="radical" unicode="&#x221a;" horiz-adv-x="1163" 
d="M1137 1851l-363 -2197l-55 -25l-440 1153l-181 -84l-28 82l370 164l310 -854h4l284 1782z" />
    <glyph glyph-name="infinity" unicode="&#x221e;" horiz-adv-x="1576" 
d="M1481 606v-2q0 -160 -98 -257t-230 -97q-94 0 -180 51.5t-182 179.5q-43 -54 -80.5 -92t-83.5 -71.5t-99 -50.5t-112 -17q-130 0 -226 97.5t-96 246.5q0 154 96 252t242 98q107 0 193.5 -57t173.5 -168q80 92 114 122q116 103 252 103q135 -2 225.5 -95.5t90.5 -242.5z
M434 393h2q33 0 66 12.5t57.5 28t56 46.5t49 50.5t48.5 57.5q-80 108 -118 144q-77 73 -167 73q-86 0 -136 -60t-50 -153q0 -83 55 -141t137 -58zM1151 805h-4q-22 0 -44.5 -6.5t-40 -14t-40 -25t-35 -28t-34.5 -34t-29.5 -32.5t-29 -35t-24.5 -30q94 -118 153.5 -162.5
t133.5 -44.5q79 0 127.5 63t48.5 138q0 93 -50.5 152t-131.5 59z" />
    <glyph glyph-name="integral" unicode="&#x222b;" horiz-adv-x="827" 
d="M336 -8l-43 848q-5 144 -3 260.5t18 208.5t35.5 162t48.5 120.5t59 84t65.5 53.5t67.5 28t67 8q56 0 103 -30t47 -84q0 -55 -35 -86t-82 -31q-27 0 -45.5 19.5t-25.5 43t-19 43t-27 19.5q-78 0 -63 -326l41 -782q11 -214 -3.5 -384.5t-48 -282t-84.5 -185t-108.5 -104.5
t-124.5 -31q-62 0 -104.5 35.5t-44.5 83.5q-1 53 41 88.5t94 35.5q23 0 39.5 -21t24 -46.5t19.5 -46.5t27 -21q80 0 64 320z" />
    <glyph glyph-name="approxequal" unicode="&#x2248;" horiz-adv-x="1099" 
d="M926 938l96 -84q-48 -96 -119.5 -154.5t-154.5 -58.5q-57 0 -105.5 18.5t-118.5 61.5q-98 67 -170 67q-32 0 -58.5 -11t-50 -34.5t-38.5 -44.5t-37 -55l-98 84q44 93 123.5 152t171.5 59q17 0 35 -2.5t31 -5t30.5 -9t26 -9.5t26 -12.5t21.5 -11.5t23 -13l18 -11
q87 -54 118 -65q26 -8 52 -8q53 0 93 36.5t85 110.5zM926 561l96 -86q-48 -96 -119.5 -153.5t-157.5 -57.5q-56 0 -104 18t-117 60q-54 36 -91.5 53t-78.5 17q-26 0 -49.5 -9t-40 -20.5t-36 -35t-29.5 -38.5t-29 -45l-98 84q44 93 124.5 152t170.5 59q21 0 40 -2t37.5 -7.5
t31.5 -10t30.5 -13.5t25 -13t25.5 -15t21 -13q7 -4 33.5 -21t36 -21.5t29.5 -14.5t36.5 -13t34.5 -3q52 0 90.5 35.5t87.5 113.5z" />
    <glyph glyph-name="notequal" unicode="&#x2260;" horiz-adv-x="1099" 
d="M811 1059l-78 -176h268v-152h-323l-119 -274h442v-152h-499l-99 -227l-118 47l80 180h-269v152h326l115 274h-441v152h498l98 223z" />
    <glyph glyph-name="lessequal" unicode="&#x2264;" horiz-adv-x="1099" 
d="M997 215l-891 455v164l891 454v-176l-741 -356v-6l741 -359v-176zM1006 -16h-908v153h908v-153z" />
    <glyph glyph-name="greaterequal" unicode="&#x2265;" horiz-adv-x="1099" 
d="M111 1288l890 -454v-164l-890 -455v176l741 359v4l-741 358v176zM1001 -16h-901v153h901v-153z" />
    <glyph glyph-name="lozenge" unicode="&#x25ca;" horiz-adv-x="1173" 
d="M1075 707l-397 -854h-184l-396 854l400 862h182zM905 707l-313 700h-8l-316 -698l318 -703h6z" />
    <glyph glyph-name="zero.taboldstyle" unicode="&#xf643;" 
d="M70 438q0 87 29.5 163.5t79.5 131.5t114.5 95t135 59.5t140.5 19.5t140.5 -19.5t135 -59.5t114.5 -95t80 -131.5t30 -163.5q0 -194 -143.5 -330.5t-356.5 -136.5t-356 136.5t-143 330.5zM346 463q0 -112 5.5 -185t19 -130.5t39 -87.5t64 -45t95.5 -15t95.5 15t64.5 45.5
t39.5 87.5t19 130t5.5 185q0 231 -48 323.5t-176 92.5t-175.5 -92t-47.5 -324z" />
    <glyph glyph-name="one.taboldstyle" unicode="&#xf644;" 
d="M444 29v821h-151v29h553v-29h-152v-821h152v-29h-553v29h151z" />
    <glyph glyph-name="two.taboldstyle" unicode="&#xf645;" 
d="M133 0v27q62 27 103 46.5t106 55t108.5 68.5t94 82t80.5 100.5t50.5 119t20.5 142.5q0 123 -57 180.5t-135 57.5q-79 0 -109 -32t-30 -91q0 -18 4 -48t4 -40q0 -59 -30 -80t-89 -21q-123 0 -123 103q0 26 9.5 54.5t37 62t69.5 59.5t115 43.5t166 17.5q219 0 332 -79
t113 -199q0 -65 -29.5 -126.5t-76.5 -110t-118 -96.5t-141 -84.5t-159 -74.5l-240 -104v-4h500q94 0 160 62.5t75 150.5h29v-242h-840z" />
    <glyph glyph-name="three.taboldstyle" unicode="&#xf646;" 
d="M55 291l33 10q6 -35 20 -71.5t43 -79t68 -75t99.5 -54t132.5 -21.5q77 0 133.5 24.5t89.5 63.5t52.5 100t25.5 120.5t6 137.5q0 35 -0.5 53.5t-2.5 54t-6.5 56.5t-14 52t-22.5 50t-33 40.5t-46 34t-62 20.5t-79 8q-115 0 -246 -82l-17 29q61 39 119.5 57.5t147.5 34.5
q22 5 34.5 8t40 14t45 25.5t40.5 41.5t36.5 61t23 85.5t9.5 114.5q0 23 -0.5 38t-4 45t-10.5 50.5t-21.5 46t-35 41t-52.5 26.5t-73 11q-63 0 -103 -27t-40 -85q0 -10 8 -63t8 -62q0 -27 -9 -46.5t-21 -29t-32.5 -14.5t-33 -6t-33.5 -1q-45 0 -78.5 23.5t-33.5 75.5
q0 121 109.5 192.5t291.5 71.5q102 0 181 -22t124.5 -54.5t75 -75t39.5 -78.5t10 -71q0 -62 -24 -112.5t-61.5 -85t-98.5 -64t-120 -48t-140 -38.5v-4q487 -79 487 -412q0 -77 -33.5 -154.5t-98.5 -146t-175 -111.5t-248 -43q-350 0 -424 320z" />
    <glyph glyph-name="four.taboldstyle" unicode="&#xf647;" 
d="M641 29v647h250v-647h184v-29h-184v-406q-49 27 -125 27t-125 -27v406h-580q62 163 98.5 257.5t102 249.5t125.5 275q75 152 127 239.5t98 135t82.5 61t91.5 13.5q56 0 79.5 -21t23.5 -47q0 -22 -31 -57.5t-103 -106t-122 -125.5q-122 -134 -239.5 -305t-194.5 -331
l-101 -209h543z" />
    <glyph glyph-name="five.taboldstyle" unicode="&#xf648;" 
d="M170 631l133 846h62q30 -28 70 -57.5t115 -61t144 -31.5q32 0 55.5 3.5t60 15.5t74 43.5t72.5 80.5l27 -12q-52 -75 -80.5 -114t-65 -83.5t-59.5 -64.5t-53.5 -39t-60 -25t-66.5 -6q-131 0 -305 91l-70 -449l4 -4q93 143 283 143q128 0 235 -52.5t171.5 -151t64.5 -224.5
q0 -68 -20.5 -138.5t-64 -137t-104 -118t-148 -83t-189.5 -31.5q-144 0 -247.5 68t-103.5 160q0 114 125 114t125 -90q0 -7 -5 -48t-5 -48q0 -37 12.5 -63.5t32.5 -39.5t39.5 -18.5t38.5 -5.5q26 0 41.5 1.5t43.5 10.5t46 25.5t40.5 50.5t35.5 82t22 123t9 170
q0 104 -13 180t-33 119t-51 68.5t-60 33.5t-67 8q-63 0 -115 -24t-85 -63.5t-53 -77t-31 -76.5h-27z" />
    <glyph glyph-name="six.taboldstyle" unicode="&#xf649;" 
d="M57 614q0 230 85.5 431t240 323.5t340.5 122.5q77 0 142 -22.5t110 -75t45 -127.5q0 -63 -30 -92t-93 -29q-66 0 -93.5 23.5t-27.5 66.5q0 26 17.5 75t17.5 66q0 10 -3 21.5t-12 27.5t-30.5 26.5t-52.5 10.5q-49 0 -92.5 -16.5t-76 -42.5t-60.5 -67.5t-48 -82
t-36.5 -96.5t-26.5 -100t-19.5 -104t-14 -96.5t-9.5 -88.5l4 -4q16 22 27 34.5t36 34t50 33.5t65 21.5t86 9.5q130 0 240.5 -61t175.5 -167t65 -233q0 -124 -71 -232t-187.5 -170.5t-245.5 -62.5q-225 0 -371.5 172t-146.5 471zM328 520q0 -104 8.5 -186t21.5 -136t34 -92.5
t40 -58.5t46 -31t45 -13.5t44 -2.5q44 0 74 7t63.5 34t53 76t32.5 139t13 217q0 200 -48 297.5t-159 97.5q-142 0 -213 -94q-19 -25 -29 -46t-18 -73.5t-8 -134.5z" />
    <glyph glyph-name="seven.taboldstyle" unicode="&#xf64a;" 
d="M150 471v408h864q-18 -390 -211 -863q-51 -126 -84.5 -204.5t-71.5 -158t-67 -124t-62.5 -81.5t-66.5 -51.5t-72 -14.5q-57 0 -96 19t-39 62q0 45 41 86l178 166q65 60 135 149.5t141 206.5t128.5 264t84.5 294h-598q-79 0 -124 -35t-52 -123h-28z" />
    <glyph glyph-name="eight.taboldstyle" unicode="&#xf64b;" 
d="M80 350q0 51 11 95t35 79.5t49.5 63t67.5 55t76 46t87 44.5q-53 29 -84.5 49t-71 53.5t-60.5 67.5t-36 85t-15 112q0 171 131 281t324 110q160 0 272.5 -89t112.5 -220q0 -100 -67 -179t-207 -143q170 -77 253.5 -176t83.5 -238q0 -81 -36 -164.5t-99 -153t-158.5 -113.5
t-203.5 -44q-190 0 -327.5 109.5t-137.5 269.5zM610 627l-174 92q-36 -22 -62 -56.5t-39 -69.5t-21 -81t-9.5 -78.5t-1.5 -75.5q0 -358 242 -358q65 0 116 20t81.5 51.5t51 73.5t28 81.5t7.5 80.5q0 121 -51.5 189.5t-167.5 130.5zM334 1214q0 -38 9 -71.5t22 -58.5
t40.5 -51t49.5 -43t65.5 -40t72.5 -37t85 -39q20 17 31 30.5t26.5 46t23 89.5t7.5 140q0 25 -1.5 46.5t-7 58t-19 64.5t-34 55.5t-55.5 42.5t-80 15q-104 0 -169.5 -71.5t-65.5 -176.5z" />
    <glyph glyph-name="nine.taboldstyle" unicode="&#xf64c;" 
d="M57 440q0 123 70 231.5t186 172t246 63.5q61 0 120.5 -15.5t119 -47t109.5 -84t88.5 -121t60.5 -164.5t22 -209q0 -233 -90.5 -436t-241.5 -322.5t-321 -119.5q-46 0 -95 11t-98.5 35t-81.5 71t-32 110q0 121 135 121q55 0 81.5 -23.5t26.5 -60.5q0 -23 -17 -69t-17 -79
q0 -88 108 -88q150 0 238.5 176t124.5 523h-4q-35 -62 -111.5 -97.5t-157.5 -35.5q-104 0 -193.5 39t-149 103.5t-93 146.5t-33.5 169zM334 403q0 -215 50 -304t155 -89q133 0 201.5 84t68.5 228q0 86 -4 153.5t-13.5 133.5t-27.5 113t-44.5 83.5t-66 55t-90.5 18.5
q-70 0 -115.5 -30t-70 -94.5t-34 -146.5t-9.5 -205z" />
    <glyph glyph-name="cent.taboldstyle" unicode="&#xf654;" 
d="M401 -188l56 190q-60 19 -114.5 54t-102.5 88t-76.5 129.5t-28.5 166.5q0 77 34 158t95 150.5t159.5 114t215.5 44.5q49 0 72 -6l49 172l28 -6l-47 -168q113 -21 179.5 -78.5t66.5 -140.5q0 -65 -33.5 -94t-99.5 -29q-127 0 -127 90q0 11 15.5 72t15.5 72q0 37 -31 61
l-223 -791q61 -61 164 -61q63 0 116.5 20t86 48.5t56.5 63.5t34.5 61t13.5 45l29 -11q-9 -33 -22.5 -63.5t-42.5 -67t-66.5 -63t-98 -44.5t-133.5 -18q-71 0 -158 23l-53 -189zM481 90l219 774q-24 15 -67 15q-48 0 -84 -15t-60 -45t-39.5 -66.5t-23.5 -88t-11 -100
t-3 -111.5q0 -124 13.5 -214t55.5 -149z" />
    <glyph glyph-name="dollar.oldstyle" unicode="&#xf724;" horiz-adv-x="1290" 
d="M641 618v-620q78 2 140.5 26t100 58.5t62.5 78.5t34 82t9 72q0 54 -19 98t-47.5 73t-77.5 55t-93 42t-109 35zM606 940v522q-141 -9 -225 -86t-84 -170q0 -54 23 -97t67.5 -74.5t96 -53t122.5 -41.5zM606 1491v121h35v-121q77 -1 144.5 -20t113 -37.5t70.5 -18.5
q27 0 37.5 8.5t19.5 34.5h35v-389h-29q-1 2 -2 6q-53 157 -95 224q-95 154 -277 162l-17 1v-530q190 -59 258 -89q191 -84 249 -223q28 -68 28 -153q0 -129 -66.5 -239.5t-189.5 -180.5t-279 -78v-143h-35v143q-72 1 -159 20.5t-152.5 38.5t-85.5 19q-28 0 -40.5 -9.5
t-23.5 -37.5h-30v455h28q14 -76 53 -168.5t113 -165.5q54 -53 112.5 -82t97 -35t87.5 -6v629q-62 19 -97 30.5t-91 34.5t-89 44t-73 55.5t-61.5 72.5t-36.5 90.5t-15 114.5q0 161 131 285.5t332 136.5z" />
    <glyph glyph-name="zero.oldstyle" unicode="&#xf730;" 
d="M70 438q0 87 29.5 163.5t79.5 131.5t114.5 95t135 59.5t140.5 19.5t140.5 -19.5t135 -59.5t114.5 -95t80 -131.5t30 -163.5q0 -194 -143.5 -330.5t-356.5 -136.5t-356 136.5t-143 330.5zM346 463q0 -112 5.5 -185t19 -130.5t39 -87.5t64 -45t95.5 -15t95.5 15t64.5 45.5
t39.5 87.5t19 130t5.5 185q0 231 -48 323.5t-176 92.5t-175.5 -92t-47.5 -324z" />
    <glyph glyph-name="one.oldstyle" unicode="&#xf731;" horiz-adv-x="757" 
d="M254 29v821h-152v29h553v-29h-151v-821h151v-29h-553v29h152z" />
    <glyph glyph-name="two.oldstyle" unicode="&#xf732;" horiz-adv-x="1062" 
d="M96 0v27q62 27 103 46.5t106 55t108.5 68.5t94 82t80.5 100.5t50.5 119t20.5 142.5q0 123 -57 180.5t-135 57.5q-79 0 -109 -32t-30 -91q0 -18 4 -48t4 -40q0 -59 -30 -80t-89 -21q-123 0 -123 103q0 26 9.5 54.5t37 62t70 59.5t115.5 43.5t166 17.5q219 0 331.5 -78.5
t112.5 -199.5q0 -65 -29.5 -126.5t-76.5 -110t-118 -96.5t-141 -84.5t-159 -74.5l-240 -104v-4h500q94 0 160 62.5t75 150.5h29v-242h-840z" />
    <glyph glyph-name="three.oldstyle" unicode="&#xf733;" 
d="M55 291l33 10q6 -35 20 -71.5t43 -79t68 -75t99.5 -54t132.5 -21.5q77 0 133.5 24.5t89.5 63.5t52.5 100t25.5 120.5t6 137.5q0 35 -0.5 53.5t-2.5 54t-6.5 56.5t-14 52t-22.5 50t-33 40.5t-46 34t-62 20.5t-79 8q-115 0 -246 -82l-17 29q61 39 119.5 57.5t147.5 34.5
q22 5 34.5 8t40 14t45 25.5t40.5 41.5t36.5 61t23 85.5t9.5 114.5q0 23 -0.5 38t-4 45t-10.5 50.5t-21.5 46t-35 41t-52.5 26.5t-73 11q-63 0 -103 -27t-40 -85q0 -10 8 -63t8 -62q0 -27 -9 -46.5t-21 -29t-32.5 -14.5t-33 -6t-33.5 -1q-45 0 -78.5 23.5t-33.5 75.5
q0 121 109.5 192.5t291.5 71.5q102 0 181 -22t124.5 -54.5t75 -75t39.5 -78.5t10 -71q0 -62 -24 -112.5t-61.5 -85t-98.5 -64t-120 -48t-140 -38.5v-4q487 -79 487 -412q0 -77 -33.5 -154.5t-98.5 -146t-175 -111.5t-248 -43q-350 0 -424 320z" />
    <glyph glyph-name="four.oldstyle" unicode="&#xf734;" horiz-adv-x="1062" 
d="M604 29v647h250v-647h184v-29h-184v-406q-49 27 -125 27t-125 -27v406h-579q65 173 98.5 260t100 244.5t126.5 277.5q75 151 127 239.5t98.5 135.5t83 60.5t91.5 13.5q56 0 79 -21t23 -47q0 -22 -31 -57.5t-103 -106t-122 -125.5q-122 -134 -239.5 -305t-194.5 -331
l-101 -209h543z" />
    <glyph glyph-name="five.oldstyle" unicode="&#xf735;" horiz-adv-x="985" 
d="M94 631l133 846h62q30 -28 70 -57.5t115 -61t144 -31.5q32 0 55.5 3.5t60.5 15.5t74.5 43.5t72.5 80.5l26 -12q-52 -75 -80.5 -114t-65 -83.5t-59.5 -64.5t-53.5 -39t-60 -25t-66.5 -6q-131 0 -305 91l-70 -449l5 -4q93 143 282 143q128 0 235 -52.5t171.5 -151
t64.5 -224.5q0 -68 -20.5 -138.5t-64 -137t-104 -118t-148 -83t-189.5 -31.5q-144 0 -247 68t-103 160q0 114 125 114t125 -90q0 -7 -5.5 -48t-5.5 -48q0 -37 12.5 -63.5t32.5 -39.5t39.5 -18.5t38.5 -5.5q26 0 41.5 1.5t43.5 10.5t46 25.5t40.5 50.5t35.5 82t22 123t9 170
q0 104 -13 180t-32.5 119t-50.5 68.5t-60 33.5t-67 8q-51 0 -95.5 -16.5t-75 -42t-54.5 -59t-38 -63.5t-22 -60h-27z" />
    <glyph glyph-name="six.oldstyle" unicode="&#xf736;" 
d="M57 614q0 230 85.5 431t240 323.5t340.5 122.5q77 0 142 -22.5t110 -75t45 -127.5q0 -63 -30 -92t-93 -29q-66 0 -93.5 23.5t-27.5 66.5q0 26 17.5 75t17.5 66q0 10 -3 21.5t-12 27.5t-30.5 26.5t-52.5 10.5q-49 0 -92.5 -16.5t-76 -42.5t-60.5 -67.5t-48 -82
t-36.5 -96.5t-26.5 -100t-19.5 -104t-14 -96.5t-9.5 -88.5l4 -4q16 22 27 34.5t36 34t50 33.5t65 21.5t86 9.5q130 0 240.5 -61t175.5 -167t65 -233q0 -124 -71 -232t-187.5 -170.5t-245.5 -62.5q-225 0 -371.5 172t-146.5 471zM328 520q0 -104 8.5 -186t21.5 -136t34 -92.5
t40 -58.5t46 -31t45 -13.5t44 -2.5q44 0 74 7t63.5 34t53 76t32.5 139t13 217q0 200 -48 297.5t-159 97.5q-142 0 -213 -94q-19 -25 -29 -46t-18 -73.5t-8 -134.5z" />
    <glyph glyph-name="seven.oldstyle" unicode="&#xf737;" horiz-adv-x="985" 
d="M74 471v408h864q-18 -390 -211 -863q-51 -126 -84.5 -204.5t-71.5 -158t-67 -124t-62.5 -81.5t-66.5 -51.5t-72 -14.5q-57 0 -96 19t-39 62q0 45 41 86l178 166q65 61 135 150t141 206t129 264t85 294h-598q-79 0 -124.5 -35t-52.5 -123h-28z" />
    <glyph glyph-name="eight.oldstyle" unicode="&#xf738;" 
d="M80 350q0 51 11 95t35 79.5t49.5 63t67.5 55t76 46t87 44.5q-53 29 -84.5 49t-71 53.5t-60.5 67.5t-36 85t-15 112q0 171 131 281t324 110q160 0 272.5 -89t112.5 -220q0 -100 -67 -179t-207 -143q170 -77 253.5 -176t83.5 -238q0 -81 -36 -164.5t-99 -153t-158.5 -113.5
t-203.5 -44q-190 0 -327.5 109.5t-137.5 269.5zM610 627l-174 92q-36 -22 -62 -56.5t-39 -69.5t-21 -81t-9.5 -78.5t-1.5 -75.5q0 -358 242 -358q65 0 116 20t81.5 51.5t51 73.5t28 81.5t7.5 80.5q0 121 -51.5 189.5t-167.5 130.5zM334 1214q0 -38 9 -71.5t22 -58.5
t40.5 -51t49.5 -43t65.5 -40t72.5 -37t85 -39q20 17 31 30.5t26.5 46t23 89.5t7.5 140q0 25 -1.5 46.5t-7 58t-19 64.5t-34 55.5t-55.5 42.5t-80 15q-104 0 -169.5 -71.5t-65.5 -176.5z" />
    <glyph glyph-name="nine.oldstyle" unicode="&#xf739;" 
d="M57 440q0 123 70 231.5t186 172t246 63.5q61 0 120.5 -15.5t119 -47t109.5 -84t88.5 -121t60.5 -164.5t22 -209q0 -233 -90.5 -436t-241.5 -322.5t-321 -119.5q-46 0 -95 11t-98.5 35t-81.5 71t-32 110q0 121 135 121q55 0 81.5 -23.5t26.5 -60.5q0 -23 -17 -69t-17 -79
q0 -88 108 -88q150 0 238.5 176t124.5 523h-4q-35 -62 -111.5 -97.5t-157.5 -35.5q-104 0 -193.5 39t-149 103.5t-93 146.5t-33.5 169zM334 403q0 -215 50 -304t155 -89q133 0 201.5 84t68.5 228q0 86 -4 153.5t-13.5 133.5t-27.5 113t-44.5 83.5t-66 55t-90.5 18.5
q-70 0 -115.5 -30t-70 -94.5t-34 -146.5t-9.5 -205z" />
    <glyph glyph-name="cent.oldstyle" unicode="&#xf7a2;" horiz-adv-x="1064" 
d="M365 -188l55 190q-60 19 -114.5 54t-102.5 88t-76.5 129.5t-28.5 166.5q0 77 34 158t95 150.5t159.5 114t215.5 44.5q49 0 72 -6l49 172l29 -6l-47 -168q112 -21 178.5 -78.5t66.5 -140.5q0 -65 -33.5 -94t-99.5 -29q-127 0 -127 90q0 11 15.5 72t15.5 72q0 37 -31 61
l-223 -791q61 -61 164 -61q63 0 116.5 20t86 48.5t56.5 63.5t34.5 61t13.5 45l29 -11q-9 -33 -22.5 -63.5t-42.5 -67t-66.5 -63t-98 -44.5t-133.5 -18q-71 0 -158 23l-53 -189zM444 90l220 774q-24 15 -68 15q-48 0 -84 -15t-60 -45t-39.5 -66.5t-23.5 -88t-11 -100
t-3 -111.5q0 -124 13.5 -214t55.5 -149z" />
    </font>
</defs>
</svg>
